<?xml version="1.0" standalone="no"?>
<!DOCTYPE svg PUBLIC "-//W3C//DTD SVG 1.1//EN" "http://www.w3.org/Graphics/SVG/1.1/DTD/svg11.dtd" >
<svg>
<metadata>
Created by FontForge 20120731 at Mon Apr 11 19:15:35 2016
 By ,,,
2008 Erik Spiekermann published by FSI FontShop International GmbH
</metadata>
<defs>
<font id="MetaPro-HairIta" horiz-adv-x="1" >
  <font-face 
    font-family="MetaPro-HairIta"
    font-weight="250"
    font-style="italic"
    font-stretch="normal"
    units-per-em="1000"
    panose-1="2 11 4 4 2 1 1 2 1 2"
    ascent="754"
    descent="-246"
    x-height="498"
    cap-height="686"
    bbox="-345 -277 1130 987"
    underline-thickness="9"
    underline-position="-71"
    unicode-range="U+000D-FB06"
  />
<missing-glyph horiz-adv-x="479" 
d="M40 0v686h399v-686h-399zM49 9h381v668h-381v-668z" />
    <glyph glyph-name="f_b" unicode="fb" horiz-adv-x="720" 
d="M431 703l-58 -271l-17 -79q88 151 189 151q60 0 95 -39t35 -120q0 -88 -29 -167t-88.5 -132t-136.5 -53q-83 0 -140 55l6 30l132 618q-43 19 -121 19q-37 0 -63 -26t-36 -71l-26 -120h122l-5 -9h-119l-103 -489q-19 -87 -34.5 -122.5t-47.5 -73.5l-8 5q33 36 48 73.5
t32 117.5l103 489h-48l2 9h48l26 120q11 51 40 78q30 28 71 28q65 0 131 -21zM542 495q-49 0 -95 -39t-96 -127l-59 -277q50 -50 131 -50q72 0 129 52t85 129t28 160q0 152 -123 152z" />
    <glyph glyph-name="f_f" unicode="ff" horiz-adv-x="434" 
d="M58 0l103 489h-48l2 9h48l26 120q24 106 111 106q38 0 67 -21l-5 -8q-26 20 -64 20q-37 0 -63 -26t-36 -71l-26 -120h204l26 120q24 106 111 106q38 0 67 -21l-5 -8q-26 20 -64 20q-37 0 -63 -26t-36 -71l-26 -120h122l-5 -9h-119l-103 -489q-19 -87 -34.5 -122.5
t-47.5 -73.5l-8 5q33 36 48 73.5t32 117.5l103 489h-204l-103 -489q-19 -87 -34.5 -122.5t-47.5 -73.5l-8 5q33 36 48 73.5t32 117.5z" />
    <glyph glyph-name="f_f_i" unicode="ffi" horiz-adv-x="607" 
d="M58 0l103 489h-48l2 9h48l26 120q24 106 111 106q38 0 67 -21l-5 -8q-26 20 -64 20q-37 0 -63 -26t-36 -71l-26 -120h199l26 120q24 106 111 106q39 0 67 -21l-5 -8q-26 20 -64 20q-37 0 -63 -26t-36 -71l-26 -120h204l-105 -498h-10l103 489h-194l-103 -489
q-19 -87 -34.5 -122.5t-47.5 -73.5l-8 5q33 36 48 73.5t32 117.5l103 489h-199l-103 -489q-19 -87 -34.5 -122.5t-47.5 -73.5l-8 5q33 36 48 73.5t32 117.5zM612 647q-5 0 -9.5 4t-4.5 10t4.5 10t9.5 4q14 0 14 -14q0 -6 -4.5 -10t-9.5 -4z" />
    <glyph glyph-name="f_f_j" unicode="ffj" horiz-adv-x="610" 
d="M267 0l103 489h-199l-103 -489q-19 -87 -34.5 -122.5t-47.5 -73.5l-8 5q33 36 48 73.5t32 117.5l103 489h-48l2 9h48l26 120q24 106 111 106q38 0 67 -21l-5 -8q-26 20 -64 20q-37 0 -63 -26t-36 -71l-26 -120h199l26 120q24 106 111 106q39 0 67 -21l-5 -8
q-26 20 -64 20q-37 0 -63 -26t-36 -71l-26 -120h209l-105 -494q-11 -49 -20 -75t-31.5 -51.5t-60.5 -39.5l-3 8q50 19 70.5 54.5t35.5 105.5l102 483h-199l-103 -489q-19 -87 -34.5 -122.5t-47.5 -73.5l-8 5q33 36 48 73.5t32 117.5zM617 647q-5 0 -9.5 4t-4.5 10t4.5 10
t9.5 4q14 0 14 -14q0 -6 -4.5 -10t-9.5 -4z" />
    <glyph glyph-name="f_f_t" unicode="fft" horiz-adv-x="658" 
d="M272 0l103 489h-204l-103 -489q-19 -87 -34.5 -122.5t-47.5 -73.5l-8 5q33 36 48 73.5t32 117.5l103 489h-48l2 9h48l26 120q24 106 111 106q38 0 67 -21l-5 -8q-26 20 -64 20q-37 0 -63 -26t-36 -71l-26 -120h204l26 120q24 106 111 106q38 0 67 -21l-5 -8
q-26 20 -64 20q-37 0 -63 -26t-36 -71l-26 -120h204q17 78 38 131l12 3q-22 -49 -40 -134h119l-5 -9h-116l-77 -364q-9 -45 -9 -64q0 -59 55 -59q31 0 61 12v-9q-29 -12 -62 -12q-63 0 -63 68q0 26 8 64l77 364h-204l-103 -489q-19 -87 -34.5 -122.5t-47.5 -73.5l-8 5
q33 36 48 73.5t32 117.5z" />
    <glyph glyph-name="f_h" unicode="fh" horiz-adv-x="711" 
d="M431 703l-64 -303l-11 -50q112 154 208 154q43 0 67 -24.5t24 -65.5q0 -15 -7 -48l-77 -366h-10l78 368q6 29 6 45q0 37 -21 59.5t-63 22.5q-29 0 -59.5 -15.5t-59 -44t-47.5 -51.5t-43 -55l-70 -329h-10l147 696q-43 19 -121 19q-37 0 -63 -26t-36 -71l-26 -120h122
l-5 -9h-119l-103 -489q-19 -87 -34.5 -122.5t-47.5 -73.5l-8 5q33 36 48 73.5t32 117.5l103 489h-48l2 9h48l26 120q11 51 40 78q30 28 71 28q65 0 131 -21z" />
    <glyph glyph-name="f_i" unicode="fi" horiz-adv-x="398" 
d="M262 0l103 489h-194l-103 -489q-19 -87 -34.5 -122.5t-47.5 -73.5l-8 5q33 36 48 73.5t32 117.5l103 489h-48l2 9h48l26 120q24 106 111 106q38 0 67 -21l-5 -8q-26 20 -64 20q-37 0 -63 -26t-36 -71l-26 -120h204l-105 -498h-10zM403 647q-5 0 -9.5 4t-4.5 10t4.5 10
t9.5 4q14 0 14 -14q0 -6 -4.5 -10t-9.5 -4z" />
    <glyph glyph-name="f_j" unicode="fj" horiz-adv-x="396" 
d="M160 -162l-3 8q50 19 70.5 54.5t35.5 105.5l102 483h-194l-103 -489q-19 -87 -34.5 -122.5t-47.5 -73.5l-8 5q33 36 48 73.5t32 117.5l103 489h-48l2 9h48l26 120q24 106 111 106q38 0 67 -21l-5 -8q-26 20 -64 20q-37 0 -63 -26t-36 -71l-26 -120h205l-106 -494
q-11 -49 -20 -75t-31.5 -51.5t-60.5 -39.5zM403 647q-5 0 -9.5 4t-4.5 10t4.5 10t9.5 4q14 0 14 -14q0 -6 -4.5 -10t-9.5 -4z" />
    <glyph glyph-name="f_k" unicode="fk" horiz-adv-x="609" 
d="M271 0l148 696q-43 19 -121 19q-37 0 -63 -26t-36 -71l-26 -120h122l-5 -9h-119l-103 -489q-19 -87 -34.5 -122.5t-47.5 -73.5l-8 5q33 36 48 73.5t32 117.5l103 489h-48l2 9h48l26 120q11 51 40 78q30 28 71 28q65 0 131 -21l-150 -703h-10zM562 -3l-209 279l283 225
l6 -7l-276 -219l204 -274z" />
    <glyph glyph-name="f_t" unicode="ft" horiz-adv-x="431" 
d="M340 -7q-63 0 -63 68q0 26 8 64l77 364h-191l-103 -489q-19 -87 -34.5 -122.5t-47.5 -73.5l-8 5q33 36 48 73.5t32 117.5l103 489h-48l2 9h48l26 120q24 106 111 106q38 0 67 -21l-5 -8q-26 20 -64 20q-37 0 -63 -26t-36 -71l-26 -120h191q17 78 38 131l12 3
q-22 -49 -40 -134h119l-5 -9h-116l-77 -364q-9 -45 -9 -64q0 -59 55 -59q31 0 61 12v-9q-29 -12 -62 -12z" />
    <glyph glyph-name=".notdef" horiz-adv-x="479" 
d="M40 0v686h399v-686h-399zM49 9h381v668h-381v-668z" />
    <glyph glyph-name=".null" horiz-adv-x="0" 
 />
    <glyph glyph-name=".null" horiz-adv-x="0" 
 />
    <glyph glyph-name="nonmarkingreturn" horiz-adv-x="333" 
 />
    <glyph glyph-name="CR" unicode="&#xd;" horiz-adv-x="225" 
 />
    <glyph glyph-name="space" unicode=" " horiz-adv-x="225" 
 />
    <glyph glyph-name="exclam" unicode="!" horiz-adv-x="212" 
d="M78 131l118 555l11 2l-119 -557h-10zM57 -7q-5 0 -9.5 4t-4.5 10q0 14 14 14t14 -14q0 -6 -4.5 -10t-9.5 -4z" />
    <glyph glyph-name="quotedbl" unicode="&#x22;" horiz-adv-x="298" 
d="M140 486l42 200h10l-42 -200h-10zM245 486l42 200h10l-42 -200h-10z" />
    <glyph glyph-name="numbersign" unicode="#" horiz-adv-x="527" 
d="M56 0l85 240h-101v9h104l73 212h-101v9h105l85 238h10l-85 -238h184l84 238h10l-84 -238h100v-9h-104l-74 -212h102v-9h-105l-85 -240h-10l85 240h-183l-85 -240h-10zM154 249h183l74 212h-183z" />
    <glyph glyph-name="dollar" unicode="$" horiz-adv-x="469" 
d="M162 -98l19 91h-14q-96 0 -167 53l6 8q66 -52 163 -52h14l75 350l-35 16q-106 47 -106 134q0 91 62 139.5t151 50.5l15 71h10l-15 -71q87 -1 145 -46l-6 -7q-57 43 -141 44l-69 -325l19 -8q59 -26 91 -59t32 -84q0 -91 -63 -148.5t-157 -64.5l-19 -92h-10zM401 206
q0 47 -29.5 78t-85.5 56l-19 8l-74 -345q86 7 147 62t61 141zM127 504q0 -82 98 -126l35 -16l68 321q-83 -2 -142 -48t-59 -131z" />
    <glyph glyph-name="percent" unicode="%" horiz-adv-x="714" 
d="M208 383q70 0 117 58t47 132q0 46 -24.5 75.5t-76.5 29.5q-70 0 -117 -58t-47 -132q0 -46 24.5 -75.5t76.5 -29.5zM206 374q-51 0 -80 30.5t-29 82.5q0 78 49 139t127 61q51 0 80 -30.5t29 -82.5q0 -78 -49 -139t-127 -61zM136 0l477 681h11l-477 -681h-11zM489 3
q70 0 117 58t47 132q0 46 -24.5 75.5t-76.5 29.5q-70 0 -117 -58t-47 -132q0 -46 24.5 -75.5t76.5 -29.5zM487 -6q-51 0 -80 30.5t-29 82.5q0 78 49 139t127 61q51 0 80 -30.5t29 -82.5q0 -78 -49 -139t-127 -61z" />
    <glyph glyph-name="ampersand" unicode="&#x26;" horiz-adv-x="600" 
d="M517 0l-81 96q-86 -109 -237 -109q-73 0 -114 35t-41 95q0 76 51.5 128t138.5 91q-68 81 -68 148q0 74 57 121.5t134 47.5q58 0 91.5 -26.5t33.5 -73.5q0 -34 -15 -64t-35 -50.5t-55 -42t-61.5 -33.5t-66.5 -29l187 -223q57 76 89 221h10q-32 -148 -93 -229l88 -103h-13z
M201 -4q147 0 229 107l-191 226q-185 -79 -185 -211q0 -57 38.5 -89.5t108.5 -32.5zM176 486q0 -65 67 -145q32 14 43.5 19t42.5 20t45 25t36.5 28t33.5 34.5t19.5 38.5t8.5 46q0 44 -31.5 68t-85.5 24q-71 0 -125 -44.5t-54 -113.5z" />
    <glyph glyph-name="quotesingle" unicode="'" horiz-adv-x="193" 
d="M140 486l42 200h10l-42 -200h-10z" />
    <glyph glyph-name="parenleft" unicode="(" horiz-adv-x="292" 
d="M222 -157q-136 77 -136 270q0 114 29 227q37 148 114.5 264.5t189.5 165.5l3 -8q-112 -52 -187 -166.5t-111 -259.5q-28 -112 -28 -221q0 -192 131 -264z" />
    <glyph glyph-name="parenright" unicode=")" horiz-adv-x="292" 
d="M96 762l5 8q136 -77 136 -270q0 -135 -42 -273q-40 -133 -114 -235.5t-177 -148.5l-3 8q102 47 173.5 148t111.5 230q41 135 41 269q0 192 -131 264z" />
    <glyph glyph-name="asterisk" unicode="*" horiz-adv-x="434" 
d="M167 421l-8 6l93 131l-146 41l3 9l146 -41v147h10v-147l146 41l3 -9l-146 -41l93 -131l-8 -6l-93 132z" />
    <glyph glyph-name="plus" unicode="+" horiz-adv-x="475" 
d="M194 56l41 190h-189l2 9h189l40 189h10l-40 -189h189l-2 -9h-189l-41 -190h-10z" />
    <glyph glyph-name="comma" unicode="," horiz-adv-x="151" 
d="M-8 -88l-4 5q41 32 41 74v3q-2 -1 -6 -1q-13 0 -13 14t14 14q15 0 15 -21q0 -52 -47 -88z" />
    <glyph glyph-name="hyphen" unicode="-" horiz-adv-x="317" 
d="M69 276l2 9h191l-2 -9h-191z" />
    <glyph glyph-name="period" unicode="." horiz-adv-x="170" 
d="M47 -7q-5 0 -9.5 4t-4.5 10q0 14 14 14t14 -14q0 -6 -4.5 -10t-9.5 -4z" />
    <glyph glyph-name="slash" unicode="/" horiz-adv-x="346" 
d="M-41 -148l451 905h9l-451 -905h-9z" />
    <glyph glyph-name="zero" unicode="0" horiz-adv-x="539" 
d="M218 -8q-75 0 -115.5 44t-40.5 126q0 56 16.5 114.5t47.5 110t83 84.5t116 33q75 0 115.5 -44t40.5 -126q0 -78 -27.5 -153.5t-89.5 -132t-146 -56.5zM220 1q59 0 108.5 31t79.5 81t46.5 107.5t16.5 113.5q0 78 -37.5 119.5t-110.5 41.5q-78 0 -137.5 -54t-86.5 -128.5
t-27 -151.5q0 -78 37.5 -119t110.5 -41z" />
    <glyph glyph-name="one" unicode="1" horiz-adv-x="364" 
d="M60 0l1 9h104l102 480q-1 0 -63 -38t-89 -54l-3 7l158 97h10l-105 -492h101l-1 -9h-215z" />
    <glyph glyph-name="two" unicode="2" horiz-adv-x="498" 
d="M22 0l2 10q21 15 86 60.5t89 62.5t62 46t63 51q105 92 105 169q0 47 -30.5 71.5t-78.5 24.5q-86 0 -197 -68l-4 7q109 70 203 70q50 0 83.5 -27t33.5 -76q0 -85 -111 -179q-24 -21 -59 -47.5t-64.5 -47.5t-82 -58t-84.5 -60h348l-4 -9h-360z" />
    <glyph glyph-name="three" unicode="3" horiz-adv-x="469" 
d="M-27 -166l-1 9q16 -3 47 -3q68 0 144.5 27t137 86.5t60.5 134.5q0 57 -44 88t-125 31h-32l2 9h38q77 0 141 52t64 130q0 49 -31 73t-83 24q-93 0 -184 -58l-4 7q95 60 190 60q55 0 88.5 -27t33.5 -78q0 -71 -55 -125t-128 -62q63 -5 101 -37.5t38 -83.5
q0 -77 -58.5 -138.5t-138.5 -91.5t-156 -30q-28 0 -45 3z" />
    <glyph glyph-name="four" unicode="4" horiz-adv-x="482" 
d="M276 -183l34 163l4 20h-323l2 10l350 496h11l-329 -467l-21 -30h312l9 40l39 179l15 67l9 3l-62 -289h81l-1 -9h-82l-38 -180z" />
    <glyph glyph-name="five" unicode="5" horiz-adv-x="450" 
d="M8 -169q-24 0 -42 3v9q16 -3 43 -3q75 0 149.5 34t126 99t51.5 143q0 59 -38.5 90.5t-111.5 31.5q-67 0 -126 -26l90 286h260l-4 -9h-250l-83 -263q54 21 115 21q74 0 116 -33.5t42 -97.5q0 -116 -105 -200.5t-233 -84.5z" />
    <glyph glyph-name="six" unicode="6" horiz-adv-x="530" 
d="M495 683q-65 -23 -128.5 -60t-122 -87.5t-102.5 -118t-62 -141.5q41 45 98.5 73t111.5 28q69 0 109 -41t40 -107q0 -98 -64.5 -167t-162.5 -69q-74 0 -114.5 48.5t-40.5 129.5q0 92 37 177t100 150t139 114t160 80zM288 368q-54 0 -111 -29.5t-101 -75.5q-9 -43 -9 -90
q0 -78 38.5 -124.5t108.5 -46.5q92 0 153.5 68.5t61.5 157.5q0 62 -37 101t-104 39z" />
    <glyph glyph-name="seven" unicode="7" horiz-adv-x="445" 
d="M4 -173q86 198 223 387q102 140 231 275h-352l4 9h361l-3 -12q-127 -132 -235 -280q-133 -182 -218 -376z" />
    <glyph glyph-name="eight" unicode="8" horiz-adv-x="522" 
d="M500 538q0 -40 -16.5 -71.5t-48.5 -54.5t-62 -37.5t-74 -30.5q145 -58 145 -158q0 -87 -67.5 -140t-166.5 -53q-75 0 -120.5 33.5t-45.5 95.5q0 45 19.5 81.5t56 63t70.5 43.5t82 34q-61 24 -95 55.5t-34 83.5q0 69 55.5 119.5t152.5 50.5q69 0 109 -31t40 -84zM434 185
q0 96 -148 154q-47 -16 -79 -31t-71.5 -41t-60.5 -62.5t-21 -82.5q0 -57 42 -88.5t116 -31.5q89 0 155.5 48.5t66.5 134.5zM153 483q0 -49 33 -79t99 -55q32 11 54 20t53.5 26t50.5 35.5t33 46.5t14 60q0 49 -37 78t-104 29q-90 0 -143 -47t-53 -114z" />
    <glyph glyph-name="nine" unicode="9" horiz-adv-x="506" 
d="M-26 -185q55 17 109 41.5t110.5 61t102.5 80t82 101t52 121.5q-85 -97 -210 -97q-67 0 -108 40t-41 105q0 99 63 167.5t164 68.5q75 0 115 -46.5t40 -131.5q0 -82 -29 -156t-76 -130t-110.5 -103t-128 -78.5t-133.5 -52.5zM222 132q119 0 212 103q9 42 9 89
q0 82 -38 126.5t-109 44.5q-96 0 -155.5 -67.5t-59.5 -158.5q0 -61 38.5 -99t102.5 -38z" />
    <glyph glyph-name="colon" unicode=":" horiz-adv-x="186" 
d="M56 -7q-5 0 -9.5 4t-4.5 10q0 14 14 14t14 -14q0 -6 -4.5 -10t-9.5 -4zM120 294q-5 0 -9.5 4t-4.5 10q0 14 14 14t14 -14q0 -6 -4.5 -10t-9.5 -4z" />
    <glyph glyph-name="semicolon" unicode=";" horiz-adv-x="190" 
d="M8 -83q41 32 41 74v3q-2 -1 -6 -1q-13 0 -13 14t14 14q15 0 15 -21q0 -52 -47 -88zM108 294q-5 0 -9.5 4t-4.5 10q0 14 14 14t14 -14q0 -6 -4.5 -10t-9.5 -4z" />
    <glyph glyph-name="less" unicode="&#x3c;" horiz-adv-x="254" 
d="M175 62l-141 219l234 219l6 -7l-228 -213l137 -213z" />
    <glyph glyph-name="equal" unicode="=" horiz-adv-x="484" 
d="M72 321l2 9h398l-2 -9h-398zM42 180l2 9h398l-2 -9h-398z" />
    <glyph glyph-name="greater" unicode="&#x3e;" horiz-adv-x="254" 
d="M108 500l141 -219l-234 -219l-6 7l228 214l-136 212z" />
    <glyph glyph-name="question" unicode="?" horiz-adv-x="394" 
d="M135 137h-10q6 78 30 130t84 93q48 32 71 49.5t48.5 44.5t35 55.5t9.5 67.5q0 49 -30 77.5t-87 28.5q-68 0 -149 -47l-4 7q82 49 156 49q58 0 91 -31.5t33 -83.5q0 -40 -10 -70t-36.5 -58t-50.5 -46.5t-75 -52.5q-52 -35 -76.5 -84.5t-29.5 -128.5zM121 -7q-5 0 -9.5 4
t-4.5 10q0 14 14 14t14 -14q0 -6 -4.5 -10t-9.5 -4z" />
    <glyph glyph-name="at" unicode="@" horiz-adv-x="774" 
d="M406 -137q-67 0 -126.5 18.5t-108.5 57t-78 105t-29 154.5q0 154 98.5 262.5t242.5 108.5q128 0 218 -82t90 -220q0 -122 -51 -183t-117 -61q-70 0 -70 73q0 18 4 37q-61 -103 -145 -103q-50 0 -77.5 32.5t-27.5 93.5q0 92 55.5 169.5t142.5 77.5q66 0 116 -38l-8 -35
l-43 -183q-7 -28 -7 -50q0 -65 60 -65q62 0 110 59t48 176q0 134 -87.5 213.5t-210.5 79.5q-140 0 -235.5 -106.5t-95.5 -255.5q0 -85 28 -150t76 -102t105.5 -55.5t122.5 -18.5q70 0 138 26l4 -9q-71 -26 -142 -26zM334 39q48 0 86.5 35.5t64.5 84.5l46 203q-43 32 -104 32
q-83 0 -135.5 -75.5t-52.5 -162.5q0 -57 25 -87t70 -30z" />
    <glyph glyph-name="A" unicode="A" horiz-adv-x="437" 
d="M392 0l-29 244h-285l-132 -244h-11l373 686h12l82 -686h-10zM362 253l-50 421l-28 -52l-201 -369h279z" />
    <glyph glyph-name="B" unicode="B" horiz-adv-x="513" 
d="M40 0l145 686h150q166 0 166 -127q0 -71 -48.5 -125t-143.5 -69q67 -5 110.5 -40.5t43.5 -98.5q0 -108 -72 -166q-73 -60 -213 -60h-138zM128 370h150q21 0 46.5 5t56 19t54.5 34.5t40 54.5t16 76q0 118 -156 118h-142zM51 9h132q127 0 196 53q74 57 74 163
q0 69 -53 102.5t-130 33.5h-144z" />
    <glyph glyph-name="C" unicode="C" horiz-adv-x="494" 
d="M432 47q-80 -54 -167 -54q-103 0 -148.5 61t-45.5 161q0 55 11.5 116.5t37.5 126.5t63.5 116.5t94.5 84.5t125 33q85 0 138 -50l-7 -7q-49 48 -133 48q-65 0 -120 -33t-91 -84t-61.5 -114.5t-36.5 -124t-11 -112.5q0 -44 9.5 -80.5t30 -67.5t57.5 -48t89 -17q85 0 161 52
z" />
    <glyph glyph-name="D" unicode="D" horiz-adv-x="562" 
d="M40 0l145 686h101q39 0 67.5 -3t65.5 -16t60.5 -36t40 -67t16.5 -105q0 -108 -31 -203.5t-93 -158.5q-95 -97 -248 -97h-124zM51 9h117q143 0 234 91q62 62 93 156.5t31 201.5q0 58 -15 100t-37 64.5t-56 35t-62.5 16t-67.5 3.5h-95z" />
    <glyph glyph-name="E" unicode="E" horiz-adv-x="450" 
d="M40 0l145 686h324l-4 -9h-312l-67 -315h247l-1 -9h-247l-73 -344h327l-1 -9h-338z" />
    <glyph glyph-name="F" unicode="F" horiz-adv-x="397" 
d="M40 0l145 686h329l-4 -9h-317l-67 -315h258l-1 -9h-258l-75 -353h-10z" />
    <glyph glyph-name="G" unicode="G" horiz-adv-x="570" 
d="M273 -7q-107 0 -154.5 61t-47.5 161q0 55 11.5 116.5t37.5 126.5t63.5 116.5t94.5 84.5t125 33q94 0 150 -50l-6 -7q-54 48 -146 48q-65 0 -120 -32.5t-91 -83.5t-61.5 -114.5t-36.5 -124t-11 -113.5q0 -95 45.5 -154t149.5 -59q85 0 162 41l60 279h-192v9h204l-63 -294
q-82 -44 -174 -44z" />
    <glyph glyph-name="H" unicode="H" horiz-adv-x="559" 
d="M40 0l145 686h10l-67 -316h361l67 316h10l-145 -686h-10l76 361h-361l-76 -361h-10z" />
    <glyph glyph-name="I" unicode="I" horiz-adv-x="188" 
d="M40 0l145 686h10l-145 -686h-10z" />
    <glyph glyph-name="J" unicode="J" horiz-adv-x="219" 
d="M-71 -121l-4 8q81 26 116 72q18 24 28 52.5t26 103.5l121 571h10l-121 -571q-16 -75 -26 -105.5t-30 -56.5q-36 -46 -120 -74z" />
    <glyph glyph-name="K" unicode="K" horiz-adv-x="451" 
d="M376 -3l-235 365l373 327l7 -7l-368 -321l232 -359zM40 0l145 686h10l-145 -686h-10z" />
    <glyph glyph-name="L" unicode="L" horiz-adv-x="394" 
d="M40 0l145 686h10l-144 -677h298l-2 -9h-307z" />
    <glyph glyph-name="M" unicode="M" horiz-adv-x="697" 
d="M20 0l205 686h13l63 -664l1 -10l6 12l342 662h14l-82 -686h-9l78 656l2 17l-10 -19l-338 -654h-11l-61 640l-3 32l-8 -27l-192 -645h-10z" />
    <glyph glyph-name="N" unicode="N" horiz-adv-x="573" 
d="M40 0l145 686h15l221 -656l7 -21l3 14l139 663h10l-145 -686h-14l-223 663l-5 15l-4 -19l-139 -659h-10z" />
    <glyph glyph-name="O" unicode="O" horiz-adv-x="604" 
d="M252 2q141 0 228 142q43 71 65 160t22 166q0 213 -170 213q-73 0 -134 -40q-61 -41 -104 -121t-60 -158t-17 -149q0 -213 170 -213zM250 -7q-64 0 -105.5 31.5t-57 79t-15.5 111.5q0 119 46 245.5t138 188.5q64 43 143 43q64 0 105.5 -31.5t57 -79t15.5 -111.5
q0 -78 -21 -166.5t-64 -159.5q-91 -151 -242 -151z" />
    <glyph glyph-name="P" unicode="P" horiz-adv-x="481" 
d="M40 0l145 686h124q198 0 198 -148q0 -104 -55 -164q-66 -73 -193 -73h-146l-63 -301h-10zM115 310h147q120 0 183 71q52 59 52 156q0 44 -16.5 73t-46 43t-59.5 19t-68 5h-114z" />
    <glyph glyph-name="Q" unicode="Q" horiz-adv-x="605" 
d="M578 470q0 -91 -29 -195t-87 -176q-78 -98 -191 -105q16 -3 35.5 -12t32 -17t30 -20t20.5 -14q32 -22 55 -31.5t54 -9.5q30 0 61 11l-5 -10q-28 -10 -60 -10q-51 0 -123 52q-26 18 -38.5 26.5t-34 18t-47.5 15.5q-64 0 -105.5 31.5t-57 79t-15.5 111.5q0 94 30.5 199.5
t90.5 177.5q83 100 206 100q64 0 105.5 -31.5t57 -79t15.5 -111.5zM568 470q0 213 -170 213q-113 0 -194 -94q-60 -71 -90.5 -176.5t-30.5 -197.5q0 -213 170 -213q120 0 201 103q57 71 85.5 173.5t28.5 191.5z" />
    <glyph glyph-name="R" unicode="R" horiz-adv-x="471" 
d="M402 -2q-18 54 -59 145q-40 88 -70 127q-26 34 -44.5 43t-56.5 9h-54l-68 -322h-10l145 686h112q191 0 191 -141q0 -214 -268 -221q55 -8 132 -177q36 -77 59 -146zM478 544q0 133 -184 133h-101l-73 -346h74q114 0 180 32q104 51 104 181z" />
    <glyph glyph-name="S" unicode="S" horiz-adv-x="492" 
d="M177 -7q-96 0 -167 53l6 8q66 -52 163 -52q93 0 162.5 56.5t69.5 149.5q0 47 -28 78.5t-83 55.5l-63 28q-106 47 -106 132q0 93 64.5 141.5t155.5 48.5q90 0 148 -46l-6 -7q-56 44 -144 44q-85 0 -146.5 -46t-61.5 -133q0 -80 98 -124l63 -28q58 -26 88.5 -59t30.5 -84
q0 -97 -71 -156.5t-173 -59.5z" />
    <glyph glyph-name="T" unicode="T" horiz-adv-x="402" 
d="M159 0l143 677h-201l2 9h416l-4 -9h-203l-143 -677h-10z" />
    <glyph glyph-name="U" unicode="U" horiz-adv-x="558" 
d="M229 -7q-155 0 -155 139q0 30 8 68l103 486h10l-103 -485q-8 -38 -8 -68q0 -131 147 -131q104 0 161 59q43 46 64 140l103 485h10l-103 -486q-20 -96 -65 -143q-61 -64 -172 -64z" />
    <glyph glyph-name="V" unicode="V" horiz-adv-x="507" 
d="M196 0l-83 686h10l75 -625l5 -42l1 -8l23 42l348 633h11l-378 -686h-12z" />
    <glyph glyph-name="W" unicode="W" horiz-adv-x="705" 
d="M138 0l-25 686h9l24 -648l1 -25l7 15l297 658h10l15 -669v-4l5 11l293 662h10l-305 -686h-12l-14 659v11l-10 -22l-292 -648h-13z" />
    <glyph glyph-name="X" unicode="X" horiz-adv-x="390" 
d="M481 686l-247 -313l147 -373h-11l-143 364l-281 -364h-12l288 373l-123 313h11l119 -304l240 304h12z" />
    <glyph glyph-name="Y" unicode="Y" horiz-adv-x="458" 
d="M174 0l57 272l-133 414h10l123 -382l7 -22l14 19l288 385h12l-311 -415l-57 -271h-10z" />
    <glyph glyph-name="Z" unicode="Z" horiz-adv-x="498" 
d="M4 0v9l515 654l11 14h-353l4 9h360v-9l-506 -644l-19 -24h367l-3 -9h-376z" />
    <glyph glyph-name="bracketleft" unicode="[" horiz-adv-x="213" 
d="M7 -156l189 888h103l-2 -9h-93l-185 -870h93l-2 -9h-103z" />
    <glyph glyph-name="backslash" unicode="\" horiz-adv-x="345" 
d="M259 -40l-137 769l9 3l138 -768z" />
    <glyph glyph-name="bracketright" unicode="]" horiz-adv-x="212" 
d="M-63 -156l1 9h93l185 870h-93l2 9h103l-189 -888h-102z" />
    <glyph glyph-name="asciicircum" unicode="^" horiz-adv-x="496" 
d="M70 345l259 363h10l105 -363h-10l-101 353l-252 -353h-11z" />
    <glyph glyph-name="underscore" unicode="_" horiz-adv-x="489" 
d="M-77 -84l2 9h499l-2 -9h-499z" />
    <glyph glyph-name="grave" unicode="`" horiz-adv-x="223" 
d="M267 572l-148 100l6 8l147 -101z" />
    <glyph glyph-name="a" unicode="a" horiz-adv-x="454" 
d="M41 148q0 155 85 255.5t188 100.5q63 0 104 -35l-2 -10l-70 -329q-9 -41 -9 -65q0 -35 24 -63l-7 -6q-26 31 -26 70q0 24 7 58q-65 -131 -171 -131q-60 0 -91.5 42.5t-31.5 112.5zM51 148q0 -68 30 -107t85 -39q107 0 176 156l65 307q-38 30 -95 30q-97 0 -179 -97.5
t-82 -249.5z" />
    <glyph glyph-name="b" unicode="b" horiz-adv-x="487" 
d="M48 48l7 33l116 545q11 55 11 81q0 10 -2 20l10 3q2 -10 2 -22q0 -27 -12 -86l-44 -208l-13 -61q88 151 189 151q60 0 95 -39t35 -120q0 -88 -29 -167t-88.5 -132t-136.5 -53q-83 0 -140 55zM309 495q-49 0 -95 -39t-96 -127l-59 -277q50 -50 131 -50q72 0 129 52t85 129
t28 160q0 152 -123 152z" />
    <glyph glyph-name="c" unicode="c" horiz-adv-x="388" 
d="M190 -7q-67 0 -102.5 45.5t-35.5 115.5q0 140 73 245t171 105q59 0 102 -40l-5 -8q-40 39 -99 39q-91 0 -161.5 -103t-70.5 -239q0 -66 33.5 -108.5t96.5 -42.5q70 0 131 51l4 -8q-64 -52 -137 -52z" />
    <glyph glyph-name="d" unicode="d" horiz-adv-x="495" 
d="M396 2l-7 -6q-26 32 -26 70q0 21 10 66q-69 -139 -179 -139q-141 0 -141 167q0 153 78 248.5t178 95.5q77 0 132 -47l58 273l9 -2l-127 -598q-9 -41 -9 -65q0 -35 24 -63zM196 2q50 0 98 38.5t84 120.5l61 286q-57 48 -132 48q-95 0 -169.5 -94t-74.5 -240
q0 -159 133 -159z" />
    <glyph glyph-name="e" unicode="e" horiz-adv-x="428" 
d="M176 250q-65 0 -103 5q-9 -43 -9 -83q0 -76 36.5 -123t108.5 -47q71 0 138 52l6 -7q-71 -54 -146 -54q-76 0 -114.5 49.5t-38.5 128.5q0 51 14.5 107.5t42 108t73.5 84.5t102 33q48 0 81.5 -27t33.5 -74q0 -69 -47 -107q-56 -46 -178 -46zM283 495q-78 0 -132 -68.5
t-76 -162.5q55 -5 103 -5q114 0 168 43q45 36 45 100q0 45 -30.5 69t-77.5 24z" />
    <glyph glyph-name="f" unicode="f" horiz-adv-x="220" 
d="M58 0l103 489h-48l2 9h48l26 120q24 106 111 106q38 0 67 -21l-5 -8q-26 20 -64 20q-37 0 -63 -26t-36 -71l-26 -120h122l-5 -9h-119l-103 -489q-19 -87 -34.5 -122.5t-47.5 -73.5l-8 5q33 36 48 73.5t32 117.5z" />
    <glyph glyph-name="g" unicode="g" horiz-adv-x="477" 
d="M443 469l-8 -36l-93 -435q-22 -100 -70.5 -147t-141.5 -47q-65 0 -141 35l4 9q67 -35 137 -35q88 0 134.5 44t67.5 139l30 136q-69 -139 -179 -139q-141 0 -141 167q0 154 79.5 249t181.5 95q75 0 140 -35zM185 2q50 0 98 38.5t84 120.5l64 303q-58 31 -130 31
q-96 0 -172.5 -94t-76.5 -240q0 -159 133 -159z" />
    <glyph glyph-name="h" unicode="h" horiz-adv-x="479" 
d="M40 0l133 626q11 55 11 81q0 10 -2 20l10 3q2 -10 2 -22q0 -27 -12 -86l-53 -248l-5 -24q112 154 208 154q43 0 67 -24.5t24 -65.5q0 -15 -7 -48l-77 -366h-10l78 368q6 29 6 45q0 37 -21 59.5t-63 22.5q-29 0 -59.5 -15.5t-59 -44t-47.5 -51.5t-43 -55l-70 -329h-10z
" />
    <glyph glyph-name="i" unicode="i" horiz-adv-x="176" 
d="M40 0l106 502l11 2l-107 -504h-10zM181 647q-5 0 -9.5 4t-4.5 10t4.5 10t9.5 4q14 0 14 -14q0 -6 -4.5 -10t-9.5 -4z" />
    <glyph glyph-name="j" unicode="j" horiz-adv-x="172" 
d="M-64 -162l-3 8q50 19 70.5 54.5t35.5 105.5l105 496l11 2l-107 -500q-11 -49 -20 -75t-31.5 -51.5t-60.5 -39.5zM179 647q-5 0 -9.5 4t-4.5 10t4.5 10t9.5 4q14 0 14 -14q0 -6 -4.5 -10t-9.5 -4z" />
    <glyph glyph-name="k" unicode="k" horiz-adv-x="378" 
d="M331 -3l-209 279l283 225l6 -7l-276 -219l204 -274zM182 622l-132 -622h-10l133 626q11 55 11 81q0 10 -2 20l10 3q2 -10 2 -22q0 -27 -12 -86z" />
    <glyph glyph-name="l" unicode="l" horiz-adv-x="201" 
d="M113 8l1 -8q-13 -5 -28 -5q-37 0 -37 38q0 8 7 43l117 550q11 55 11 81q0 10 -2 20l10 3q2 -10 2 -22q0 -27 -12 -86l-116 -547q-7 -35 -7 -41q0 -30 29 -30q11 0 25 4z" />
    <glyph glyph-name="m" unicode="m" horiz-adv-x="728" 
d="M50 0h-10l86 409q10 47 10 66q0 11 -3 22l10 3q3 -10 3 -23q0 -23 -11 -72l-12 -55q104 154 199 154q39 0 60 -24.5t21 -65.5q0 -15 -7 -48l-3 -15q101 153 198 153q39 0 60 -24.5t21 -65.5q0 -15 -7 -48l-77 -366h-10l78 368q6 29 6 45q0 82 -74 82q-93 0 -200 -166
l-69 -329h-10l78 368q6 29 6 45q0 82 -74 82q-90 0 -200 -167z" />
    <glyph glyph-name="n" unicode="n" horiz-adv-x="479" 
d="M50 0h-10l86 409q10 47 10 66q0 11 -3 22l10 3q3 -10 3 -23q0 -23 -11 -72l-12 -56q21 29 39 50t46.5 48t60 42t63.5 15q43 0 67 -24.5t24 -65.5q0 -15 -7 -48l-77 -366h-10l78 368q6 29 6 45q0 37 -21 59.5t-63 22.5q-90 0 -210 -167z" />
    <glyph glyph-name="o" unicode="o" horiz-adv-x="474" 
d="M186 -7q-74 0 -107 46t-33 120q0 80 26 156.5t84.5 132.5t138.5 56q74 0 107 -46t33 -120q0 -80 -26 -156.5t-84.5 -132.5t-138.5 -56zM188 2q57 0 103.5 31.5t74.5 81.5t43.5 108t15.5 115q0 157 -132 157q-57 0 -103.5 -31.5t-74.5 -81.5t-43.5 -108t-15.5 -115
q0 -157 132 -157z" />
    <glyph glyph-name="p" unicode="p" horiz-adv-x="487" 
d="M6 -198l-11 -3l130 610q10 47 10 66q0 11 -3 22l10 3q3 -12 3 -25q0 -21 -10 -70l-10 -48q87 147 187 147q60 0 95 -39t35 -120q0 -88 -29 -167t-88.5 -132t-136.5 -53q-75 0 -130 51zM309 495q-49 0 -94.5 -38.5t-95.5 -124.5l-59 -278q52 -52 130 -52q72 0 129 52
t85 129t28 160q0 152 -123 152z" />
    <glyph glyph-name="q" unicode="q" horiz-adv-x="487" 
d="M311 -198l-11 -3l73 333q-69 -139 -179 -139q-141 0 -141 167q0 154 79.5 249t181.5 95q75 0 140 -35l-6 -29zM196 2q50 0 98 38.5t84 120.5l64 303q-58 31 -130 31q-96 0 -172.5 -94t-76.5 -240q0 -159 133 -159z" />
    <glyph glyph-name="r" unicode="r" horiz-adv-x="298" 
d="M50 0h-10l86 409q10 47 10 66q0 11 -3 22l10 3q3 -12 3 -25q0 -21 -10 -70l-14 -66q20 35 33 55t37.5 50t53 45t60.5 15q18 0 32 -6l-3 -9q-12 6 -31 6q-29 0 -56 -15.5t-52 -47t-41 -55.5t-39 -64z" />
    <glyph glyph-name="s" unicode="s" horiz-adv-x="405" 
d="M141 -7q-79 0 -143 43l5 8q62 -42 140 -42q69 0 122 35t53 103q0 38 -17.5 61t-70.5 46l-58 25q-46 20 -67.5 41.5t-21.5 58.5q0 67 49 99.5t123 32.5q65 0 120 -38l-6 -8q-47 37 -116 37q-66 0 -113 -29.5t-47 -92.5q0 -35 20 -54.5t63 -37.5l59 -25q55 -23 74.5 -50
t19.5 -65q0 -71 -55 -109.5t-133 -38.5z" />
    <glyph glyph-name="t" unicode="t" horiz-adv-x="236" 
d="M145 -7q-64 0 -64 68q0 21 9 64l77 364h-65l2 9h65q17 78 38 131l12 3q-22 -49 -40 -134h119l-5 -9h-116l-77 -364q-9 -45 -9 -64q0 -59 55 -59q31 0 61 12v-9q-29 -12 -62 -12z" />
    <glyph glyph-name="u" unicode="u" horiz-adv-x="488" 
d="M385 -4q-26 30 -26 70q0 28 9 68l2 12q-113 -153 -207 -153q-43 0 -67 24.5t-24 65.5q0 15 7 48l77 366l11 3l-79 -371q-6 -29 -6 -45q0 -37 21 -59.5t63 -22.5q88 0 209 165l70 330l11 3l-79 -370q-9 -41 -9 -65q0 -35 24 -63z" />
    <glyph glyph-name="v" unicode="v" horiz-adv-x="387" 
d="M139 -5l-68 502l10 2l60 -445l6 -45h1l22 39l255 450h11l-285 -503h-12z" />
    <glyph glyph-name="w" unicode="w" horiz-adv-x="583" 
d="M101 -4l-34 503l9 2l32 -464l2 -27h1l14 30l216 458h11l25 -437l3 -51h1l23 47l214 441h10l-243 -502h-14l-25 451l-2 35h-1l-16 -34l-213 -452h-13z" />
    <glyph glyph-name="x" unicode="x" horiz-adv-x="342" 
d="M384 498l-191 -224l127 -274h-11l-124 267l-229 -267h-13l238 277l-103 221h11l100 -214l182 214h13z" />
    <glyph glyph-name="y" unicode="y" horiz-adv-x="390" 
d="M-4 -202l-3 9q45 13 77.5 51.5t80.5 126.5l10 17l-8 -2q0 23 -8 84l-59 415l9 3l59 -415q3 -19 4.5 -37t2.5 -30.5t1 -14.5h1l21 39l246 454h11l-280 -516q-25 -45 -39 -68t-35 -50.5t-42.5 -42.5t-48.5 -23z" />
    <glyph glyph-name="z" unicode="z" horiz-adv-x="412" 
d="M6 0v10l406 479h-282v9h294v-10l-406 -479h287l-4 -9h-295z" />
    <glyph glyph-name="braceleft" unicode="{" horiz-adv-x="254" 
d="M123 -156q-64 0 -64 76q0 22 6 49l40 189q5 25 5 41q0 39 -19 60.5t-46 23.5l3 12q34 3 67.5 35.5t44.5 86.5l41 190q13 60 41.5 92.5t69.5 32.5h28l-2 -9h-28q-36 0 -62 -30.5t-37 -85.5l-41 -190q-13 -62 -50.5 -95t-62.5 -33v-1q20 0 41.5 -22.5t21.5 -66.5
q0 -16 -5 -41l-40 -188q-6 -28 -6 -49q0 -68 55 -68h29l-2 -9h-28z" />
    <glyph glyph-name="bar" unicode="|" horiz-adv-x="182" 
d="M-11 -208l204 964h10l-204 -964h-10z" />
    <glyph glyph-name="braceright" unicode="}" horiz-adv-x="254" 
d="M126 732h28q30 0 47 -19.5t17 -56.5q0 -22 -6 -49l-40 -189q-5 -27 -5 -42q0 -39 18.5 -59.5t46.5 -23.5l-3 -12q-34 -3 -67.5 -35.5t-44.5 -86.5l-41 -190q-13 -60 -41.5 -92.5t-69.5 -32.5h-28l2 9h28q36 0 62 30.5t37 85.5l41 190q13 62 50.5 95t62.5 33v1
q-20 0 -41.5 22.5t-21.5 66.5q0 16 5 41l40 188q6 27 6 49q0 68 -55 68h-29z" />
    <glyph glyph-name="asciitilde" unicode="~" horiz-adv-x="571" 
d="M74 262l-4 8q21 23 36 36.5t42 26.5t55 13q38 0 99.5 -35t98.5 -35q61 0 106 71l4 -9q-48 -71 -112 -71q-38 0 -99.5 35t-98.5 35t-65.5 -19.5t-61.5 -55.5z" />
    <glyph glyph-name="uni00A0" unicode="&#xa0;" horiz-adv-x="225" 
 />
    <glyph glyph-name="exclamdown" unicode="&#xa1;" horiz-adv-x="203" 
d="M130 367l-118 -555l-11 -2l119 557h10zM151 505q5 0 9.5 -4t4.5 -10q0 -14 -14 -14t-14 14q0 6 4.5 10t9.5 4z" />
    <glyph glyph-name="cent" unicode="&#xa2;" horiz-adv-x="407" 
d="M52 154q0 137 74.5 241.5t171.5 107.5l18 83h10l-18 -82q67 -2 109 -41l-7 -6q-40 36 -104 38l-105 -493q79 0 140 51l4 -8q-62 -50 -146 -52l-16 -78h-10l16 78q-64 4 -100.5 49t-36.5 112zM62 153q0 -63 34.5 -105.5t94.5 -45.5l105 492q-91 -4 -162.5 -106t-71.5 -235
z" />
    <glyph glyph-name="sterling" unicode="&#xa3;" horiz-adv-x="418" 
d="M0 0l1 9h108l69 321h-96l2 9h96l30 144q19 88 62.5 135.5t122.5 47.5q68 0 105 -43l-7 -6q-33 40 -100 40q-136 0 -173 -174l-30 -144h162l-2 -9h-162l-69 -321h248l-1 -9h-366z" />
    <glyph glyph-name="currency" unicode="&#xa4;" horiz-adv-x="410" 
d="M175 127q-46 0 -72 26l-79 -87l-6 5l80 88q-25 28 -25 74q0 17 3 34q13 74 68 115l-42 88l7 4l41 -87q38 27 85 27q43 0 71 -26l80 88l6 -5l-80 -88q25 -30 25 -76q0 -25 -8 -54q-18 -63 -67 -98l41 -86l-7 -4l-41 85q-35 -23 -80 -23zM179 136q49 0 86.5 33t53.5 84
q8 29 8 56q0 44 -23.5 70t-70.5 26q-57 0 -97 -40t-50 -99q-3 -17 -3 -34q0 -44 24.5 -70t71.5 -26z" />
    <glyph glyph-name="yen" unicode="&#xa5;" horiz-adv-x="450" 
d="M171 0l44 210h-204l2 9h204l11 53l-18 58h-173l2 9h168l-110 347h10l107 -338l21 -66l51 69l248 335h12l-258 -347h176l-2 -9h-180l-44 -59l-11 -52h211l-2 -9h-211l-44 -210h-10z" />
    <glyph glyph-name="brokenbar" unicode="&#xa6;" horiz-adv-x="190" 
d="M111 335l90 421h10l-90 -421h-10zM-4 -208l88 418h10l-88 -418h-10z" />
    <glyph glyph-name="section" unicode="&#xa7;" horiz-adv-x="406" 
d="M375 289q0 -48 -35 -81.5t-118 -69.5q66 -46 66 -119q0 -68 -48 -105.5t-120 -37.5q-89 0 -132 58l8 5q40 -54 126 -54q63 0 109.5 34t46.5 99q0 77 -76 122l-58 34q-57 34 -79.5 58t-22.5 64q0 49 37 84t118 69q-70 44 -70 114q0 67 47 99.5t120 32.5q86 0 129 -58
l-9 -4q-39 53 -122 53q-65 0 -110 -29t-45 -93q0 -68 77 -114l60 -35q55 -33 78 -59t23 -67zM269 407l-64 37q-78 -34 -115.5 -68t-37.5 -79q0 -39 23 -62.5t78 -55.5l62 -36q80 37 115 69.5t35 75.5q0 39 -22 64t-74 55z" />
    <glyph glyph-name="dieresis" unicode="&#xa8;" horiz-adv-x="238" 
d="M147 597q-5 0 -9.5 4t-4.5 10t4.5 10t9.5 4q14 0 14 -14q0 -6 -4.5 -10t-9.5 -4zM255 597q-5 0 -9.5 4t-4.5 10t4.5 10t9.5 4q14 0 14 -14q0 -6 -4.5 -10t-9.5 -4z" />
    <glyph glyph-name="copyright" unicode="&#xa9;" horiz-adv-x="829" 
d="M547 160q-45 -34 -98 -34q-78 0 -123 67q-38 56 -38 150q0 87 35 147q43 72 115 72q58 0 100 -32l-6 -7q-40 30 -94 30q-34 0 -62.5 -19.5t-44.5 -49.5q-33 -63 -33 -141q0 -91 36 -145q42 -63 115 -63q49 0 92 32zM440 2q138 0 237.5 98.5t99.5 241.5t-99.5 242
t-237.5 99t-237 -99t-99 -242t99 -241.5t237 -98.5zM440 -7q-143 0 -244.5 101t-101.5 248t101.5 248.5t244.5 101.5q142 0 244.5 -101.5t102.5 -248.5t-102 -248t-245 -101z" />
    <glyph glyph-name="ordfeminine" unicode="&#xaa;" horiz-adv-x="379" 
d="M354 372l-6 -6q-23 19 -23 52q0 22 7 51q-25 -44 -60 -72t-68 -28q-28 0 -48 12.5t-29.5 33t-13 40.5t-3.5 43q0 113 64.5 187.5t145.5 74.5q50 0 83 -24l-10 -42l-53 -224q-7 -29 -7 -51q0 -32 21 -47zM65 255l2 9h277l-2 -9h-277zM207 378q41 0 78.5 40.5t49.5 69.5
l58 244q-29 19 -75 19q-76 0 -137 -72.5t-61 -180.5q0 -120 87 -120z" />
    <glyph glyph-name="guillemotleft" unicode="&#xab;" horiz-adv-x="378" 
d="M145 56l-83 184l162 184l8 -6l-159 -179l81 -179zM281 56l-83 184l162 184l8 -6l-159 -179l81 -179z" />
    <glyph glyph-name="logicalnot" unicode="&#xac;" horiz-adv-x="456" 
d="M362 77l43 202h-359l2 9h369l-45 -211h-10z" />
    <glyph glyph-name="uni00AD" unicode="&#xad;" horiz-adv-x="317" 
d="M69 276l2 9h191l-2 -9h-191z" />
    <glyph glyph-name="registered" unicode="&#xae;" horiz-adv-x="817" 
d="M314 133v425h59q75 0 108 -27q41 -35 41 -89q0 -49 -32 -77t-87 -30q19 -8 38 -29q10 -11 17 -23q44 -70 84 -150h-12q-9 21 -35 68q-30 53 -45 76q-37 57 -82 57h-44v-201h-10zM324 343h67q70 0 102 40q19 24 19 59q0 52 -37 82q-31 25 -102 25h-49v-206zM408 2
q138 0 237.5 98.5t99.5 241.5t-99.5 242t-237.5 99t-237 -99t-99 -242t99 -241.5t237 -98.5zM408 -7q-143 0 -244.5 101t-101.5 248t101.5 248.5t244.5 101.5q142 0 244.5 -101.5t102.5 -248.5t-102 -248t-245 -101z" />
    <glyph glyph-name="macron" unicode="&#xaf;" horiz-adv-x="284" 
d="M115 608l2 9h254l-2 -9h-254z" />
    <glyph glyph-name="degree" unicode="&#xb0;" horiz-adv-x="333" 
d="M136 384q-50 0 -75.5 31t-25.5 77q0 68 45.5 123.5t116.5 55.5q50 0 75.5 -31t25.5 -77q0 -68 -45.5 -123.5t-116.5 -55.5zM138 393q63 0 106.5 51t43.5 117q0 44 -23 72.5t-70 28.5q-63 0 -106.5 -51t-43.5 -117q0 -44 23 -72.5t70 -28.5z" />
    <glyph glyph-name="plusminus" unicode="&#xb1;" horiz-adv-x="454" 
d="M209 165l34 160h-179l1 9h179l34 159h10l-34 -159h179l-1 -9h-179l-34 -160h-10zM8 64l2 9h368l-2 -9h-368z" />
    <glyph glyph-name="twosuperior" unicode="&#xb2;" horiz-adv-x="279" 
d="M118 612q53 41 109 41q35 0 58.5 -20.5t23.5 -55.5q0 -30 -16.5 -62t-37.5 -57t-59.5 -57t-63.5 -50t-69 -48h191l-4 -9h-205l1 7q6 4 44.5 31t57 41t52.5 43.5t51.5 51.5t32.5 51.5t15 55.5q0 34 -20 51.5t-54 17.5q-50 0 -103 -39z" />
    <glyph glyph-name="threesuperior" unicode="&#xb3;" horiz-adv-x="296" 
d="M61 269l-1 9q14 -2 35 -2q41 0 83 12.5t76 44.5t34 77q0 31 -24.5 49t-70.5 18h-31l2 8h35q44 0 80.5 27t36.5 71q0 61 -75 61q-51 0 -101 -34l-4 7q54 36 107 36q39 0 61 -19t22 -51q0 -42 -31 -68.5t-70 -33.5q35 -5 54 -24t19 -47q0 -69 -65 -106t-140 -37
q-16 0 -32 2z" />
    <glyph glyph-name="acute" unicode="&#xb4;" horiz-adv-x="242" 
d="M136 572l-5 7l147 101l6 -8z" />
    <glyph glyph-name="mu" unicode="&#xb5;" horiz-adv-x="472" 
d="M405 -2q-13 -5 -27 -5q-37 0 -37 39q0 15 4 32l13 60q-24 -48 -75 -89.5t-110 -41.5q-42 0 -70 21.5t-39 48.5l-56 -261l-10 -3l149 703l11 2l-85 -398l-6 -28q31 -76 108 -76q64 0 122 56.5t70 112.5l69 331l11 2l-92 -436q-5 -22 -5 -35q0 -31 29 -31q14 0 25 4z" />
    <glyph glyph-name="paragraph" unicode="&#xb6;" horiz-adv-x="371" 
d="M97 -76l107 502q-52 0 -85.5 31.5t-33.5 77.5q0 82 53 127.5t136 45.5h108l-167 -784h-10l165 774h-98l-165 -774h-10z" />
    <glyph glyph-name="periodcentered" unicode="&#xb7;" horiz-adv-x="229" 
d="M103 267q-5 0 -9.5 4t-4.5 10q0 14 14 14t14 -14q0 -6 -4.5 -10t-9.5 -4z" />
    <glyph glyph-name="cedilla" unicode="&#xb8;" horiz-adv-x="213" 
d="M10 -197q-41 0 -67 24l6 7q24 -22 63 -22q35 0 62.5 19.5t27.5 56.5q0 46 -55 46q-18 0 -35 -4l38 70h9l-32 -60q16 2 23 2q31 0 46.5 -15t15.5 -38q0 -40 -29.5 -63t-72.5 -23z" />
    <glyph glyph-name="onesuperior" unicode="&#xb9;" horiz-adv-x="267" 
d="M90 294l2 9h79l72 337l-113 -63l-2 7l118 69h9l-74 -350h76l-2 -9h-165z" />
    <glyph glyph-name="ordmasculine" unicode="&#xba;" horiz-adv-x="392" 
d="M220 358q-58 0 -86 34.5t-28 93.5q0 61 19.5 119t66.5 101.5t111 43.5q58 0 86 -34.5t28 -93.5q0 -61 -19.5 -119t-66.5 -101.5t-111 -43.5zM61 255l2 9h273l-2 -9h-273zM222 367q88 0 136.5 80.5t48.5 177.5q0 116 -106 116q-88 0 -136.5 -80.5t-48.5 -177.5
q0 -116 106 -116z" />
    <glyph glyph-name="guillemotright" unicode="&#xbb;" horiz-adv-x="378" 
d="M97 424l83 -184l-162 -184l-8 6l159 179l-80 179zM233 424l83 -184l-162 -184l-8 6l159 179l-80 179z" />
    <glyph glyph-name="onequarter" unicode="&#xbc;" horiz-adv-x="872" 
d="M56 260l1 9h84l81 380l-115 -65l-3 7l122 70h9l-84 -392h82l-1 -9h-176zM93 -154l721 917h10l-721 -917h-10zM743 -19l22 103l2 10h-208l2 9l210 293h10l-209 -293h197l5 24l30 141l11 2l-34 -158l-2 -9h61l-2 -9h-61l-2 -10l-21 -100z" />
    <glyph glyph-name="onehalf" unicode="&#xbd;" horiz-adv-x="833" 
d="M56 260l1 9h84l81 380l-115 -65l-3 7l122 70h9l-84 -392h82l-1 -9h-176zM53 -154l721 917h10l-721 -917h-10zM537 0l2 10q61 39 145 109q131 112 131 201q0 33 -21 52.5t-54 19.5q-63 0 -123 -39l-5 7q70 41 130 41q37 0 60.5 -21.5t23.5 -57.5q0 -102 -136 -211
q-74 -60 -137 -102h205l-1 -9h-220z" />
    <glyph glyph-name="threequarters" unicode="&#xbe;" horiz-adv-x="924" 
d="M54 236q-14 0 -26 2v9q12 -2 28 -2q77 0 125 24q50 24 74 58t24 66q0 33 -28 53.5t-78 20.5h-35l2 9h39q50 0 90.5 30t40.5 77q0 34 -22.5 51.5t-60.5 17.5q-58 0 -112 -38l-5 7q60 40 119 40q41 0 66 -19t25 -57q0 -43 -30 -73t-75 -40q74 -15 74 -76q0 -38 -26 -74
t-78 -61q-53 -25 -131 -25zM105 -154l721 917h10l-721 -917h-10zM795 -19l22 103l2 10h-208l2 9l210 293h10l-209 -293h197l5 24l30 141l11 2l-34 -158l-2 -9h61l-2 -9h-61l-2 -10l-21 -100z" />
    <glyph glyph-name="questiondown" unicode="&#xbf;" horiz-adv-x="393" 
d="M273 361q-6 -78 -30 -130t-84 -93q-48 -32 -71 -49.5t-48.5 -44.5t-35 -55.5t-9.5 -67.5q0 -49 30 -77.5t87 -28.5q68 0 149 47l4 -7q-82 -49 -156 -49q-58 0 -91 31.5t-33 83.5q0 40 10 70t36.5 58t50.5 46.5t75 52.5q52 35 76.5 84.5t29.5 128.5h10zM277 505
q5 0 9.5 -4t4.5 -10q0 -14 -14 -14t-14 14q0 6 4.5 10t9.5 4z" />
    <glyph glyph-name="Agrave" unicode="&#xc0;" horiz-adv-x="437" 
d="M392 0l-29 244h-285l-132 -244h-11l373 686h12l82 -686h-10zM362 253l-50 421l-28 -52l-201 -369h279zM363 732l-148 100l6 8l147 -101z" />
    <glyph glyph-name="Aacute" unicode="&#xc1;" horiz-adv-x="437" 
d="M392 0l-29 244h-285l-132 -244h-11l373 686h12l82 -686h-10zM362 253l-50 421l-28 -52l-201 -369h279zM264 732l-5 7l147 101l6 -8z" />
    <glyph glyph-name="Acircumflex" unicode="&#xc2;" horiz-adv-x="437" 
d="M392 0l-29 244h-285l-132 -244h-11l373 686h12l82 -686h-10zM362 253l-50 421l-28 -52l-201 -369h279zM190 752l-5 7l151 97l117 -99l-6 -6l-112 93z" />
    <glyph glyph-name="Atilde" unicode="&#xc3;" horiz-adv-x="437" 
d="M392 0l-29 244h-285l-132 -244h-11l373 686h12l82 -686h-10zM362 253l-50 421l-28 -52l-201 -369h279zM206 755l-4 6q34 31 69 31q25 0 55 -17.5t53 -17.5q31 0 63 28l4 -6q-31 -31 -69 -31q-25 0 -55 17.5t-53 17.5q-31 0 -63 -28z" />
    <glyph glyph-name="Adieresis" unicode="&#xc4;" horiz-adv-x="437" 
d="M392 0l-29 244h-285l-132 -244h-11l373 686h12l82 -686h-10zM362 253l-50 421l-28 -52l-201 -369h279zM271 757q-5 0 -9.5 4t-4.5 10t4.5 10t9.5 4q14 0 14 -14q0 -6 -4.5 -10t-9.5 -4zM379 757q-5 0 -9.5 4t-4.5 10t4.5 10t9.5 4q14 0 14 -14q0 -6 -4.5 -10t-9.5 -4z
" />
    <glyph glyph-name="Aring" unicode="&#xc5;" horiz-adv-x="437" 
d="M392 0l-29 244h-285l-132 -244h-11l373 686h12l82 -686h-10zM362 253l-50 421l-28 -52l-201 -369h279zM329 737q-32 0 -50.5 20.5t-18.5 51.5q0 29 18.5 49.5t49.5 20.5t50 -20.5t19 -49.5q0 -30 -19 -51t-49 -21zM329 746q26 0 42.5 18t16.5 45q0 25 -17 43t-43 18
t-42.5 -17.5t-16.5 -43.5q0 -27 16.5 -45t43.5 -18z" />
    <glyph glyph-name="AE" unicode="&#xc6;" horiz-adv-x="732" 
d="M322 0l51 244h-250l-191 -244h-12l539 686h332l-4 -9h-312l-67 -315h247l-1 -9h-247l-73 -344h327l-1 -9h-338zM130 253h245l90 426z" />
    <glyph glyph-name="Ccedilla" unicode="&#xc7;" horiz-adv-x="494" 
d="M183 -197q-41 0 -67 24l6 7q24 -22 63 -22q35 0 62.5 19.5t27.5 56.5q0 46 -55 46q-18 0 -35 -4l36 67q-150 24 -150 218q0 55 11.5 116.5t37.5 126.5t63.5 116.5t94.5 84.5t125 33q85 0 138 -50l-7 -7q-49 48 -133 48q-65 0 -120 -33t-91 -84t-61.5 -114.5t-36.5 -124
t-11 -112.5q0 -44 9.5 -80.5t30 -67.5t57.5 -48t89 -17q85 0 161 52l4 -7q-80 -54 -167 -54q-14 0 -36 2l-29 -55q16 2 23 2q31 0 46.5 -15t15.5 -38q0 -40 -29.5 -63t-72.5 -23z" />
    <glyph glyph-name="Egrave" unicode="&#xc8;" horiz-adv-x="450" 
d="M40 0l145 686h324l-4 -9h-312l-67 -315h247l-1 -9h-247l-73 -344h327l-1 -9h-338zM405 732l-148 100l6 8l147 -101z" />
    <glyph glyph-name="Eacute" unicode="&#xc9;" horiz-adv-x="450" 
d="M40 0l145 686h324l-4 -9h-312l-67 -315h247l-1 -9h-247l-73 -344h327l-1 -9h-338zM280 732l-5 7l147 101l6 -8z" />
    <glyph glyph-name="Ecircumflex" unicode="&#xca;" horiz-adv-x="450" 
d="M40 0l145 686h324l-4 -9h-312l-67 -315h247l-1 -9h-247l-73 -344h327l-1 -9h-338zM214 752l-5 7l151 97l117 -99l-6 -6l-112 93z" />
    <glyph glyph-name="Edieresis" unicode="&#xcb;" horiz-adv-x="450" 
d="M40 0l145 686h324l-4 -9h-312l-67 -315h247l-1 -9h-247l-73 -344h327l-1 -9h-338zM286 757q-5 0 -9.5 4t-4.5 10t4.5 10t9.5 4q14 0 14 -14q0 -6 -4.5 -10t-9.5 -4zM394 757q-5 0 -9.5 4t-4.5 10t4.5 10t9.5 4q14 0 14 -14q0 -6 -4.5 -10t-9.5 -4z" />
    <glyph glyph-name="Igrave" unicode="&#xcc;" horiz-adv-x="188" 
d="M40 0l145 686h10l-145 -686h-10zM228 732l-148 100l6 8l147 -101z" />
    <glyph glyph-name="Iacute" unicode="&#xcd;" horiz-adv-x="188" 
d="M40 0l145 686h10l-145 -686h-10zM162 732l-5 7l147 101l6 -8z" />
    <glyph glyph-name="Icircumflex" unicode="&#xce;" horiz-adv-x="188" 
d="M40 0l145 686h10l-145 -686h-10zM75 752l-5 7l151 97l117 -99l-6 -6l-112 93z" />
    <glyph glyph-name="Idieresis" unicode="&#xcf;" horiz-adv-x="188" 
d="M40 0l145 686h10l-145 -686h-10zM153 757q-5 0 -9.5 4t-4.5 10t4.5 10t9.5 4q14 0 14 -14q0 -6 -4.5 -10t-9.5 -4zM261 757q-5 0 -9.5 4t-4.5 10t4.5 10t9.5 4q14 0 14 -14q0 -6 -4.5 -10t-9.5 -4z" />
    <glyph glyph-name="Eth" unicode="&#xd0;" horiz-adv-x="561" 
d="M65 345l1 8h47l71 333h101q39 0 67.5 -3t65.5 -16t60.5 -36t40 -67t16.5 -105q0 -229 -119 -357q-96 -102 -253 -102h-124l73 345h-47zM50 9h117q145 0 237 94q61 62 91 155.5t30 199.5q0 58 -15 100t-37 64.5t-56 35t-62.5 16t-67.5 3.5h-95l-69 -324h243l-5 -8h-240z
" />
    <glyph glyph-name="Ntilde" unicode="&#xd1;" horiz-adv-x="573" 
d="M40 0l145 686h15l221 -656l7 -21l3 14l139 663h10l-145 -686h-14l-223 663l-5 15l-4 -19l-139 -659h-10zM266 755l-4 6q34 31 69 31q25 0 55 -17.5t53 -17.5q31 0 63 28l4 -6q-31 -31 -69 -31q-25 0 -55 17.5t-53 17.5q-31 0 -63 -28z" />
    <glyph glyph-name="Ograve" unicode="&#xd2;" horiz-adv-x="604" 
d="M252 2q141 0 228 142q43 71 65 160t22 166q0 213 -170 213q-73 0 -134 -40q-61 -41 -104 -121t-60 -158t-17 -149q0 -213 170 -213zM250 -7q-64 0 -105.5 31.5t-57 79t-15.5 111.5q0 119 46 245.5t138 188.5q64 43 143 43q64 0 105.5 -31.5t57 -79t15.5 -111.5
q0 -78 -21 -166.5t-64 -159.5q-91 -151 -242 -151zM449 732l-148 100l6 8l147 -101z" />
    <glyph glyph-name="Oacute" unicode="&#xd3;" horiz-adv-x="604" 
d="M252 2q141 0 228 142q43 71 65 160t22 166q0 213 -170 213q-73 0 -134 -40q-61 -41 -104 -121t-60 -158t-17 -149q0 -213 170 -213zM250 -7q-64 0 -105.5 31.5t-57 79t-15.5 111.5q0 119 46 245.5t138 188.5q64 43 143 43q64 0 105.5 -31.5t57 -79t15.5 -111.5
q0 -78 -21 -166.5t-64 -159.5q-91 -151 -242 -151zM347 732l-5 7l147 101l6 -8z" />
    <glyph glyph-name="Ocircumflex" unicode="&#xd4;" horiz-adv-x="604" 
d="M252 2q141 0 228 142q43 71 65 160t22 166q0 213 -170 213q-73 0 -134 -40q-61 -41 -104 -121t-60 -158t-17 -149q0 -213 170 -213zM250 -7q-64 0 -105.5 31.5t-57 79t-15.5 111.5q0 119 46 245.5t138 188.5q64 43 143 43q64 0 105.5 -31.5t57 -79t15.5 -111.5
q0 -78 -21 -166.5t-64 -159.5q-91 -151 -242 -151zM283 752l-5 7l151 97l117 -99l-6 -6l-112 93z" />
    <glyph glyph-name="Otilde" unicode="&#xd5;" horiz-adv-x="604" 
d="M252 2q141 0 228 142q43 71 65 160t22 166q0 213 -170 213q-73 0 -134 -40q-61 -41 -104 -121t-60 -158t-17 -149q0 -213 170 -213zM250 -7q-64 0 -105.5 31.5t-57 79t-15.5 111.5q0 119 46 245.5t138 188.5q64 43 143 43q64 0 105.5 -31.5t57 -79t15.5 -111.5
q0 -78 -21 -166.5t-64 -159.5q-91 -151 -242 -151zM291 755l-4 6q34 31 69 31q25 0 55 -17.5t53 -17.5q31 0 63 28l4 -6q-31 -31 -69 -31q-25 0 -55 17.5t-53 17.5q-31 0 -63 -28z" />
    <glyph glyph-name="Odieresis" unicode="&#xd6;" horiz-adv-x="604" 
d="M252 2q141 0 228 142q43 71 65 160t22 166q0 213 -170 213q-73 0 -134 -40q-61 -41 -104 -121t-60 -158t-17 -149q0 -213 170 -213zM250 -7q-64 0 -105.5 31.5t-57 79t-15.5 111.5q0 119 46 245.5t138 188.5q64 43 143 43q64 0 105.5 -31.5t57 -79t15.5 -111.5
q0 -78 -21 -166.5t-64 -159.5q-91 -151 -242 -151zM358 757q-5 0 -9.5 4t-4.5 10t4.5 10t9.5 4q14 0 14 -14q0 -6 -4.5 -10t-9.5 -4zM466 757q-5 0 -9.5 4t-4.5 10t4.5 10t9.5 4q14 0 14 -14q0 -6 -4.5 -10t-9.5 -4z" />
    <glyph glyph-name="multiply" unicode="&#xd7;" horiz-adv-x="446" 
d="M50 99l-5 6l173 144l-112 144l7 6l114 -144l175 145l4 -7l-175 -144l114 -144l-8 -6l-113 144z" />
    <glyph glyph-name="Oslash" unicode="&#xd8;" horiz-adv-x="604" 
d="M250 -7q-98 0 -144 72l-98 -121l-7 5l101 123q-30 53 -30 143q0 119 46 245.5t138 188.5q64 43 143 43q101 0 146 -76l104 128l7 -5l-107 -131q28 -53 28 -138q0 -78 -21 -166.5t-64 -159.5q-91 -151 -242 -151zM82 215q0 -83 26 -135l430 528q-42 75 -141 75
q-73 0 -134 -40q-61 -41 -104 -121t-60 -158t-17 -149zM252 2q141 0 228 142q43 71 65 160t22 166q0 79 -25 130l-429 -527q41 -71 139 -71z" />
    <glyph glyph-name="Ugrave" unicode="&#xd9;" horiz-adv-x="558" 
d="M229 -7q-155 0 -155 139q0 30 8 68l103 486h10l-103 -485q-8 -38 -8 -68q0 -131 147 -131q104 0 161 59q43 46 64 140l103 485h10l-103 -486q-20 -96 -65 -143q-61 -64 -172 -64zM434 732l-148 100l6 8l147 -101z" />
    <glyph glyph-name="Uacute" unicode="&#xda;" horiz-adv-x="558" 
d="M229 -7q-155 0 -155 139q0 30 8 68l103 486h10l-103 -485q-8 -38 -8 -68q0 -131 147 -131q104 0 161 59q43 46 64 140l103 485h10l-103 -486q-20 -96 -65 -143q-61 -64 -172 -64zM329 732l-5 7l147 101l6 -8z" />
    <glyph glyph-name="Ucircumflex" unicode="&#xdb;" horiz-adv-x="558" 
d="M229 -7q-155 0 -155 139q0 30 8 68l103 486h10l-103 -485q-8 -38 -8 -68q0 -131 147 -131q104 0 161 59q43 46 64 140l103 485h10l-103 -486q-20 -96 -65 -143q-61 -64 -172 -64zM258 752l-5 7l151 97l117 -99l-6 -6l-112 93z" />
    <glyph glyph-name="Udieresis" unicode="&#xdc;" horiz-adv-x="558" 
d="M229 -7q-155 0 -155 139q0 30 8 68l103 486h10l-103 -485q-8 -38 -8 -68q0 -131 147 -131q104 0 161 59q43 46 64 140l103 485h10l-103 -486q-20 -96 -65 -143q-61 -64 -172 -64zM337 757q-5 0 -9.5 4t-4.5 10t4.5 10t9.5 4q14 0 14 -14q0 -6 -4.5 -10t-9.5 -4zM445 757
q-5 0 -9.5 4t-4.5 10t4.5 10t9.5 4q14 0 14 -14q0 -6 -4.5 -10t-9.5 -4z" />
    <glyph glyph-name="Yacute" unicode="&#xdd;" horiz-adv-x="458" 
d="M174 0l57 272l-133 414h10l123 -382l7 -22l14 19l288 385h12l-311 -415l-57 -271h-10zM273 732l-5 7l147 101l6 -8z" />
    <glyph glyph-name="Thorn" unicode="&#xde;" horiz-adv-x="474" 
d="M40 0l145 686h10l-30 -141h114q198 0 198 -148q0 -104 -55 -164q-66 -73 -193 -73h-146l-33 -160h-10zM85 169h147q118 0 182 70q53 58 53 157q0 44 -16.5 73t-46 43t-59.5 19t-68 5h-114z" />
    <glyph glyph-name="germandbls" unicode="&#xdf;" horiz-adv-x="503" 
d="M-17 -196l-8 5q33 36 48 73.5t32 117.5l104 489h-66l2 9h66l7 32q37 179 180 179q51 0 81.5 -27.5t30.5 -74.5t-19 -80.5t-46 -50.5t-54 -29.5t-46 -26t-19 -30.5q0 -14 17.5 -29t68.5 -48q78 -50 78 -125q0 -91 -62.5 -143t-145.5 -52q-51 0 -86 19l5 8q32 -18 83 -18
q79 0 137.5 51t58.5 134q0 71 -72 118q-28 18 -40 26.5t-27 20t-20 20t-5 17.5q0 20 19 35t46 27.5t54 28.5t46 48t19 77q0 46 -27.5 70.5t-76.5 24.5q-132 0 -168 -170l-113 -530q-19 -87 -34.5 -122.5t-47.5 -73.5z" />
    <glyph glyph-name="agrave" unicode="&#xe0;" horiz-adv-x="454" 
d="M41 148q0 155 85 255.5t188 100.5q63 0 104 -35l-2 -10l-70 -329q-9 -41 -9 -65q0 -35 24 -63l-7 -6q-26 31 -26 70q0 24 7 58q-65 -131 -171 -131q-60 0 -91.5 42.5t-31.5 112.5zM51 148q0 -68 30 -107t85 -39q107 0 176 156l65 307q-38 30 -95 30q-97 0 -179 -97.5
t-82 -249.5zM390 572l-148 100l6 8l147 -101z" />
    <glyph glyph-name="aacute" unicode="&#xe1;" horiz-adv-x="454" 
d="M41 148q0 155 85 255.5t188 100.5q63 0 104 -35l-2 -10l-70 -329q-9 -41 -9 -65q0 -35 24 -63l-7 -6q-26 31 -26 70q0 24 7 58q-65 -131 -171 -131q-60 0 -91.5 42.5t-31.5 112.5zM51 148q0 -68 30 -107t85 -39q107 0 176 156l65 307q-38 30 -95 30q-97 0 -179 -97.5
t-82 -249.5zM276 572l-5 7l147 101l6 -8z" />
    <glyph glyph-name="acircumflex" unicode="&#xe2;" horiz-adv-x="454" 
d="M41 148q0 155 85 255.5t188 100.5q63 0 104 -35l-2 -10l-70 -329q-9 -41 -9 -65q0 -35 24 -63l-7 -6q-26 31 -26 70q0 24 7 58q-65 -131 -171 -131q-60 0 -91.5 42.5t-31.5 112.5zM51 148q0 -68 30 -107t85 -39q107 0 176 156l65 307q-38 30 -95 30q-97 0 -179 -97.5
t-82 -249.5zM203 592l-5 7l151 97l117 -99l-6 -6l-112 93z" />
    <glyph glyph-name="atilde" unicode="&#xe3;" horiz-adv-x="454" 
d="M41 148q0 155 85 255.5t188 100.5q63 0 104 -35l-2 -10l-70 -329q-9 -41 -9 -65q0 -35 24 -63l-7 -6q-26 31 -26 70q0 24 7 58q-65 -131 -171 -131q-60 0 -91.5 42.5t-31.5 112.5zM51 148q0 -68 30 -107t85 -39q107 0 176 156l65 307q-38 30 -95 30q-97 0 -179 -97.5
t-82 -249.5zM215 595l-4 6q34 31 69 31q25 0 55 -17.5t53 -17.5q31 0 63 28l4 -6q-31 -31 -69 -31q-25 0 -55 17.5t-53 17.5q-31 0 -63 -28z" />
    <glyph glyph-name="adieresis" unicode="&#xe4;" horiz-adv-x="454" 
d="M41 148q0 155 85 255.5t188 100.5q63 0 104 -35l-2 -10l-70 -329q-9 -41 -9 -65q0 -35 24 -63l-7 -6q-26 31 -26 70q0 24 7 58q-65 -131 -171 -131q-60 0 -91.5 42.5t-31.5 112.5zM51 148q0 -68 30 -107t85 -39q107 0 176 156l65 307q-38 30 -95 30q-97 0 -179 -97.5
t-82 -249.5zM269 597q-5 0 -9.5 4t-4.5 10t4.5 10t9.5 4q14 0 14 -14q0 -6 -4.5 -10t-9.5 -4zM377 597q-5 0 -9.5 4t-4.5 10t4.5 10t9.5 4q14 0 14 -14q0 -6 -4.5 -10t-9.5 -4z" />
    <glyph glyph-name="aring" unicode="&#xe5;" horiz-adv-x="454" 
d="M41 148q0 155 85 255.5t188 100.5q63 0 104 -35l-2 -10l-70 -329q-9 -41 -9 -65q0 -35 24 -63l-7 -6q-26 31 -26 70q0 24 7 58q-65 -131 -171 -131q-60 0 -91.5 42.5t-31.5 112.5zM51 148q0 -68 30 -107t85 -39q107 0 176 156l65 307q-38 30 -95 30q-97 0 -179 -97.5
t-82 -249.5zM333 577q-32 0 -50.5 20.5t-18.5 51.5q0 29 18.5 49.5t49.5 20.5t50 -20.5t19 -49.5q0 -30 -19 -51t-49 -21zM333 586q26 0 42.5 18t16.5 45q0 25 -17 43t-43 18t-42.5 -17.5t-16.5 -43.5q0 -27 16.5 -45t43.5 -18z" />
    <glyph glyph-name="ae" unicode="&#xe6;" horiz-adv-x="736" 
d="M173 -7q-69 0 -100.5 33t-31.5 79q0 166 248 166q33 0 83 -6l20 81q9 39 9 69q0 80 -88 80q-89 0 -183 -62l-4 8q93 63 189 63q44 0 70.5 -22t26.5 -66q0 -27 -9 -63q29 67 78.5 109t112.5 42q48 0 81.5 -27t33.5 -74q0 -69 -47 -107q-56 -46 -178 -46q-65 0 -103 5
q-9 -44 -9 -83q0 -76 36.5 -123t108.5 -47q71 0 138 52l6 -7q-71 -54 -146 -54q-76 0 -114 49.5t-38 128.5q0 9 2 27q-25 -101 -71.5 -153t-120.5 -52zM175 2q77 0 119 56.5t67 158.5l9 40q-60 5 -84 5q-235 0 -235 -155q0 -45 29 -75t95 -30zM591 495q-78 0 -133 -70
t-75 -161q55 -5 103 -5q114 0 168 43q45 36 45 100q0 45 -30.5 69t-77.5 24z" />
    <glyph glyph-name="ccedilla" unicode="&#xe7;" horiz-adv-x="388" 
d="M122 -197q-41 0 -67 24l6 7q24 -22 63 -22q35 0 62.5 19.5t27.5 56.5q0 46 -55 46q-18 0 -35 -4l35 66q-52 10 -79.5 53.5t-27.5 104.5q0 140 73 245t171 105q59 0 102 -40l-5 -8q-40 39 -99 39q-91 0 -161.5 -103t-70.5 -239q0 -66 33.5 -108.5t96.5 -42.5q70 0 131 51
l4 -8q-64 -52 -137 -52q-8 0 -22 2l-29 -55q16 2 23 2q31 0 46.5 -15t15.5 -38q0 -40 -29.5 -63t-72.5 -23z" />
    <glyph glyph-name="egrave" unicode="&#xe8;" horiz-adv-x="428" 
d="M176 250q-65 0 -103 5q-9 -43 -9 -83q0 -76 36.5 -123t108.5 -47q71 0 138 52l6 -7q-71 -54 -146 -54q-76 0 -114.5 49.5t-38.5 128.5q0 51 14.5 107.5t42 108t73.5 84.5t102 33q48 0 81.5 -27t33.5 -74q0 -69 -47 -107q-56 -46 -178 -46zM283 495q-78 0 -132 -68.5
t-76 -162.5q55 -5 103 -5q114 0 168 43q45 36 45 100q0 45 -30.5 69t-77.5 24zM362 572l-148 100l6 8l147 -101z" />
    <glyph glyph-name="eacute" unicode="&#xe9;" horiz-adv-x="428" 
d="M176 250q-65 0 -103 5q-9 -43 -9 -83q0 -76 36.5 -123t108.5 -47q71 0 138 52l6 -7q-71 -54 -146 -54q-76 0 -114.5 49.5t-38.5 128.5q0 51 14.5 107.5t42 108t73.5 84.5t102 33q48 0 81.5 -27t33.5 -74q0 -69 -47 -107q-56 -46 -178 -46zM283 495q-78 0 -132 -68.5
t-76 -162.5q55 -5 103 -5q114 0 168 43q45 36 45 100q0 45 -30.5 69t-77.5 24zM270 572l-5 7l147 101l6 -8z" />
    <glyph glyph-name="ecircumflex" unicode="&#xea;" horiz-adv-x="428" 
d="M176 250q-65 0 -103 5q-9 -43 -9 -83q0 -76 36.5 -123t108.5 -47q71 0 138 52l6 -7q-71 -54 -146 -54q-76 0 -114.5 49.5t-38.5 128.5q0 51 14.5 107.5t42 108t73.5 84.5t102 33q48 0 81.5 -27t33.5 -74q0 -69 -47 -107q-56 -46 -178 -46zM283 495q-78 0 -132 -68.5
t-76 -162.5q55 -5 103 -5q114 0 168 43q45 36 45 100q0 45 -30.5 69t-77.5 24zM165 592l-5 7l151 97l117 -99l-6 -6l-112 93z" />
    <glyph glyph-name="edieresis" unicode="&#xeb;" horiz-adv-x="428" 
d="M176 250q-65 0 -103 5q-9 -43 -9 -83q0 -76 36.5 -123t108.5 -47q71 0 138 52l6 -7q-71 -54 -146 -54q-76 0 -114.5 49.5t-38.5 128.5q0 51 14.5 107.5t42 108t73.5 84.5t102 33q48 0 81.5 -27t33.5 -74q0 -69 -47 -107q-56 -46 -178 -46zM283 495q-78 0 -132 -68.5
t-76 -162.5q55 -5 103 -5q114 0 168 43q45 36 45 100q0 45 -30.5 69t-77.5 24zM251 597q-5 0 -9.5 4t-4.5 10t4.5 10t9.5 4q14 0 14 -14q0 -6 -4.5 -10t-9.5 -4zM359 597q-5 0 -9.5 4t-4.5 10t4.5 10t9.5 4q14 0 14 -14q0 -6 -4.5 -10t-9.5 -4z" />
    <glyph glyph-name="igrave" unicode="&#xec;" horiz-adv-x="176" 
d="M40 0l106 502l11 2l-107 -504h-10zM217 572l-148 100l6 8l147 -101z" />
    <glyph glyph-name="iacute" unicode="&#xed;" horiz-adv-x="176" 
d="M40 0l106 502l11 2l-107 -504h-10zM136 572l-5 7l147 101l6 -8z" />
    <glyph glyph-name="icircumflex" unicode="&#xee;" horiz-adv-x="176" 
d="M40 0l106 502l11 2l-107 -504h-10zM41 592l-5 7l151 97l117 -99l-6 -6l-112 93z" />
    <glyph glyph-name="idieresis" unicode="&#xef;" horiz-adv-x="176" 
d="M40 0l106 502l11 2l-107 -504h-10zM113 597q-5 0 -9.5 4t-4.5 10t4.5 10t9.5 4q14 0 14 -14q0 -6 -4.5 -10t-9.5 -4zM221 597q-5 0 -9.5 4t-4.5 10t4.5 10t9.5 4q14 0 14 -14q0 -6 -4.5 -10t-9.5 -4z" />
    <glyph glyph-name="eth" unicode="&#xf0;" horiz-adv-x="468" 
d="M422 371v14q-33 54 -69.5 76t-85.5 22q-92 0 -161 -96t-69 -212q0 -81 37 -127t102 -46q71 0 128 52t87.5 136t30.5 181zM424 683l-78 -60q86 -99 86 -251q0 -159 -72.5 -269t-185.5 -110q-69 0 -108.5 48t-39.5 133q0 122 72.5 220t170.5 98q96 0 152 -90
q-9 128 -82 215l-85 -66l-6 6l85 65q-51 43 -122 63l6 8q71 -21 123 -65l77 60z" />
    <glyph glyph-name="ntilde" unicode="&#xf1;" horiz-adv-x="479" 
d="M50 0h-10l86 409q10 47 10 66q0 11 -3 22l10 3q3 -10 3 -23q0 -23 -11 -72l-12 -56q21 29 39 50t46.5 48t60 42t63.5 15q43 0 67 -24.5t24 -65.5q0 -15 -7 -48l-77 -366h-10l78 368q6 29 6 45q0 37 -21 59.5t-63 22.5q-90 0 -210 -167zM186 595l-4 6q34 31 69 31
q25 0 55 -17.5t53 -17.5q31 0 63 28l4 -6q-31 -31 -69 -31q-25 0 -55 17.5t-53 17.5q-31 0 -63 -28z" />
    <glyph glyph-name="ograve" unicode="&#xf2;" horiz-adv-x="474" 
d="M186 -7q-74 0 -107 46t-33 120q0 80 26 156.5t84.5 132.5t138.5 56q74 0 107 -46t33 -120q0 -80 -26 -156.5t-84.5 -132.5t-138.5 -56zM188 2q57 0 103.5 31.5t74.5 81.5t43.5 108t15.5 115q0 157 -132 157q-57 0 -103.5 -31.5t-74.5 -81.5t-43.5 -108t-15.5 -115
q0 -157 132 -157zM371 572l-148 100l6 8l147 -101z" />
    <glyph glyph-name="oacute" unicode="&#xf3;" horiz-adv-x="474" 
d="M186 -7q-74 0 -107 46t-33 120q0 80 26 156.5t84.5 132.5t138.5 56q74 0 107 -46t33 -120q0 -80 -26 -156.5t-84.5 -132.5t-138.5 -56zM188 2q57 0 103.5 31.5t74.5 81.5t43.5 108t15.5 115q0 157 -132 157q-57 0 -103.5 -31.5t-74.5 -81.5t-43.5 -108t-15.5 -115
q0 -157 132 -157zM274 572l-5 7l147 101l6 -8z" />
    <glyph glyph-name="ocircumflex" unicode="&#xf4;" horiz-adv-x="474" 
d="M186 -7q-74 0 -107 46t-33 120q0 80 26 156.5t84.5 132.5t138.5 56q74 0 107 -46t33 -120q0 -80 -26 -156.5t-84.5 -132.5t-138.5 -56zM188 2q57 0 103.5 31.5t74.5 81.5t43.5 108t15.5 115q0 157 -132 157q-57 0 -103.5 -31.5t-74.5 -81.5t-43.5 -108t-15.5 -115
q0 -157 132 -157zM179 592l-5 7l151 97l117 -99l-6 -6l-112 93z" />
    <glyph glyph-name="otilde" unicode="&#xf5;" horiz-adv-x="474" 
d="M186 -7q-74 0 -107 46t-33 120q0 80 26 156.5t84.5 132.5t138.5 56q74 0 107 -46t33 -120q0 -80 -26 -156.5t-84.5 -132.5t-138.5 -56zM188 2q57 0 103.5 31.5t74.5 81.5t43.5 108t15.5 115q0 157 -132 157q-57 0 -103.5 -31.5t-74.5 -81.5t-43.5 -108t-15.5 -115
q0 -157 132 -157zM206 595l-4 6q34 31 69 31q25 0 55 -17.5t53 -17.5q31 0 63 28l4 -6q-31 -31 -69 -31q-25 0 -55 17.5t-53 17.5q-31 0 -63 -28z" />
    <glyph glyph-name="odieresis" unicode="&#xf6;" horiz-adv-x="474" 
d="M186 -7q-74 0 -107 46t-33 120q0 80 26 156.5t84.5 132.5t138.5 56q74 0 107 -46t33 -120q0 -80 -26 -156.5t-84.5 -132.5t-138.5 -56zM188 2q57 0 103.5 31.5t74.5 81.5t43.5 108t15.5 115q0 157 -132 157q-57 0 -103.5 -31.5t-74.5 -81.5t-43.5 -108t-15.5 -115
q0 -157 132 -157zM262 597q-5 0 -9.5 4t-4.5 10t4.5 10t9.5 4q14 0 14 -14q0 -6 -4.5 -10t-9.5 -4zM370 597q-5 0 -9.5 4t-4.5 10t4.5 10t9.5 4q14 0 14 -14q0 -6 -4.5 -10t-9.5 -4z" />
    <glyph glyph-name="divide" unicode="&#xf7;" horiz-adv-x="476" 
d="M219 100q-5 0 -9.5 4t-4.5 10q0 14 14 14t14 -14q0 -6 -4.5 -10t-9.5 -4zM50 246l2 9h388l-2 -9h-388zM274 372q-5 0 -9.5 4t-4.5 10q0 14 14 14t14 -14q0 -6 -4.5 -10t-9.5 -4z" />
    <glyph glyph-name="oslash" unicode="&#xf8;" horiz-adv-x="474" 
d="M186 -7q-72 0 -108 46l-76 -94l-6 5l78 96q-28 42 -28 113q0 80 26 156.5t84.5 132.5t138.5 56q73 0 109 -49l79 97l7 -5l-81 -100q26 -40 26 -109q0 -80 -26 -156.5t-84.5 -132.5t-138.5 -56zM56 159q0 -66 24 -105l318 392q-34 49 -105 49q-57 0 -103.5 -31.5
t-74.5 -81.5t-43.5 -108t-15.5 -115zM188 2q57 0 103.5 31.5t74.5 81.5t43.5 108t15.5 115q0 62 -23 101l-317 -392q33 -45 103 -45z" />
    <glyph glyph-name="ugrave" unicode="&#xf9;" horiz-adv-x="488" 
d="M385 -4q-26 30 -26 70q0 28 9 68l2 12q-113 -153 -207 -153q-43 0 -67 24.5t-24 65.5q0 15 7 48l77 366l11 3l-79 -371q-6 -29 -6 -45q0 -37 21 -59.5t63 -22.5q88 0 209 165l70 330l11 3l-79 -370q-9 -41 -9 -65q0 -35 24 -63zM389 572l-148 100l6 8l147 -101z" />
    <glyph glyph-name="uacute" unicode="&#xfa;" horiz-adv-x="488" 
d="M385 -4q-26 30 -26 70q0 28 9 68l2 12q-113 -153 -207 -153q-43 0 -67 24.5t-24 65.5q0 15 7 48l77 366l11 3l-79 -371q-6 -29 -6 -45q0 -37 21 -59.5t63 -22.5q88 0 209 165l70 330l11 3l-79 -370q-9 -41 -9 -65q0 -35 24 -63zM291 572l-5 7l147 101l6 -8z" />
    <glyph glyph-name="ucircumflex" unicode="&#xfb;" horiz-adv-x="488" 
d="M385 -4q-26 30 -26 70q0 28 9 68l2 12q-113 -153 -207 -153q-43 0 -67 24.5t-24 65.5q0 15 7 48l77 366l11 3l-79 -371q-6 -29 -6 -45q0 -37 21 -59.5t63 -22.5q88 0 209 165l70 330l11 3l-79 -370q-9 -41 -9 -65q0 -35 24 -63zM192 592l-5 7l151 97l117 -99l-6 -6
l-112 93z" />
    <glyph glyph-name="udieresis" unicode="&#xfc;" horiz-adv-x="488" 
d="M385 -4q-26 30 -26 70q0 28 9 68l2 12q-113 -153 -207 -153q-43 0 -67 24.5t-24 65.5q0 15 7 48l77 366l11 3l-79 -371q-6 -29 -6 -45q0 -37 21 -59.5t63 -22.5q88 0 209 165l70 330l11 3l-79 -370q-9 -41 -9 -65q0 -35 24 -63zM273 597q-5 0 -9.5 4t-4.5 10t4.5 10
t9.5 4q14 0 14 -14q0 -6 -4.5 -10t-9.5 -4zM381 597q-5 0 -9.5 4t-4.5 10t4.5 10t9.5 4q14 0 14 -14q0 -6 -4.5 -10t-9.5 -4z" />
    <glyph glyph-name="yacute" unicode="&#xfd;" horiz-adv-x="390" 
d="M-4 -202l-3 9q45 13 77.5 51.5t80.5 126.5l10 17l-8 -2q0 23 -8 84l-59 415l9 3l59 -415q3 -19 4.5 -37t2.5 -30.5t1 -14.5h1l21 39l246 454h11l-280 -516q-25 -45 -39 -68t-35 -50.5t-42.5 -42.5t-48.5 -23zM234 572l-5 7l147 101l6 -8z" />
    <glyph glyph-name="thorn" unicode="&#xfe;" horiz-adv-x="487" 
d="M188 -7q-76 0 -131 51l-51 -242l-11 -3l176 827q11 55 11 81q0 10 -2 20l10 3q2 -10 2 -22q0 -27 -12 -86l-36 -169l-21 -98q89 149 189 149q60 0 95 -39t35 -120q0 -88 -29 -167t-88.5 -132t-136.5 -53zM309 495q-97 0 -191 -166l-59 -275q52 -52 131 -52q72 0 129 52
t85 129t28 160q0 152 -123 152z" />
    <glyph glyph-name="ydieresis" unicode="&#xff;" horiz-adv-x="390" 
d="M-4 -202l-3 9q45 13 77.5 51.5t80.5 126.5l10 17l-8 -2q0 23 -8 84l-59 415l9 3l59 -415q3 -19 4.5 -37t2.5 -30.5t1 -14.5h1l21 39l246 454h11l-280 -516q-25 -45 -39 -68t-35 -50.5t-42.5 -42.5t-48.5 -23zM223 597q-5 0 -9.5 4t-4.5 10t4.5 10t9.5 4q14 0 14 -14
q0 -6 -4.5 -10t-9.5 -4zM331 597q-5 0 -9.5 4t-4.5 10t4.5 10t9.5 4q14 0 14 -14q0 -6 -4.5 -10t-9.5 -4z" />
    <glyph glyph-name="Amacron" unicode="&#x100;" horiz-adv-x="437" 
d="M392 0l-29 244h-285l-132 -244h-11l373 686h12l82 -686h-10zM362 253l-50 421l-28 -52l-201 -369h279zM201 776l2 9h254l-2 -9h-254z" />
    <glyph glyph-name="amacron" unicode="&#x101;" horiz-adv-x="454" 
d="M41 148q0 155 85 255.5t188 100.5q63 0 104 -35l-2 -10l-70 -329q-9 -41 -9 -65q0 -35 24 -63l-7 -6q-26 31 -26 70q0 24 7 58q-65 -131 -171 -131q-60 0 -91.5 42.5t-31.5 112.5zM51 148q0 -68 30 -107t85 -39q107 0 176 156l65 307q-38 30 -95 30q-97 0 -179 -97.5
t-82 -249.5zM208 607l2 9h254l-2 -9h-254z" />
    <glyph glyph-name="Abreve" unicode="&#x102;" horiz-adv-x="437" 
d="M392 0l-29 244h-285l-132 -244h-11l373 686h12l82 -686h-10zM362 253l-50 421l-28 -52l-201 -369h279zM313 728q-70 0 -111 80l7 4q40 -75 106 -75q65 0 138 77l5 -6q-73 -80 -145 -80z" />
    <glyph glyph-name="abreve" unicode="&#x103;" horiz-adv-x="454" 
d="M41 148q0 155 85 255.5t188 100.5q63 0 104 -35l-2 -10l-70 -329q-9 -41 -9 -65q0 -35 24 -63l-7 -6q-26 31 -26 70q0 24 7 58q-65 -131 -171 -131q-60 0 -91.5 42.5t-31.5 112.5zM51 148q0 -68 30 -107t85 -39q107 0 176 156l65 307q-38 30 -95 30q-97 0 -179 -97.5
t-82 -249.5zM314 568q-70 0 -111 80l7 4q40 -75 106 -75q65 0 138 77l5 -6q-73 -80 -145 -80z" />
    <glyph glyph-name="Aogonek" unicode="&#x104;" horiz-adv-x="437" 
d="M402 0q-106 -71 -106 -136q0 -52 60 -52q28 0 58 15l3 -7q-28 -17 -64 -17q-33 0 -50 17t-17 44q0 40 29 73t77 65l-29 242h-285l-132 -244h-11l373 686h12zM267 592l-184 -339h279l-50 421z" />
    <glyph glyph-name="aogonek" unicode="&#x105;" horiz-adv-x="454" 
d="M310 -197q-33 0 -50 17t-17 44q0 68 106 138q-21 29 -21 64q0 24 7 58q-65 -131 -171 -131q-60 0 -91.5 42.5t-31.5 112.5q0 155 85 255.5t188 100.5q63 0 104 -35l-2 -10l-70 -329q-9 -41 -9 -65q0 -35 24 -63q-30 -20 -50 -36.5t-39 -45t-19 -56.5q0 -52 60 -52
q28 0 58 15l3 -7q-28 -17 -64 -17zM166 2q107 0 176 156l65 307q-38 30 -95 30q-97 0 -179 -97.5t-82 -249.5q0 -68 30 -107t85 -39z" />
    <glyph glyph-name="Cacute" unicode="&#x106;" horiz-adv-x="494" 
d="M432 47q-80 -54 -167 -54q-103 0 -148.5 61t-45.5 161q0 55 11.5 116.5t37.5 126.5t63.5 116.5t94.5 84.5t125 33q85 0 138 -50l-7 -7q-49 48 -133 48q-65 0 -120 -33t-91 -84t-61.5 -114.5t-36.5 -124t-11 -112.5q0 -44 9.5 -80.5t30 -67.5t57.5 -48t89 -17q85 0 161 52
zM371 732l-5 7l147 101l6 -8z" />
    <glyph glyph-name="cacute" unicode="&#x107;" horiz-adv-x="388" 
d="M190 -7q-67 0 -102.5 45.5t-35.5 115.5q0 140 73 245t171 105q59 0 102 -40l-5 -8q-40 39 -99 39q-91 0 -161.5 -103t-70.5 -239q0 -66 33.5 -108.5t96.5 -42.5q70 0 131 51l4 -8q-64 -52 -137 -52zM275 572l-5 7l147 101l6 -8z" />
    <glyph glyph-name="Ccircumflex" unicode="&#x108;" horiz-adv-x="494" 
d="M432 47q-80 -54 -167 -54q-103 0 -148.5 61t-45.5 161q0 55 11.5 116.5t37.5 126.5t63.5 116.5t94.5 84.5t125 33q85 0 138 -50l-7 -7q-49 48 -133 48q-65 0 -120 -33t-91 -84t-61.5 -114.5t-36.5 -124t-11 -112.5q0 -44 9.5 -80.5t30 -67.5t57.5 -48t89 -17q85 0 161 52
zM297 752l-5 7l151 97l117 -99l-6 -6l-112 93z" />
    <glyph glyph-name="ccircumflex" unicode="&#x109;" horiz-adv-x="388" 
d="M190 -7q-67 0 -102.5 45.5t-35.5 115.5q0 140 73 245t171 105q59 0 102 -40l-5 -8q-40 39 -99 39q-91 0 -161.5 -103t-70.5 -239q0 -66 33.5 -108.5t96.5 -42.5q70 0 131 51l4 -8q-64 -52 -137 -52zM196 592l-5 7l151 97l117 -99l-6 -6l-112 93z" />
    <glyph glyph-name="Cdotaccent" unicode="&#x10a;" horiz-adv-x="494" 
d="M432 47q-80 -54 -167 -54q-103 0 -148.5 61t-45.5 161q0 55 11.5 116.5t37.5 126.5t63.5 116.5t94.5 84.5t125 33q85 0 138 -50l-7 -7q-49 48 -133 48q-65 0 -120 -33t-91 -84t-61.5 -114.5t-36.5 -124t-11 -112.5q0 -44 9.5 -80.5t30 -67.5t57.5 -48t89 -17q85 0 161 52
zM426 757q-5 0 -9.5 4t-4.5 10t4.5 10t9.5 4q14 0 14 -14q0 -6 -4.5 -10t-9.5 -4z" />
    <glyph glyph-name="cdotaccent" unicode="&#x10b;" horiz-adv-x="388" 
d="M190 -7q-67 0 -102.5 45.5t-35.5 115.5q0 140 73 245t171 105q59 0 102 -40l-5 -8q-40 39 -99 39q-91 0 -161.5 -103t-70.5 -239q0 -66 33.5 -108.5t96.5 -42.5q70 0 131 51l4 -8q-64 -52 -137 -52zM331 597q-5 0 -9.5 4t-4.5 10t4.5 10t9.5 4q14 0 14 -14q0 -6 -4.5 -10
t-9.5 -4z" />
    <glyph glyph-name="Ccaron" unicode="&#x10c;" horiz-adv-x="494" 
d="M432 47q-80 -54 -167 -54q-103 0 -148.5 61t-45.5 161q0 55 11.5 116.5t37.5 126.5t63.5 116.5t94.5 84.5t125 33q85 0 138 -50l-7 -7q-49 48 -133 48q-65 0 -120 -33t-91 -84t-61.5 -114.5t-36.5 -124t-11 -112.5q0 -44 9.5 -80.5t30 -67.5t57.5 -48t89 -17q85 0 161 52
zM561 832l5 -7l-151 -97l-117 99l6 6l112 -93z" />
    <glyph glyph-name="ccaron" unicode="&#x10d;" horiz-adv-x="388" 
d="M190 -7q-67 0 -102.5 45.5t-35.5 115.5q0 140 73 245t171 105q59 0 102 -40l-5 -8q-40 39 -99 39q-91 0 -161.5 -103t-70.5 -239q0 -66 33.5 -108.5t96.5 -42.5q70 0 131 51l4 -8q-64 -52 -137 -52zM455 672l5 -7l-151 -97l-117 99l6 6l112 -93z" />
    <glyph glyph-name="Dcaron" unicode="&#x10e;" horiz-adv-x="562" 
d="M40 0l145 686h101q39 0 67.5 -3t65.5 -16t60.5 -36t40 -67t16.5 -105q0 -108 -31 -203.5t-93 -158.5q-95 -97 -248 -97h-124zM51 9h117q143 0 234 91q62 62 93 156.5t31 201.5q0 58 -15 100t-37 64.5t-56 35t-62.5 16t-67.5 3.5h-95zM478 832l5 -7l-151 -97l-117 99l6 6
l112 -93z" />
    <glyph glyph-name="dcaron" unicode="&#x10f;" horiz-adv-x="495" 
d="M396 2l-7 -6q-26 32 -26 70q0 21 10 66q-69 -139 -179 -139q-141 0 -141 167q0 153 78 248.5t178 95.5q77 0 132 -47l58 273l9 -2l-127 -598q-9 -41 -9 -65q0 -35 24 -63zM196 2q50 0 98 38.5t84 120.5l61 286q-57 48 -132 48q-95 0 -169.5 -94t-74.5 -240
q0 -159 133 -159zM527 621l-4 5q41 32 41 74v3q-2 -1 -6 -1q-13 0 -13 14t14 14q15 0 15 -21q0 -52 -47 -88z" />
    <glyph glyph-name="Dcroat" unicode="&#x110;" horiz-adv-x="561" 
d="M65 345l1 8h47l71 333h101q39 0 67.5 -3t65.5 -16t60.5 -36t40 -67t16.5 -105q0 -229 -119 -357q-96 -102 -253 -102h-124l73 345h-47zM50 9h117q145 0 237 94q61 62 91 155.5t30 199.5q0 58 -15 100t-37 64.5t-56 35t-62.5 16t-67.5 3.5h-95l-69 -324h243l-5 -8h-240z
" />
    <glyph glyph-name="dcroat" unicode="&#x111;" horiz-adv-x="495" 
d="M324 597l2 9h146l27 124l9 -2l-26 -122h77l-2 -9h-77l-99 -467q-9 -41 -9 -65q0 -35 24 -63l-7 -6q-26 32 -26 70q0 21 10 66q-69 -139 -179 -139q-141 0 -141 167q0 153 78 248.5t178 95.5q77 0 132 -47l29 140h-146zM196 2q50 0 98 38.5t84 120.5l61 286
q-57 48 -132 48q-95 0 -169.5 -94t-74.5 -240q0 -159 133 -159z" />
    <glyph glyph-name="Emacron" unicode="&#x112;" horiz-adv-x="450" 
d="M40 0l145 686h324l-4 -9h-312l-67 -315h247l-1 -9h-247l-73 -344h327l-1 -9h-338zM218 776l2 9h254l-2 -9h-254z" />
    <glyph glyph-name="emacron" unicode="&#x113;" horiz-adv-x="428" 
d="M176 250q-65 0 -103 5q-9 -43 -9 -83q0 -76 36.5 -123t108.5 -47q71 0 138 52l6 -7q-71 -54 -146 -54q-76 0 -114.5 49.5t-38.5 128.5q0 51 14.5 107.5t42 108t73.5 84.5t102 33q48 0 81.5 -27t33.5 -74q0 -69 -47 -107q-56 -46 -178 -46zM283 495q-78 0 -132 -68.5
t-76 -162.5q55 -5 103 -5q114 0 168 43q45 36 45 100q0 45 -30.5 69t-77.5 24zM189 607l2 9h254l-2 -9h-254z" />
    <glyph glyph-name="Ebreve" unicode="&#x114;" horiz-adv-x="450" 
d="M40 0l145 686h324l-4 -9h-312l-67 -315h247l-1 -9h-247l-73 -344h327l-1 -9h-338zM333 728q-70 0 -111 80l7 4q40 -75 106 -75q65 0 138 77l5 -6q-73 -80 -145 -80z" />
    <glyph glyph-name="ebreve" unicode="&#x115;" horiz-adv-x="428" 
d="M176 250q-65 0 -103 5q-9 -43 -9 -83q0 -76 36.5 -123t108.5 -47q71 0 138 52l6 -7q-71 -54 -146 -54q-76 0 -114.5 49.5t-38.5 128.5q0 51 14.5 107.5t42 108t73.5 84.5t102 33q48 0 81.5 -27t33.5 -74q0 -69 -47 -107q-56 -46 -178 -46zM283 495q-78 0 -132 -68.5
t-76 -162.5q55 -5 103 -5q114 0 168 43q45 36 45 100q0 45 -30.5 69t-77.5 24zM290 568q-70 0 -111 80l7 4q40 -75 106 -75q65 0 138 77l5 -6q-73 -80 -145 -80z" />
    <glyph glyph-name="Edotaccent" unicode="&#x116;" horiz-adv-x="450" 
d="M40 0l145 686h324l-4 -9h-312l-67 -315h247l-1 -9h-247l-73 -344h327l-1 -9h-338zM343 757q-5 0 -9.5 4t-4.5 10t4.5 10t9.5 4q14 0 14 -14q0 -6 -4.5 -10t-9.5 -4z" />
    <glyph glyph-name="edotaccent" unicode="&#x117;" horiz-adv-x="428" 
d="M176 250q-65 0 -103 5q-9 -43 -9 -83q0 -76 36.5 -123t108.5 -47q71 0 138 52l6 -7q-71 -54 -146 -54q-76 0 -114.5 49.5t-38.5 128.5q0 51 14.5 107.5t42 108t73.5 84.5t102 33q48 0 81.5 -27t33.5 -74q0 -69 -47 -107q-56 -46 -178 -46zM283 495q-78 0 -132 -68.5
t-76 -162.5q55 -5 103 -5q114 0 168 43q45 36 45 100q0 45 -30.5 69t-77.5 24zM314 597q-5 0 -9.5 4t-4.5 10t4.5 10t9.5 4q14 0 14 -14q0 -6 -4.5 -10t-9.5 -4z" />
    <glyph glyph-name="Eogonek" unicode="&#x118;" horiz-adv-x="450" 
d="M40 0l145 686h324l-4 -9h-312l-67 -315h247l-1 -9h-247l-73 -344h327l-1 -9q-106 -69 -106 -136q0 -52 60 -52q28 0 58 15l3 -7q-28 -17 -64 -17q-33 0 -50 17t-17 44q0 39 27 71t75 65h-324z" />
    <glyph glyph-name="eogonek" unicode="&#x119;" horiz-adv-x="428" 
d="M214 -197q-33 0 -50 17t-17 44q0 67 97 132q-17 -3 -37 -3q-76 0 -114.5 49.5t-38.5 128.5q0 51 14.5 107.5t42 108t73.5 84.5t102 33q48 0 81.5 -27t33.5 -74q0 -69 -47 -107q-56 -46 -178 -46q-65 0 -103 5q-9 -43 -9 -83q0 -76 36.5 -123t108.5 -47q71 0 138 52l6 -7
q-41 -31 -83 -46q-3 -1 -13.5 -7t-28 -19.5t-33 -29t-27 -37.5t-11.5 -44q0 -52 60 -52q28 0 58 15l3 -7q-28 -17 -64 -17zM283 495q-78 0 -132 -68.5t-76 -162.5q55 -5 103 -5q114 0 168 43q45 36 45 100q0 45 -30.5 69t-77.5 24z" />
    <glyph glyph-name="Ecaron" unicode="&#x11a;" horiz-adv-x="450" 
d="M40 0l145 686h324l-4 -9h-312l-67 -315h247l-1 -9h-247l-73 -344h327l-1 -9h-338zM480 832l5 -7l-151 -97l-117 99l6 6l112 -93z" />
    <glyph glyph-name="ecaron" unicode="&#x11b;" horiz-adv-x="428" 
d="M176 250q-65 0 -103 5q-9 -43 -9 -83q0 -76 36.5 -123t108.5 -47q71 0 138 52l6 -7q-71 -54 -146 -54q-76 0 -114.5 49.5t-38.5 128.5q0 51 14.5 107.5t42 108t73.5 84.5t102 33q48 0 81.5 -27t33.5 -74q0 -69 -47 -107q-56 -46 -178 -46zM283 495q-78 0 -132 -68.5
t-76 -162.5q55 -5 103 -5q114 0 168 43q45 36 45 100q0 45 -30.5 69t-77.5 24zM438 672l5 -7l-151 -97l-117 99l6 6l112 -93z" />
    <glyph glyph-name="Gcircumflex" unicode="&#x11c;" horiz-adv-x="570" 
d="M273 -7q-107 0 -154.5 61t-47.5 161q0 55 11.5 116.5t37.5 126.5t63.5 116.5t94.5 84.5t125 33q94 0 150 -50l-6 -7q-54 48 -146 48q-65 0 -120 -32.5t-91 -83.5t-61.5 -114.5t-36.5 -124t-11 -113.5q0 -95 45.5 -154t149.5 -59q85 0 162 41l60 279h-192v9h204l-63 -294
q-82 -44 -174 -44zM307 752l-5 7l151 97l117 -99l-6 -6l-112 93z" />
    <glyph glyph-name="gcircumflex" unicode="&#x11d;" horiz-adv-x="477" 
d="M443 469l-8 -36l-93 -435q-22 -100 -70.5 -147t-141.5 -47q-65 0 -141 35l4 9q67 -35 137 -35q88 0 134.5 44t67.5 139l30 136q-69 -139 -179 -139q-141 0 -141 167q0 154 79.5 249t181.5 95q75 0 140 -35zM185 2q50 0 98 38.5t84 120.5l64 303q-58 31 -130 31
q-96 0 -172.5 -94t-76.5 -240q0 -159 133 -159zM202 592l-5 7l151 97l117 -99l-6 -6l-112 93z" />
    <glyph glyph-name="Gbreve" unicode="&#x11e;" horiz-adv-x="570" 
d="M273 -7q-107 0 -154.5 61t-47.5 161q0 55 11.5 116.5t37.5 126.5t63.5 116.5t94.5 84.5t125 33q94 0 150 -50l-6 -7q-54 48 -146 48q-65 0 -120 -32.5t-91 -83.5t-61.5 -114.5t-36.5 -124t-11 -113.5q0 -95 45.5 -154t149.5 -59q85 0 162 41l60 279h-192v9h204l-63 -294
q-82 -44 -174 -44zM417 728q-70 0 -111 80l7 4q40 -75 106 -75q65 0 138 77l5 -6q-73 -80 -145 -80z" />
    <glyph glyph-name="gbreve" unicode="&#x11f;" horiz-adv-x="477" 
d="M443 469l-8 -36l-93 -435q-22 -100 -70.5 -147t-141.5 -47q-65 0 -141 35l4 9q67 -35 137 -35q88 0 134.5 44t67.5 139l30 136q-69 -139 -179 -139q-141 0 -141 167q0 154 79.5 249t181.5 95q75 0 140 -35zM185 2q50 0 98 38.5t84 120.5l64 303q-58 31 -130 31
q-96 0 -172.5 -94t-76.5 -240q0 -159 133 -159zM321 568q-70 0 -111 80l7 4q40 -75 106 -75q65 0 138 77l5 -6q-73 -80 -145 -80z" />
    <glyph glyph-name="Gdotaccent" unicode="&#x120;" horiz-adv-x="570" 
d="M273 -7q-107 0 -154.5 61t-47.5 161q0 55 11.5 116.5t37.5 126.5t63.5 116.5t94.5 84.5t125 33q94 0 150 -50l-6 -7q-54 48 -146 48q-65 0 -120 -32.5t-91 -83.5t-61.5 -114.5t-36.5 -124t-11 -113.5q0 -95 45.5 -154t149.5 -59q85 0 162 41l60 279h-192v9h204l-63 -294
q-82 -44 -174 -44zM434 757q-5 0 -9.5 4t-4.5 10t4.5 10t9.5 4q14 0 14 -14q0 -6 -4.5 -10t-9.5 -4z" />
    <glyph glyph-name="gdotaccent" unicode="&#x121;" horiz-adv-x="477" 
d="M443 469l-8 -36l-93 -435q-22 -100 -70.5 -147t-141.5 -47q-65 0 -141 35l4 9q67 -35 137 -35q88 0 134.5 44t67.5 139l30 136q-69 -139 -179 -139q-141 0 -141 167q0 154 79.5 249t181.5 95q75 0 140 -35zM185 2q50 0 98 38.5t84 120.5l64 303q-58 31 -130 31
q-96 0 -172.5 -94t-76.5 -240q0 -159 133 -159zM338 597q-5 0 -9.5 4t-4.5 10t4.5 10t9.5 4q14 0 14 -14q0 -6 -4.5 -10t-9.5 -4z" />
    <glyph glyph-name="Gcommaaccent" unicode="&#x122;" horiz-adv-x="570" 
d="M273 -7q-107 0 -154.5 61t-47.5 161q0 55 11.5 116.5t37.5 126.5t63.5 116.5t94.5 84.5t125 33q94 0 150 -50l-6 -7q-54 48 -146 48q-65 0 -120 -32.5t-91 -83.5t-61.5 -114.5t-36.5 -124t-11 -113.5q0 -95 45.5 -154t149.5 -59q85 0 162 41l60 279h-192v9h204l-63 -294
q-82 -44 -174 -44zM274 -74q0 -47 -37 -78l-4 5q31 29 31 64v3q-2 -1 -6 -1q-13 0 -13 14t14 14q15 0 15 -21z" />
    <glyph glyph-name="gcommaaccent" unicode="&#x123;" horiz-adv-x="477" 
d="M443 469l-8 -36l-93 -435q-22 -100 -70.5 -147t-141.5 -47q-65 0 -141 35l4 9q67 -35 137 -35q88 0 134.5 44t67.5 139l30 136q-69 -139 -179 -139q-141 0 -141 167q0 154 79.5 249t181.5 95q75 0 140 -35zM185 2q50 0 98 38.5t84 120.5l64 303q-58 31 -130 31
q-96 0 -172.5 -94t-76.5 -240q0 -159 133 -159zM341 647q-15 0 -15 21q0 52 47 88l4 -5q-41 -32 -41 -74v-3q2 1 6 1q13 0 13 -14t-14 -14z" />
    <glyph glyph-name="Hcircumflex" unicode="&#x124;" horiz-adv-x="559" 
d="M40 0l145 686h10l-67 -316h361l67 316h10l-145 -686h-10l76 361h-361l-76 -361h-10zM264 752l-5 7l151 97l117 -99l-6 -6l-112 93z" />
    <glyph glyph-name="hcircumflex" unicode="&#x125;" horiz-adv-x="479" 
d="M40 0l133 626q11 55 11 81q0 10 -2 20l10 3q2 -10 2 -22q0 -27 -12 -86l-53 -248l-5 -24q112 154 208 154q43 0 67 -24.5t24 -65.5q0 -15 -7 -48l-77 -366h-10l78 368q6 29 6 45q0 37 -21 59.5t-63 22.5q-29 0 -59.5 -15.5t-59 -44t-47.5 -51.5t-43 -55l-70 -329h-10z
M75 731l-5 7l151 97l117 -99l-6 -6l-112 93z" />
    <glyph glyph-name="Hbar" unicode="&#x126;" horiz-adv-x="558" 
d="M59 507l2 9h87l36 170h10l-36 -170h361l36 170h10l-36 -170h87l-2 -9h-87l-107 -507h-10l76 361h-361l-76 -361h-10l107 507h-87zM127 370h361l29 137h-361z" />
    <glyph glyph-name="hbar" unicode="&#x127;" horiz-adv-x="479" 
d="M339 0h-10l78 368q6 29 6 45q0 37 -21 59.5t-63 22.5q-29 0 -59.5 -15.5t-59 -44t-47.5 -51.5t-43 -55l-70 -329h-10l125 590h-64l2 9h64l6 27q11 55 11 81q0 10 -2 20l10 3q2 -10 2 -22q0 -27 -12 -86l-5 -23h180l-2 -9h-180l-36 -170l-15 -70q112 154 208 154
q43 0 67 -24.5t24 -65.5q0 -15 -7 -48z" />
    <glyph glyph-name="Itilde" unicode="&#x128;" horiz-adv-x="188" 
d="M40 0l145 686h10l-145 -686h-10zM90 755l-4 6q34 31 69 31q25 0 55 -17.5t53 -17.5q31 0 63 28l4 -6q-31 -31 -69 -31q-25 0 -55 17.5t-53 17.5q-31 0 -63 -28z" />
    <glyph glyph-name="itilde" unicode="&#x129;" horiz-adv-x="176" 
d="M40 0l106 502l11 2l-107 -504h-10zM55 595l-4 6q34 31 69 31q25 0 55 -17.5t53 -17.5q31 0 63 28l4 -6q-31 -31 -69 -31q-25 0 -55 17.5t-53 17.5q-31 0 -63 -28z" />
    <glyph glyph-name="Imacron" unicode="&#x12a;" horiz-adv-x="188" 
d="M40 0l145 686h10l-145 -686h-10zM82 776l2 9h254l-2 -9h-254z" />
    <glyph glyph-name="imacron" unicode="&#x12b;" horiz-adv-x="176" 
d="M40 0l106 502l11 2l-107 -504h-10zM56 607l2 9h254l-2 -9h-254z" />
    <glyph glyph-name="Ibreve" unicode="&#x12c;" horiz-adv-x="188" 
d="M40 0l145 686h10l-145 -686h-10zM197 728q-70 0 -111 80l7 4q40 -75 106 -75q65 0 138 77l5 -6q-73 -80 -145 -80z" />
    <glyph glyph-name="ibreve" unicode="&#x12d;" horiz-adv-x="176" 
d="M40 0l106 502l11 2l-107 -504h-10zM162 568q-70 0 -111 80l7 4q40 -75 106 -75q65 0 138 77l5 -6q-73 -80 -145 -80z" />
    <glyph glyph-name="Iogonek" unicode="&#x12e;" horiz-adv-x="188" 
d="M1 -197q-33 0 -50 17t-17 44q0 41 29 73t78 67l144 682h10l-145 -686q-106 -69 -106 -136q0 -52 60 -52q28 0 58 15l3 -7q-28 -17 -64 -17z" />
    <glyph glyph-name="iogonek" unicode="&#x12f;" horiz-adv-x="176" 
d="M1 -197q-33 0 -50 17t-17 44q0 41 29 73t78 67l105 498l11 2l-107 -504q-106 -69 -106 -136q0 -52 60 -52q28 0 58 15l3 -7q-28 -17 -64 -17zM181 647q-5 0 -9.5 4t-4.5 10t4.5 10t9.5 4q14 0 14 -14q0 -6 -4.5 -10t-9.5 -4z" />
    <glyph glyph-name="Idotaccent" unicode="&#x130;" horiz-adv-x="188" 
d="M40 0l145 686h10l-145 -686h-10zM207 757q-5 0 -9.5 4t-4.5 10t4.5 10t9.5 4q14 0 14 -14q0 -6 -4.5 -10t-9.5 -4z" />
    <glyph glyph-name="dotlessi" unicode="&#x131;" horiz-adv-x="176" 
d="M40 0l106 502l11 2l-107 -504h-10z" />
    <glyph glyph-name="IJ" unicode="&#x132;" horiz-adv-x="407" 
d="M40 0l145 686h10l-145 -686h-10zM117 -121l-4 8q81 26 116 72q18 24 28 52.5t26 103.5l121 571h10l-121 -571q-16 -75 -26 -105.5t-30 -56.5q-36 -46 -120 -74z" />
    <glyph glyph-name="ij" unicode="&#x133;" horiz-adv-x="348" 
d="M40 0l106 502l11 2l-107 -504h-10zM181 647q-5 0 -9.5 4t-4.5 10t4.5 10t9.5 4q14 0 14 -14q0 -6 -4.5 -10t-9.5 -4zM112 -162l-3 8q50 19 70.5 54.5t35.5 105.5l105 496l11 2l-107 -500q-11 -49 -20 -75t-31.5 -51.5t-60.5 -39.5zM355 647q-5 0 -9.5 4t-4.5 10t4.5 10
t9.5 4q14 0 14 -14q0 -6 -4.5 -10t-9.5 -4z" />
    <glyph glyph-name="Jcircumflex" unicode="&#x134;" horiz-adv-x="219" 
d="M-71 -121l-4 8q81 26 116 72q18 24 28 52.5t26 103.5l121 571h10l-121 -571q-16 -75 -26 -105.5t-30 -56.5q-36 -46 -120 -74zM110 752l-5 7l151 97l117 -99l-6 -6l-112 93z" />
    <glyph glyph-name="jcircumflex" unicode="&#x135;" horiz-adv-x="172" 
d="M-64 -162l-3 8q50 19 70.5 54.5t35.5 105.5l105 496l11 2l-107 -500q-11 -49 -20 -75t-31.5 -51.5t-60.5 -39.5zM43 592l-5 7l151 97l117 -99l-6 -6l-112 93z" />
    <glyph glyph-name="Kcommaaccent" unicode="&#x136;" horiz-adv-x="451" 
d="M376 -3l-235 365l373 327l7 -7l-368 -321l232 -359zM40 0l145 686h10l-145 -686h-10zM220 -74q0 -47 -37 -78l-4 5q31 29 31 64v3q-2 -1 -6 -1q-13 0 -13 14t14 14q15 0 15 -21z" />
    <glyph glyph-name="kcommaaccent" unicode="&#x137;" horiz-adv-x="378" 
d="M331 -3l-209 279l283 225l6 -7l-276 -219l204 -274zM182 622l-132 -622h-10l133 626q11 55 11 81q0 10 -2 20l10 3q2 -10 2 -22q0 -27 -12 -86zM153 -147q31 29 31 64v3q-2 -1 -6 -1q-13 0 -13 14t14 14q15 0 15 -21t-7 -38q-9 -21 -30 -40z" />
    <glyph glyph-name="kgreenlandic" unicode="&#x138;" horiz-adv-x="378" 
d="M331 -3l-209 279l283 225l6 -7l-276 -219l204 -274zM50 0h-10l84 394q11 55 11 81q0 10 -2 20l10 3q2 -10 2 -22q0 -27 -12 -86z" />
    <glyph glyph-name="Lacute" unicode="&#x139;" horiz-adv-x="394" 
d="M40 0l145 686h10l-144 -677h298l-2 -9h-307zM195 732l-5 7l147 101l6 -8z" />
    <glyph glyph-name="lacute" unicode="&#x13a;" horiz-adv-x="201" 
d="M113 8l1 -8q-13 -5 -28 -5q-37 0 -37 38q0 8 7 43l117 550q11 55 11 81q0 10 -2 20l10 3q2 -10 2 -22q0 -27 -12 -86l-116 -547q-7 -35 -7 -41q0 -30 29 -30q11 0 25 4zM177 760l-5 7l147 101l6 -8z" />
    <glyph glyph-name="Lcommaaccent" unicode="&#x13b;" horiz-adv-x="394" 
d="M40 0l145 686h10l-144 -677h298l-2 -9h-307zM214 -74q0 -47 -37 -78l-4 5q31 29 31 64v3q-2 -1 -6 -1q-13 0 -13 14t14 14q15 0 15 -21z" />
    <glyph glyph-name="lcommaaccent" unicode="&#x13c;" horiz-adv-x="201" 
d="M113 8l1 -8q-13 -5 -28 -5q-37 0 -37 38q0 8 7 43l117 550q11 55 11 81q0 10 -2 20l10 3q2 -10 2 -22q0 -27 -12 -86l-116 -547q-7 -35 -7 -41q0 -30 29 -30q11 0 25 4zM43 -147q31 29 31 64v3q-2 -1 -6 -1q-13 0 -13 14t14 14q15 0 15 -21t-7 -38q-9 -21 -30 -40z" />
    <glyph glyph-name="Lcaron" unicode="&#x13d;" horiz-adv-x="394" 
d="M40 0l145 686h10l-144 -677h298l-2 -9h-307zM328 577l-4 5q41 32 41 74v3q-2 -1 -6 -1q-13 0 -13 14t14 14q15 0 15 -21q0 -52 -47 -88z" />
    <glyph glyph-name="lcaron" unicode="&#x13e;" horiz-adv-x="201" 
d="M113 8l1 -8q-13 -5 -28 -5q-37 0 -37 38q0 8 7 43l117 550q11 55 11 81q0 10 -2 20l10 3q2 -10 2 -22q0 -27 -12 -86l-116 -547q-7 -35 -7 -41q0 -30 29 -30q11 0 25 4zM217 621l-4 5q41 32 41 74v3q-2 -1 -6 -1q-13 0 -13 14t14 14q15 0 15 -21q0 -52 -47 -88z" />
    <glyph glyph-name="Ldot" unicode="&#x13f;" horiz-adv-x="394" 
d="M40 0l145 686h10l-144 -677h298l-2 -9h-307zM310 325q-5 0 -9.5 4t-4.5 10t4.5 10t9.5 4q14 0 14 -14q0 -6 -4.5 -10t-9.5 -4z" />
    <glyph glyph-name="ldot" unicode="&#x140;" horiz-adv-x="201" 
d="M113 8l1 -8q-13 -5 -28 -5q-37 0 -37 38q0 8 7 43l117 550q11 55 11 81q0 10 -2 20l10 3q2 -10 2 -22q0 -27 -12 -86l-116 -547q-7 -35 -7 -41q0 -30 29 -30q11 0 25 4zM214 311q-5 0 -9.5 4t-4.5 10t4.5 10t9.5 4q14 0 14 -14q0 -6 -4.5 -10t-9.5 -4z" />
    <glyph glyph-name="Lslash" unicode="&#x141;" horiz-adv-x="402" 
d="M33 299l2 9l46 14l77 364h10l-77 -361l249 74l-2 -9l-249 -74l-65 -307h298l-2 -9h-307l66 313z" />
    <glyph glyph-name="lslash" unicode="&#x142;" horiz-adv-x="211" 
d="M24 33q0 8 7 43l52 247l-40 -14l2 9l40 14l63 294q11 55 11 81q0 10 -2 20l10 3q2 -10 2 -22q0 -27 -12 -86l-61 -286l123 44l-2 -9l-123 -44l-53 -252q-7 -35 -7 -41q0 -30 29 -30q11 0 25 4l1 -8q-13 -5 -28 -5q-37 0 -37 38z" />
    <glyph glyph-name="Nacute" unicode="&#x143;" horiz-adv-x="573" 
d="M40 0l145 686h15l221 -656l7 -21l3 14l139 663h10l-145 -686h-14l-223 663l-5 15l-4 -19l-139 -659h-10zM332 732l-5 7l147 101l6 -8z" />
    <glyph glyph-name="nacute" unicode="&#x144;" horiz-adv-x="479" 
d="M50 0h-10l86 409q10 47 10 66q0 11 -3 22l10 3q3 -10 3 -23q0 -23 -11 -72l-12 -56q21 29 39 50t46.5 48t60 42t63.5 15q43 0 67 -24.5t24 -65.5q0 -15 -7 -48l-77 -366h-10l78 368q6 29 6 45q0 37 -21 59.5t-63 22.5q-90 0 -210 -167zM241 572l-5 7l147 101l6 -8z" />
    <glyph glyph-name="Ncommaaccent" unicode="&#x145;" horiz-adv-x="573" 
d="M40 0l145 686h15l221 -656l7 -21l3 14l139 663h10l-145 -686h-14l-223 663l-5 15l-4 -19l-139 -659h-10zM236 -74q0 -47 -37 -78l-4 5q31 29 31 64v3q-2 -1 -6 -1q-13 0 -13 14t14 14q15 0 15 -21z" />
    <glyph glyph-name="ncommaaccent" unicode="&#x146;" horiz-adv-x="479" 
d="M50 0h-10l86 409q10 47 10 66q0 11 -3 22l10 3q3 -10 3 -23q0 -23 -11 -72l-12 -56q21 29 39 50t46.5 48t60 42t63.5 15q43 0 67 -24.5t24 -65.5q0 -15 -7 -48l-77 -366h-10l78 368q6 29 6 45q0 37 -21 59.5t-63 22.5q-90 0 -210 -167zM156 -147q31 29 31 64v3
q-2 -1 -6 -1q-13 0 -13 14t14 14q15 0 15 -21t-7 -38q-9 -21 -30 -40z" />
    <glyph glyph-name="Ncaron" unicode="&#x147;" horiz-adv-x="573" 
d="M40 0l145 686h15l221 -656l7 -21l3 14l139 663h10l-145 -686h-14l-223 663l-5 15l-4 -19l-139 -659h-10zM538 832l5 -7l-151 -97l-117 99l6 6l112 -93z" />
    <glyph glyph-name="ncaron" unicode="&#x148;" horiz-adv-x="479" 
d="M50 0h-10l86 409q10 47 10 66q0 11 -3 22l10 3q3 -10 3 -23q0 -23 -11 -72l-12 -56q21 29 39 50t46.5 48t60 42t63.5 15q43 0 67 -24.5t24 -65.5q0 -15 -7 -48l-77 -366h-10l78 368q6 29 6 45q0 37 -21 59.5t-63 22.5q-90 0 -210 -167zM446 672l5 -7l-151 -97l-117 99
l6 6l112 -93z" />
    <glyph glyph-name="napostrophe" unicode="&#x149;" horiz-adv-x="479" 
d="M50 0h-10l86 409q10 47 10 66q0 11 -3 22l10 3q3 -10 3 -23q0 -23 -11 -72l-12 -56q21 29 39 50t46.5 48t60 42t63.5 15q43 0 67 -24.5t24 -65.5q0 -15 -7 -48l-77 -366h-10l78 368q6 29 6 45q0 37 -21 59.5t-63 22.5q-90 0 -210 -167zM85 497l-4 5q41 32 41 74v3
q-2 -1 -6 -1q-13 0 -13 14t14 14q15 0 15 -21q0 -52 -47 -88z" />
    <glyph glyph-name="Eng" unicode="&#x14a;" horiz-adv-x="573" 
d="M40 0l145 686h15l211 -626l17 -51l11 52l131 625h10l-145 -686q-19 -85 -48 -123q-36 -46 -120 -74l-4 8q81 26 116 72q27 37 42 104q2 6 0 13l-209 622l-19 56l-13 -62l-130 -616h-10z" />
    <glyph glyph-name="eng" unicode="&#x14b;" horiz-adv-x="479" 
d="M50 0h-10l86 409q10 47 10 66q0 11 -3 22l10 3q3 -10 3 -23q0 -23 -11 -72l-12 -56q21 29 39 50t46.5 48t60 42t63.5 15q43 0 67 -24.5t24 -65.5q0 -15 -7 -48l-84 -397q-11 -49 -20 -75t-31.5 -51.5t-60.5 -39.5l-3 8q50 19 70.5 55t35.5 105l84 397q6 29 6 45
q0 37 -21 59.5t-63 22.5q-90 0 -210 -167z" />
    <glyph glyph-name="Omacron" unicode="&#x14c;" horiz-adv-x="604" 
d="M252 2q141 0 228 142q43 71 65 160t22 166q0 213 -170 213q-73 0 -134 -40q-61 -41 -104 -121t-60 -158t-17 -149q0 -213 170 -213zM250 -7q-64 0 -105.5 31.5t-57 79t-15.5 111.5q0 119 46 245.5t138 188.5q64 43 143 43q64 0 105.5 -31.5t57 -79t15.5 -111.5
q0 -78 -21 -166.5t-64 -159.5q-91 -151 -242 -151zM286 776l2 9h254l-2 -9h-254z" />
    <glyph glyph-name="omacron" unicode="&#x14d;" horiz-adv-x="474" 
d="M186 -7q-74 0 -107 46t-33 120q0 80 26 156.5t84.5 132.5t138.5 56q74 0 107 -46t33 -120q0 -80 -26 -156.5t-84.5 -132.5t-138.5 -56zM188 2q57 0 103.5 31.5t74.5 81.5t43.5 108t15.5 115q0 157 -132 157q-57 0 -103.5 -31.5t-74.5 -81.5t-43.5 -108t-15.5 -115
q0 -157 132 -157zM191 607l2 9h254l-2 -9h-254z" />
    <glyph glyph-name="Obreve" unicode="&#x14e;" horiz-adv-x="604" 
d="M252 2q141 0 228 142q43 71 65 160t22 166q0 213 -170 213q-73 0 -134 -40q-61 -41 -104 -121t-60 -158t-17 -149q0 -213 170 -213zM250 -7q-64 0 -105.5 31.5t-57 79t-15.5 111.5q0 119 46 245.5t138 188.5q64 43 143 43q64 0 105.5 -31.5t57 -79t15.5 -111.5
q0 -78 -21 -166.5t-64 -159.5q-91 -151 -242 -151zM399 728q-70 0 -111 80l7 4q40 -75 106 -75q65 0 138 77l5 -6q-73 -80 -145 -80z" />
    <glyph glyph-name="obreve" unicode="&#x14f;" horiz-adv-x="474" 
d="M186 -7q-74 0 -107 46t-33 120q0 80 26 156.5t84.5 132.5t138.5 56q74 0 107 -46t33 -120q0 -80 -26 -156.5t-84.5 -132.5t-138.5 -56zM188 2q57 0 103.5 31.5t74.5 81.5t43.5 108t15.5 115q0 157 -132 157q-57 0 -103.5 -31.5t-74.5 -81.5t-43.5 -108t-15.5 -115
q0 -157 132 -157zM299 568q-70 0 -111 80l7 4q40 -75 106 -75q65 0 138 77l5 -6q-73 -80 -145 -80z" />
    <glyph glyph-name="Ohungarumlaut" unicode="&#x150;" horiz-adv-x="604" 
d="M252 2q141 0 228 142q43 71 65 160t22 166q0 213 -170 213q-73 0 -134 -40q-61 -41 -104 -121t-60 -158t-17 -149q0 -213 170 -213zM250 -7q-64 0 -105.5 31.5t-57 79t-15.5 111.5q0 119 46 245.5t138 188.5q64 43 143 43q64 0 105.5 -31.5t57 -79t15.5 -111.5
q0 -78 -21 -166.5t-64 -159.5q-91 -151 -242 -151zM339 732l-6 5l110 129l10 -8zM440 732l-6 5l110 129l10 -8z" />
    <glyph glyph-name="ohungarumlaut" unicode="&#x151;" horiz-adv-x="474" 
d="M186 -7q-74 0 -107 46t-33 120q0 80 26 156.5t84.5 132.5t138.5 56q74 0 107 -46t33 -120q0 -80 -26 -156.5t-84.5 -132.5t-138.5 -56zM188 2q57 0 103.5 31.5t74.5 81.5t43.5 108t15.5 115q0 157 -132 157q-57 0 -103.5 -31.5t-74.5 -81.5t-43.5 -108t-15.5 -115
q0 -157 132 -157zM245 572l-6 5l110 129l10 -8zM346 572l-6 5l110 129l10 -8z" />
    <glyph glyph-name="OE" unicode="&#x152;" horiz-adv-x="802" 
d="M72 215q0 128 43 233.5t130.5 171.5t204.5 66h411l-4 -9h-302l-67 -315h237l-1 -9h-237l-73 -344h317l-1 -9h-436q-102 0 -162 57.5t-60 157.5zM82 215q0 -96 57 -151t157 -55h108l141 668h-97q-113 0 -197.5 -64.5t-126.5 -168t-42 -229.5z" />
    <glyph glyph-name="oe" unicode="&#x153;" horiz-adv-x="779" 
d="M186 -7q-74 0 -107 46t-33 120q0 80 26 156.5t84.5 132.5t138.5 56q138 0 138 -166q0 -17 -2 -39q26 83 79.5 139t126.5 56q48 0 81.5 -27t33.5 -74q0 -69 -47 -107q-56 -46 -178 -46q-65 0 -103 5q-9 -43 -9 -83q0 -76 36.5 -123t108.5 -47q71 0 138 52l6 -7
q-71 -54 -146 -54q-76 0 -113.5 49.5t-37.5 128.5q0 12 2 32q-27 -87 -85 -143.5t-138 -56.5zM188 2q57 0 103.5 31.5t74.5 81.5t43.5 108t15.5 115q0 157 -132 157q-57 0 -103.5 -31.5t-74.5 -81.5t-43.5 -108t-15.5 -115q0 -157 132 -157zM529 249q114 0 168 43
q45 36 45 100q0 45 -30.5 69t-77.5 24q-78 0 -132 -68.5t-76 -162.5q55 -5 103 -5z" />
    <glyph glyph-name="Racute" unicode="&#x154;" horiz-adv-x="471" 
d="M402 -2q-18 54 -59 145q-40 88 -70 127q-26 34 -44.5 43t-56.5 9h-54l-68 -322h-10l145 686h112q191 0 191 -141q0 -214 -268 -221q55 -8 132 -177q36 -77 59 -146zM478 544q0 133 -184 133h-101l-73 -346h74q114 0 180 32q104 51 104 181zM252 732l-5 7l147 101l6 -8z
" />
    <glyph glyph-name="racute" unicode="&#x155;" horiz-adv-x="298" 
d="M50 0h-10l86 409q10 47 10 66q0 11 -3 22l10 3q3 -12 3 -25q0 -21 -10 -70l-14 -66q20 35 33 55t37.5 50t53 45t60.5 15q18 0 32 -6l-3 -9q-12 6 -31 6q-29 0 -56 -15.5t-52 -47t-41 -55.5t-39 -64zM187 572l-5 7l147 101l6 -8z" />
    <glyph glyph-name="Rcommaaccent" unicode="&#x156;" horiz-adv-x="471" 
d="M402 -2q-18 54 -59 145q-40 88 -70 127q-26 34 -44.5 43t-56.5 9h-54l-68 -322h-10l145 686h112q191 0 191 -141q0 -214 -268 -221q55 -8 132 -177q36 -77 59 -146zM478 544q0 133 -184 133h-101l-73 -346h74q114 0 180 32q104 51 104 181zM229 -74q0 -47 -37 -78l-4 5
q31 29 31 64v3q-2 -1 -6 -1q-13 0 -13 14t14 14q15 0 15 -21z" />
    <glyph glyph-name="rcommaaccent" unicode="&#x157;" horiz-adv-x="298" 
d="M50 0h-10l86 409q10 47 10 66q0 11 -3 22l10 3q3 -12 3 -25q0 -21 -10 -70l-14 -66q20 35 33 55t37.5 50t53 45t60.5 15q18 0 32 -6l-3 -9q-12 6 -31 6q-29 0 -56 -15.5t-52 -47t-41 -55.5t-39 -64zM8 -147q31 29 31 64v3q-2 -1 -6 -1q-13 0 -13 14t14 14q15 0 15 -21
t-7 -38q-9 -21 -30 -40z" />
    <glyph glyph-name="Rcaron" unicode="&#x158;" horiz-adv-x="471" 
d="M402 -2q-18 54 -59 145q-40 88 -70 127q-26 34 -44.5 43t-56.5 9h-54l-68 -322h-10l145 686h112q191 0 191 -141q0 -214 -268 -221q55 -8 132 -177q36 -77 59 -146zM478 544q0 133 -184 133h-101l-73 -346h74q114 0 180 32q104 51 104 181zM477 832l5 -7l-151 -97
l-117 99l6 6l112 -93z" />
    <glyph glyph-name="rcaron" unicode="&#x159;" horiz-adv-x="298" 
d="M50 0h-10l86 409q10 47 10 66q0 11 -3 22l10 3q3 -12 3 -25q0 -21 -10 -70l-14 -66q20 35 33 55t37.5 50t53 45t60.5 15q18 0 32 -6l-3 -9q-12 6 -31 6q-29 0 -56 -15.5t-52 -47t-41 -55.5t-39 -64zM388 672l5 -7l-151 -97l-117 99l6 6l112 -93z" />
    <glyph glyph-name="Sacute" unicode="&#x15a;" horiz-adv-x="492" 
d="M177 -7q-96 0 -167 53l6 8q66 -52 163 -52q93 0 162.5 56.5t69.5 149.5q0 47 -28 78.5t-83 55.5l-63 28q-106 47 -106 132q0 93 64.5 141.5t155.5 48.5q90 0 148 -46l-6 -7q-56 44 -144 44q-85 0 -146.5 -46t-61.5 -133q0 -80 98 -124l63 -28q58 -26 88.5 -59t30.5 -84
q0 -97 -71 -156.5t-173 -59.5zM289 732l-5 7l147 101l6 -8z" />
    <glyph glyph-name="sacute" unicode="&#x15b;" horiz-adv-x="405" 
d="M141 -7q-79 0 -143 43l5 8q62 -42 140 -42q69 0 122 35t53 103q0 38 -17.5 61t-70.5 46l-58 25q-46 20 -67.5 41.5t-21.5 58.5q0 67 49 99.5t123 32.5q65 0 120 -38l-6 -8q-47 37 -116 37q-66 0 -113 -29.5t-47 -92.5q0 -35 20 -54.5t63 -37.5l59 -25q55 -23 74.5 -50
t19.5 -65q0 -71 -55 -109.5t-133 -38.5zM229 572l-5 7l147 101l6 -8z" />
    <glyph glyph-name="Scircumflex" unicode="&#x15c;" horiz-adv-x="492" 
d="M177 -7q-96 0 -167 53l6 8q66 -52 163 -52q93 0 162.5 56.5t69.5 149.5q0 47 -28 78.5t-83 55.5l-63 28q-106 47 -106 132q0 93 64.5 141.5t155.5 48.5q90 0 148 -46l-6 -7q-56 44 -144 44q-85 0 -146.5 -46t-61.5 -133q0 -80 98 -124l63 -28q58 -26 88.5 -59t30.5 -84
q0 -97 -71 -156.5t-173 -59.5zM228 752l-5 7l151 97l117 -99l-6 -6l-112 93z" />
    <glyph glyph-name="scircumflex" unicode="&#x15d;" horiz-adv-x="405" 
d="M141 -7q-79 0 -143 43l5 8q62 -42 140 -42q69 0 122 35t53 103q0 38 -17.5 61t-70.5 46l-58 25q-46 20 -67.5 41.5t-21.5 58.5q0 67 49 99.5t123 32.5q65 0 120 -38l-6 -8q-47 37 -116 37q-66 0 -113 -29.5t-47 -92.5q0 -35 20 -54.5t63 -37.5l59 -25q55 -23 74.5 -50
t19.5 -65q0 -71 -55 -109.5t-133 -38.5zM139 592l-5 7l151 97l117 -99l-6 -6l-112 93z" />
    <glyph glyph-name="Scedilla" unicode="&#x15e;" horiz-adv-x="492" 
d="M137 -197q-41 0 -67 24l6 7q24 -22 63 -22q35 0 62.5 19.5t27.5 56.5q0 46 -55 46q-18 0 -35 -4l34 63q-95 1 -163 53l6 8q66 -52 163 -52q93 0 162.5 56.5t69.5 149.5q0 47 -28 78.5t-83 55.5l-63 28q-106 47 -106 132q0 93 64.5 141.5t155.5 48.5q90 0 148 -46l-6 -7
q-56 44 -144 44q-85 0 -146.5 -46t-61.5 -133q0 -80 98 -124l63 -28q58 -26 88.5 -59t30.5 -84q0 -96 -69.5 -155t-169.5 -61l-28 -53q16 2 23 2q31 0 46.5 -15t15.5 -38q0 -40 -29.5 -63t-72.5 -23z" />
    <glyph glyph-name="scedilla" unicode="&#x15f;" horiz-adv-x="405" 
d="M100 -197q-41 0 -67 24l6 7q24 -22 63 -22q35 0 62.5 19.5t27.5 56.5q0 46 -55 46q-18 0 -35 -4l34 63q-78 1 -138 43l5 8q62 -42 140 -42q69 0 122 35t53 103q0 38 -17.5 61t-70.5 46l-58 25q-46 20 -67.5 41.5t-21.5 58.5q0 67 49 99.5t123 32.5q65 0 120 -38l-6 -8
q-47 37 -116 37q-66 0 -113 -29.5t-47 -92.5q0 -35 20 -54.5t63 -37.5l59 -25q55 -23 74.5 -50t19.5 -65q0 -70 -53.5 -108t-130.5 -40l-28 -53q16 2 23 2q31 0 46.5 -15t15.5 -38q0 -40 -29.5 -63t-72.5 -23z" />
    <glyph glyph-name="Scaron" unicode="&#x160;" horiz-adv-x="492" 
d="M177 -7q-96 0 -167 53l6 8q66 -52 163 -52q93 0 162.5 56.5t69.5 149.5q0 47 -28 78.5t-83 55.5l-63 28q-106 47 -106 132q0 93 64.5 141.5t155.5 48.5q90 0 148 -46l-6 -7q-56 44 -144 44q-85 0 -146.5 -46t-61.5 -133q0 -80 98 -124l63 -28q58 -26 88.5 -59t30.5 -84
q0 -97 -71 -156.5t-173 -59.5zM494 832l5 -7l-151 -97l-117 99l6 6l112 -93z" />
    <glyph glyph-name="scaron" unicode="&#x161;" horiz-adv-x="405" 
d="M141 -7q-79 0 -143 43l5 8q62 -42 140 -42q69 0 122 35t53 103q0 38 -17.5 61t-70.5 46l-58 25q-46 20 -67.5 41.5t-21.5 58.5q0 67 49 99.5t123 32.5q65 0 120 -38l-6 -8q-47 37 -116 37q-66 0 -113 -29.5t-47 -92.5q0 -35 20 -54.5t63 -37.5l59 -25q55 -23 74.5 -50
t19.5 -65q0 -71 -55 -109.5t-133 -38.5zM409 672l5 -7l-151 -97l-117 99l6 6l112 -93z" />
    <glyph glyph-name="Tcommaaccent" unicode="&#x162;" horiz-adv-x="402" 
d="M159 0l143 677h-201l2 9h416l-4 -9h-203l-143 -677l-32 -60q16 2 23 2q31 0 46.5 -15t15.5 -38q0 -40 -29.5 -63t-72.5 -23q-41 0 -67 24l6 7q24 -22 63 -22q35 0 62.5 19.5t27.5 56.5q0 46 -55 46q-18 0 -35 -4l38 70h-1z" />
    <glyph glyph-name="tcommaaccent" unicode="&#x163;" horiz-adv-x="236" 
d="M105 -197q-41 0 -67 24l6 7q24 -22 63 -22q35 0 62.5 19.5t27.5 56.5q0 46 -55 46q-18 0 -35 -4l34 63q-60 3 -60 68q0 21 9 64l77 364h-65l2 9h65q17 78 38 131l12 3q-22 -49 -40 -134h119l-5 -9h-116l-77 -364q-9 -45 -9 -64q0 -59 55 -59q31 0 61 12v-9
q-29 -11 -57 -12l-28 -53q16 2 23 2q31 0 46.5 -15t15.5 -38q0 -40 -29.5 -63t-72.5 -23z" />
    <glyph glyph-name="Tcaron" unicode="&#x164;" horiz-adv-x="402" 
d="M159 0l143 677h-201l2 9h416l-4 -9h-203l-143 -677h-10zM464 832l5 -7l-151 -97l-117 99l6 6l112 -93z" />
    <glyph glyph-name="tcaron" unicode="&#x165;" horiz-adv-x="236" 
d="M145 -7q-64 0 -64 68q0 21 9 64l77 364h-65l2 9h65q17 78 38 131l12 3q-22 -49 -40 -134h119l-5 -9h-116l-77 -364q-9 -45 -9 -64q0 -59 55 -59q31 0 61 12v-9q-29 -12 -62 -12zM273 562l-4 5q41 32 41 74v3q-2 -1 -6 -1q-13 0 -13 14t14 14q15 0 15 -21q0 -52 -47 -88z
" />
    <glyph glyph-name="Tbar" unicode="&#x166;" horiz-adv-x="402" 
d="M111 407l2 9h134l55 261h-201l2 9h416l-4 -9h-203l-55 -261h132l-2 -9h-132l-86 -407h-10l86 407h-134z" />
    <glyph glyph-name="tbar" unicode="&#x167;" horiz-adv-x="236" 
d="M55 269l2 9h65l45 211h-65l2 9h65q17 78 38 131l12 3q-22 -49 -40 -134h119l-5 -9h-116l-45 -211h119l-5 -9h-116l-30 -144q-9 -45 -9 -64q0 -59 55 -59q31 0 61 12v-9q-29 -12 -62 -12q-63 0 -63 68q0 26 8 64l30 144h-65z" />
    <glyph glyph-name="Utilde" unicode="&#x168;" horiz-adv-x="558" 
d="M229 -7q-155 0 -155 139q0 30 8 68l103 486h10l-103 -485q-8 -38 -8 -68q0 -131 147 -131q104 0 161 59q43 46 64 140l103 485h10l-103 -486q-20 -96 -65 -143q-61 -64 -172 -64zM269 755l-4 6q34 31 69 31q25 0 55 -17.5t53 -17.5q31 0 63 28l4 -6q-31 -31 -69 -31
q-25 0 -55 17.5t-53 17.5q-31 0 -63 -28z" />
    <glyph glyph-name="utilde" unicode="&#x169;" horiz-adv-x="488" 
d="M385 -4q-26 30 -26 70q0 28 9 68l2 12q-113 -153 -207 -153q-43 0 -67 24.5t-24 65.5q0 15 7 48l77 366l11 3l-79 -371q-6 -29 -6 -45q0 -37 21 -59.5t63 -22.5q88 0 209 165l70 330l11 3l-79 -370q-9 -41 -9 -65q0 -35 24 -63zM201 595l-4 6q34 31 69 31q25 0 55 -17.5
t53 -17.5q31 0 63 28l4 -6q-31 -31 -69 -31q-25 0 -55 17.5t-53 17.5q-31 0 -63 -28z" />
    <glyph glyph-name="Umacron" unicode="&#x16a;" horiz-adv-x="558" 
d="M229 -7q-155 0 -155 139q0 30 8 68l103 486h10l-103 -485q-8 -38 -8 -68q0 -131 147 -131q104 0 161 59q43 46 64 140l103 485h10l-103 -486q-20 -96 -65 -143q-61 -64 -172 -64zM261 776l2 9h254l-2 -9h-254z" />
    <glyph glyph-name="umacron" unicode="&#x16b;" horiz-adv-x="488" 
d="M385 -4q-26 30 -26 70q0 28 9 68l2 12q-113 -153 -207 -153q-43 0 -67 24.5t-24 65.5q0 15 7 48l77 366l11 3l-79 -371q-6 -29 -6 -45q0 -37 21 -59.5t63 -22.5q88 0 209 165l70 330l11 3l-79 -370q-9 -41 -9 -65q0 -35 24 -63zM202 607l2 9h254l-2 -9h-254z" />
    <glyph glyph-name="Ubreve" unicode="&#x16c;" horiz-adv-x="558" 
d="M229 -7q-155 0 -155 139q0 30 8 68l103 486h10l-103 -485q-8 -38 -8 -68q0 -131 147 -131q104 0 161 59q43 46 64 140l103 485h10l-103 -486q-20 -96 -65 -143q-61 -64 -172 -64zM377 728q-70 0 -111 80l7 4q40 -75 106 -75q65 0 138 77l5 -6q-73 -80 -145 -80z" />
    <glyph glyph-name="ubreve" unicode="&#x16d;" horiz-adv-x="488" 
d="M385 -4q-26 30 -26 70q0 28 9 68l2 12q-113 -153 -207 -153q-43 0 -67 24.5t-24 65.5q0 15 7 48l77 366l11 3l-79 -371q-6 -29 -6 -45q0 -37 21 -59.5t63 -22.5q88 0 209 165l70 330l11 3l-79 -370q-9 -41 -9 -65q0 -35 24 -63zM311 568q-70 0 -111 80l7 4
q40 -75 106 -75q65 0 138 77l5 -6q-73 -80 -145 -80z" />
    <glyph glyph-name="Uring" unicode="&#x16e;" horiz-adv-x="558" 
d="M229 -7q-155 0 -155 139q0 30 8 68l103 486h10l-103 -485q-8 -38 -8 -68q0 -131 147 -131q104 0 161 59q43 46 64 140l103 485h10l-103 -486q-20 -96 -65 -143q-61 -64 -172 -64zM382 737q-32 0 -50.5 20.5t-18.5 51.5q0 29 18.5 49.5t49.5 20.5t50 -20.5t19 -49.5
q0 -30 -19 -51t-49 -21zM382 746q26 0 42.5 18t16.5 45q0 25 -17 43t-43 18t-42.5 -17.5t-16.5 -43.5q0 -27 16.5 -45t43.5 -18z" />
    <glyph glyph-name="uring" unicode="&#x16f;" horiz-adv-x="488" 
d="M385 -4q-26 30 -26 70q0 28 9 68l2 12q-113 -153 -207 -153q-43 0 -67 24.5t-24 65.5q0 15 7 48l77 366l11 3l-79 -371q-6 -29 -6 -45q0 -37 21 -59.5t63 -22.5q88 0 209 165l70 330l11 3l-79 -370q-9 -41 -9 -65q0 -35 24 -63zM327 577q-32 0 -50.5 20.5t-18.5 51.5
q0 29 18.5 49.5t49.5 20.5t50 -20.5t19 -49.5q0 -30 -19 -51t-49 -21zM327 586q26 0 42.5 18t16.5 45q0 25 -17 43t-43 18t-42.5 -17.5t-16.5 -43.5q0 -27 16.5 -45t43.5 -18z" />
    <glyph glyph-name="Uhungarumlaut" unicode="&#x170;" horiz-adv-x="558" 
d="M229 -7q-155 0 -155 139q0 30 8 68l103 486h10l-103 -485q-8 -38 -8 -68q0 -131 147 -131q104 0 161 59q43 46 64 140l103 485h10l-103 -486q-20 -96 -65 -143q-61 -64 -172 -64zM319 732l-6 5l110 129l10 -8zM420 732l-6 5l110 129l10 -8z" />
    <glyph glyph-name="uhungarumlaut" unicode="&#x171;" horiz-adv-x="488" 
d="M385 -4q-26 30 -26 70q0 28 9 68l2 12q-113 -153 -207 -153q-43 0 -67 24.5t-24 65.5q0 15 7 48l77 366l11 3l-79 -371q-6 -29 -6 -45q0 -37 21 -59.5t63 -22.5q88 0 209 165l70 330l11 3l-79 -370q-9 -41 -9 -65q0 -35 24 -63zM261 572l-6 5l110 129l10 -8zM362 572
l-6 5l110 129l10 -8z" />
    <glyph glyph-name="Uogonek" unicode="&#x172;" horiz-adv-x="558" 
d="M194 -197q-33 0 -50 17t-17 44q0 66 94 129q-147 4 -147 139q0 30 8 68l103 486h10l-103 -485q-8 -38 -8 -68q0 -131 147 -131q104 0 161 59q43 46 64 140l103 485h10l-103 -486q-20 -96 -65 -143q-56 -60 -159 -64q-8 -1 -32 -16t-48.5 -47t-24.5 -66q0 -52 60 -52
q28 0 58 15l3 -7q-28 -17 -64 -17z" />
    <glyph glyph-name="uogonek" unicode="&#x173;" horiz-adv-x="488" 
d="M341 -197q-33 0 -50 17t-17 44q0 40 28.5 72.5t76.5 65.5q-20 26 -20 64q0 28 9 68l2 12q-113 -153 -207 -153q-43 0 -67 24.5t-24 65.5q0 15 7 48l77 366l11 3l-79 -371q-6 -29 -6 -45q0 -37 21 -59.5t63 -22.5q88 0 209 165l70 330l11 3l-79 -370q-9 -41 -9 -65
q0 -35 24 -63q-30 -20 -50 -36.5t-39 -45t-19 -56.5q0 -52 60 -52q28 0 58 15l3 -7q-28 -17 -64 -17z" />
    <glyph glyph-name="Wcircumflex" unicode="&#x174;" horiz-adv-x="705" 
d="M138 0l-25 686h9l24 -648l1 -25l7 15l297 658h10l15 -669v-4l5 11l293 662h10l-305 -686h-12l-14 659v11l-10 -22l-292 -648h-13zM345 752l-5 7l151 97l117 -99l-6 -6l-112 93z" />
    <glyph glyph-name="wcircumflex" unicode="&#x175;" horiz-adv-x="583" 
d="M101 -4l-34 503l9 2l32 -464l2 -27h1l14 30l216 458h11l25 -437l3 -51h1l23 47l214 441h10l-243 -502h-14l-25 451l-2 35h-1l-16 -34l-213 -452h-13zM241 592l-5 7l151 97l117 -99l-6 -6l-112 93z" />
    <glyph glyph-name="Ycircumflex" unicode="&#x176;" horiz-adv-x="458" 
d="M174 0l57 272l-133 414h10l123 -382l7 -22l14 19l288 385h12l-311 -415l-57 -271h-10zM199 752l-5 7l151 97l117 -99l-6 -6l-112 93z" />
    <glyph glyph-name="ycircumflex" unicode="&#x177;" horiz-adv-x="390" 
d="M-4 -202l-3 9q45 13 77.5 51.5t80.5 126.5l10 17l-8 -2q0 23 -8 84l-59 415l9 3l59 -415q3 -19 4.5 -37t2.5 -30.5t1 -14.5h1l21 39l246 454h11l-280 -516q-25 -45 -39 -68t-35 -50.5t-42.5 -42.5t-48.5 -23zM149 592l-5 7l151 97l117 -99l-6 -6l-112 93z" />
    <glyph glyph-name="Ydieresis" unicode="&#x178;" horiz-adv-x="458" 
d="M174 0l57 272l-133 414h10l123 -382l7 -22l14 19l288 385h12l-311 -415l-57 -271h-10zM274 757q-5 0 -9.5 4t-4.5 10t4.5 10t9.5 4q14 0 14 -14q0 -6 -4.5 -10t-9.5 -4zM382 757q-5 0 -9.5 4t-4.5 10t4.5 10t9.5 4q14 0 14 -14q0 -6 -4.5 -10t-9.5 -4z" />
    <glyph glyph-name="Zacute" unicode="&#x179;" horiz-adv-x="498" 
d="M4 0v9l515 654l11 14h-353l4 9h360v-9l-506 -644l-19 -24h367l-3 -9h-376zM299 732l-5 7l147 101l6 -8z" />
    <glyph glyph-name="zacute" unicode="&#x17a;" horiz-adv-x="412" 
d="M6 0v10l406 479h-282v9h294v-10l-406 -479h287l-4 -9h-295zM226 572l-5 7l147 101l6 -8z" />
    <glyph glyph-name="Zdotaccent" unicode="&#x17b;" horiz-adv-x="498" 
d="M4 0v9l515 654l11 14h-353l4 9h360v-9l-506 -644l-19 -24h367l-3 -9h-376zM367 757q-5 0 -9.5 4t-4.5 10t4.5 10t9.5 4q14 0 14 -14q0 -6 -4.5 -10t-9.5 -4z" />
    <glyph glyph-name="zdotaccent" unicode="&#x17c;" horiz-adv-x="412" 
d="M6 0v10l406 479h-282v9h294v-10l-406 -479h287l-4 -9h-295zM302 597q-5 0 -9.5 4t-4.5 10t4.5 10t9.5 4q14 0 14 -14q0 -6 -4.5 -10t-9.5 -4z" />
    <glyph glyph-name="Zcaron" unicode="&#x17d;" horiz-adv-x="498" 
d="M4 0v9l515 654l11 14h-353l4 9h360v-9l-506 -644l-19 -24h367l-3 -9h-376zM504 832l5 -7l-151 -97l-117 99l6 6l112 -93z" />
    <glyph glyph-name="zcaron" unicode="&#x17e;" horiz-adv-x="412" 
d="M6 0v10l406 479h-282v9h294v-10l-406 -479h287l-4 -9h-295zM431 672l5 -7l-151 -97l-117 99l6 6l112 -93z" />
    <glyph glyph-name="longs" unicode="&#x17f;" horiz-adv-x="220" 
d="M58 0l103 489h-48l2 9h48l26 120q24 106 111 106q38 0 67 -21l-5 -8q-26 20 -64 20q-37 0 -63 -26t-36 -71l-131 -618q-19 -87 -34.5 -122.5t-47.5 -73.5l-8 5q33 36 48 73.5t32 117.5z" />
    <glyph glyph-name="uni018F" unicode="&#x18f;" horiz-adv-x="589" 
d="M234 -7q-73 0 -123.5 40t-50.5 111q0 102 65 156q82 69 260 69q102 0 157 -5q7 52 7 92q0 227 -197 227q-110 0 -200 -58l-4 7q92 60 206 60q103 0 154.5 -61.5t51.5 -169.5q0 -55 -10 -108q-12 -68 -37.5 -130t-63.5 -114.5t-94 -84t-121 -31.5zM235 2q114 0 195 99
t110 253q-55 5 -155 5q-174 0 -254 -67q-61 -52 -61 -148q0 -66 48.5 -104t116.5 -38z" />
    <glyph glyph-name="florin" unicode="&#x192;" horiz-adv-x="183" 
d="M-45 -151l-5 8q51 30 74 70t40 121l78 384h-49l1 8h50l25 120q15 72 47.5 110t94.5 38q30 0 50 -11l-4 -8q-21 10 -46 10q-55 0 -86 -34.5t-46 -105.5l-25 -119h115l-4 -8h-113l-76 -377q-20 -96 -45 -135.5t-76 -70.5z" />
    <glyph glyph-name="uni01B5" unicode="&#x1b5;" horiz-adv-x="498" 
d="M4 0v9l267 339h-119l2 9h124l241 306l11 14h-353l4 9h360v-9l-252 -320h121l-2 -9h-126l-247 -315l-19 -24h367l-3 -9h-376z" />
    <glyph glyph-name="uni01B6" unicode="&#x1b6;" horiz-adv-x="412" 
d="M96 245l2 9h114l200 235h-282v9h294v-10l-199 -234h127l-2 -9h-132l-200 -236h287l-4 -9h-295v10l199 235h-109z" />
    <glyph glyph-name="uni01C4" unicode="&#x1c4;" horiz-adv-x="1060" 
d="M40 0l145 686h101q39 0 67.5 -3t65.5 -16t60.5 -36t40 -67t16.5 -105q0 -108 -31 -203.5t-93 -158.5q-95 -97 -248 -97h-124zM51 9h117q143 0 234 91q62 62 93 156.5t31 201.5q0 58 -15 100t-37 64.5t-56 35t-62.5 16t-67.5 3.5h-95zM566 0v9l515 654l11 14h-353l4 9h360
v-9l-506 -644l-19 -24h367l-3 -9h-376zM1066 832l5 -7l-151 -97l-117 99l6 6l112 -93z" />
    <glyph glyph-name="uni01C5" unicode="&#x1c5;" horiz-adv-x="937" 
d="M40 0l145 686h101q39 0 67.5 -3t65.5 -16t60.5 -36t40 -67t16.5 -105q0 -108 -31 -203.5t-93 -158.5q-95 -97 -248 -97h-124zM51 9h117q143 0 234 91q62 62 93 156.5t31 201.5q0 58 -15 100t-37 64.5t-56 35t-62.5 16t-67.5 3.5h-95zM531 0v10l406 479h-282v9h294v-10
l-406 -479h287l-4 -9h-295zM956 672l5 -7l-151 -97l-117 99l6 6l112 -93z" />
    <glyph glyph-name="uni01C6" unicode="&#x1c6;" horiz-adv-x="870" 
d="M396 2l-7 -6q-26 32 -26 70q0 21 10 66q-69 -139 -179 -139q-141 0 -141 167q0 153 78 248.5t178 95.5q77 0 132 -47l58 273l9 -2l-127 -598q-9 -41 -9 -65q0 -35 24 -63zM196 2q50 0 98 38.5t84 120.5l61 286q-57 48 -132 48q-95 0 -169.5 -94t-74.5 -240
q0 -159 133 -159zM463 0v10l406 479h-282v9h294v-10l-406 -479h287l-4 -9h-295zM888 672l5 -7l-151 -97l-117 99l6 6l112 -93z" />
    <glyph glyph-name="uni01C7" unicode="&#x1c7;" horiz-adv-x="613" 
d="M40 0l145 686h10l-144 -677h298l-2 -9h-307zM323 -121l-4 8q81 26 116 72q18 24 28 52.5t26 103.5l121 571h10l-121 -571q-16 -75 -26 -105.5t-30 -56.5q-36 -46 -120 -74z" />
    <glyph glyph-name="uni01C8" unicode="&#x1c8;" horiz-adv-x="566" 
d="M40 0l145 686h10l-144 -677h298l-2 -9h-307zM330 -162l-3 8q50 19 70.5 54.5t35.5 105.5l105 496l11 2l-107 -500q-11 -49 -20 -75t-31.5 -51.5t-60.5 -39.5zM573 647q-5 0 -9.5 4t-4.5 10t4.5 10t9.5 4q14 0 14 -14q0 -6 -4.5 -10t-9.5 -4z" />
    <glyph glyph-name="uni01C9" unicode="&#x1c9;" horiz-adv-x="373" 
d="M113 8l1 -8q-13 -5 -28 -5q-37 0 -37 38q0 8 7 43l117 550q11 55 11 81q0 10 -2 20l10 3q2 -10 2 -22q0 -27 -12 -86l-116 -547q-7 -35 -7 -41q0 -30 29 -30q11 0 25 4zM137 -162l-3 8q50 19 70.5 54.5t35.5 105.5l105 496l11 2l-107 -500q-11 -49 -20 -75t-31.5 -51.5
t-60.5 -39.5zM380 647q-5 0 -9.5 4t-4.5 10t4.5 10t9.5 4q14 0 14 -14q0 -6 -4.5 -10t-9.5 -4z" />
    <glyph glyph-name="uni01CA" unicode="&#x1ca;" horiz-adv-x="792" 
d="M40 0l145 686h15l221 -656l7 -21l3 14l139 663h10l-145 -686h-14l-223 663l-5 15l-4 -19l-139 -659h-10zM502 -121l-4 8q81 26 116 72q18 24 28 52.5t26 103.5l121 571h10l-121 -571q-16 -75 -26 -105.5t-30 -56.5q-36 -46 -120 -74z" />
    <glyph glyph-name="uni01CB" unicode="&#x1cb;" horiz-adv-x="745" 
d="M40 0l145 686h15l221 -656l7 -21l3 14l139 663h10l-145 -686h-14l-223 663l-5 15l-4 -19l-139 -659h-10zM509 -162l-3 8q50 19 70.5 54.5t35.5 105.5l105 496l11 2l-107 -500q-11 -49 -20 -75t-31.5 -51.5t-60.5 -39.5zM752 647q-5 0 -9.5 4t-4.5 10t4.5 10t9.5 4
q14 0 14 -14q0 -6 -4.5 -10t-9.5 -4z" />
    <glyph glyph-name="uni01CC" unicode="&#x1cc;" horiz-adv-x="651" 
d="M50 0h-10l86 409q10 47 10 66q0 11 -3 22l10 3q3 -10 3 -23q0 -23 -11 -72l-12 -56q21 29 39 50t46.5 48t60 42t63.5 15q43 0 67 -24.5t24 -65.5q0 -15 -7 -48l-77 -366h-10l78 368q6 29 6 45q0 37 -21 59.5t-63 22.5q-90 0 -210 -167zM415 -162l-3 8q50 19 70.5 54.5
t35.5 105.5l105 496l11 2l-107 -500q-11 -49 -20 -75t-31.5 -51.5t-60.5 -39.5zM658 647q-5 0 -9.5 4t-4.5 10t4.5 10t9.5 4q14 0 14 -14q0 -6 -4.5 -10t-9.5 -4z" />
    <glyph glyph-name="uni01F1" unicode="&#x1f1;" horiz-adv-x="1060" 
d="M40 0l145 686h101q39 0 67.5 -3t65.5 -16t60.5 -36t40 -67t16.5 -105q0 -108 -31 -203.5t-93 -158.5q-95 -97 -248 -97h-124zM51 9h117q143 0 234 91q62 62 93 156.5t31 201.5q0 58 -15 100t-37 64.5t-56 35t-62.5 16t-67.5 3.5h-95zM566 0v9l515 654l11 14h-353l4 9h360
v-9l-506 -644l-19 -24h367l-3 -9h-376z" />
    <glyph glyph-name="uni01F2" unicode="&#x1f2;" horiz-adv-x="937" 
d="M40 0l145 686h101q39 0 67.5 -3t65.5 -16t60.5 -36t40 -67t16.5 -105q0 -108 -31 -203.5t-93 -158.5q-95 -97 -248 -97h-124zM51 9h117q143 0 234 91q62 62 93 156.5t31 201.5q0 58 -15 100t-37 64.5t-56 35t-62.5 16t-67.5 3.5h-95zM531 0v10l406 479h-282v9h294v-10
l-406 -479h287l-4 -9h-295z" />
    <glyph glyph-name="uni01F3" unicode="&#x1f3;" horiz-adv-x="870" 
d="M396 2l-7 -6q-26 32 -26 70q0 21 10 66q-69 -139 -179 -139q-141 0 -141 167q0 153 78 248.5t178 95.5q77 0 132 -47l58 273l9 -2l-127 -598q-9 -41 -9 -65q0 -35 24 -63zM196 2q50 0 98 38.5t84 120.5l61 286q-57 48 -132 48q-95 0 -169.5 -94t-74.5 -240
q0 -159 133 -159zM464 0v10l406 479h-282v9h294v-10l-406 -479h287l-4 -9h-295z" />
    <glyph glyph-name="Aringacute" unicode="&#x1fa;" horiz-adv-x="437" 
d="M392 0l-29 244h-285l-132 -244h-11l373 686h12l82 -686h-10zM362 253l-50 421l-28 -52l-201 -369h279zM329 737q-32 0 -50.5 20.5t-18.5 51.5q0 29 18.5 49.5t49.5 20.5t50 -20.5t19 -49.5q0 -30 -19 -51t-49 -21zM329 746q26 0 42.5 18t16.5 45q0 25 -17 43t-43 18
t-42.5 -17.5t-16.5 -43.5q0 -27 16.5 -45t43.5 -18zM269 879l-5 7l147 101l6 -8z" />
    <glyph glyph-name="aringacute" unicode="&#x1fb;" horiz-adv-x="454" 
d="M41 148q0 155 85 255.5t188 100.5q63 0 104 -35l-2 -10l-70 -329q-9 -41 -9 -65q0 -35 24 -63l-7 -6q-26 31 -26 70q0 24 7 58q-65 -131 -171 -131q-60 0 -91.5 42.5t-31.5 112.5zM51 148q0 -68 30 -107t85 -39q107 0 176 156l65 307q-38 30 -95 30q-97 0 -179 -97.5
t-82 -249.5zM333 577q-32 0 -50.5 20.5t-18.5 51.5q0 29 18.5 49.5t49.5 20.5t50 -20.5t19 -49.5q0 -30 -19 -51t-49 -21zM333 586q26 0 42.5 18t16.5 45q0 25 -17 43t-43 18t-42.5 -17.5t-16.5 -43.5q0 -27 16.5 -45t43.5 -18zM276 719l-5 7l147 101l6 -8z" />
    <glyph glyph-name="AEacute" unicode="&#x1fc;" horiz-adv-x="732" 
d="M322 0l51 244h-250l-191 -244h-12l539 686h332l-4 -9h-312l-67 -315h247l-1 -9h-247l-73 -344h327l-1 -9h-338zM130 253h245l90 426zM481 732l-5 7l147 101l6 -8z" />
    <glyph glyph-name="aeacute" unicode="&#x1fd;" horiz-adv-x="736" 
d="M173 -7q-69 0 -100.5 33t-31.5 79q0 166 248 166q33 0 83 -6l20 81q9 39 9 69q0 80 -88 80q-89 0 -183 -62l-4 8q93 63 189 63q44 0 70.5 -22t26.5 -66q0 -27 -9 -63q29 67 78.5 109t112.5 42q48 0 81.5 -27t33.5 -74q0 -69 -47 -107q-56 -46 -178 -46q-65 0 -103 5
q-9 -44 -9 -83q0 -76 36.5 -123t108.5 -47q71 0 138 52l6 -7q-71 -54 -146 -54q-76 0 -114 49.5t-38 128.5q0 9 2 27q-25 -101 -71.5 -153t-120.5 -52zM175 2q77 0 119 56.5t67 158.5l9 40q-60 5 -84 5q-235 0 -235 -155q0 -45 29 -75t95 -30zM591 495q-78 0 -133 -70
t-75 -161q55 -5 103 -5q114 0 168 43q45 36 45 100q0 45 -30.5 69t-77.5 24zM385 572l-5 7l147 101l6 -8z" />
    <glyph glyph-name="Oslashacute" unicode="&#x1fe;" horiz-adv-x="604" 
d="M250 -7q-98 0 -144 72l-98 -121l-7 5l101 123q-30 53 -30 143q0 119 46 245.5t138 188.5q64 43 143 43q101 0 146 -76l104 128l7 -5l-107 -131q28 -53 28 -138q0 -78 -21 -166.5t-64 -159.5q-91 -151 -242 -151zM82 215q0 -83 26 -135l430 528q-42 75 -141 75
q-73 0 -134 -40q-61 -41 -104 -121t-60 -158t-17 -149zM252 2q141 0 228 142q43 71 65 160t22 166q0 79 -25 130l-429 -527q41 -71 139 -71zM382 732l-5 7l147 101l6 -8z" />
    <glyph glyph-name="oslashacute" unicode="&#x1ff;" horiz-adv-x="474" 
d="M186 -7q-72 0 -108 46l-76 -94l-6 5l78 96q-28 42 -28 113q0 80 26 156.5t84.5 132.5t138.5 56q73 0 109 -49l79 97l7 -5l-81 -100q26 -40 26 -109q0 -80 -26 -156.5t-84.5 -132.5t-138.5 -56zM56 159q0 -66 24 -105l318 392q-34 49 -105 49q-57 0 -103.5 -31.5
t-74.5 -81.5t-43.5 -108t-15.5 -115zM188 2q57 0 103.5 31.5t74.5 81.5t43.5 108t15.5 115q0 62 -23 101l-317 -392q33 -45 103 -45zM309 572l-5 7l147 101l6 -8z" />
    <glyph glyph-name="Scommaaccent" unicode="&#x218;" horiz-adv-x="492" 
d="M177 -7q-96 0 -167 53l6 8q66 -52 163 -52q93 0 162.5 56.5t69.5 149.5q0 47 -28 78.5t-83 55.5l-63 28q-106 47 -106 132q0 93 64.5 141.5t155.5 48.5q90 0 148 -46l-6 -7q-56 44 -144 44q-85 0 -146.5 -46t-61.5 -133q0 -80 98 -124l63 -28q58 -26 88.5 -59t30.5 -84
q0 -97 -71 -156.5t-173 -59.5zM196 -74q0 -47 -37 -78l-4 5q31 29 31 64v3q-2 -1 -6 -1q-13 0 -13 14t14 14q15 0 15 -21z" />
    <glyph glyph-name="scommaaccent" unicode="&#x219;" horiz-adv-x="405" 
d="M141 -7q-79 0 -143 43l5 8q62 -42 140 -42q69 0 122 35t53 103q0 38 -17.5 61t-70.5 46l-58 25q-46 20 -67.5 41.5t-21.5 58.5q0 67 49 99.5t123 32.5q65 0 120 -38l-6 -8q-47 37 -116 37q-66 0 -113 -29.5t-47 -92.5q0 -35 20 -54.5t63 -37.5l59 -25q55 -23 74.5 -50
t19.5 -65q0 -71 -55 -109.5t-133 -38.5zM121 -147q31 29 31 64v3q-2 -1 -6 -1q-13 0 -13 14t14 14q15 0 15 -21t-7 -38q-9 -21 -30 -40z" />
    <glyph glyph-name="uni021A" unicode="&#x21a;" horiz-adv-x="402" 
d="M159 0l143 677h-201l2 9h416l-4 -9h-203l-143 -677h-10zM165 -74q0 -47 -37 -78l-4 5q31 29 31 64v3q-2 -1 -6 -1q-13 0 -13 14t14 14q15 0 15 -21z" />
    <glyph glyph-name="uni021B" unicode="&#x21b;" horiz-adv-x="236" 
d="M145 -7q-64 0 -64 68q0 21 9 64l77 364h-65l2 9h65q17 78 38 131l12 3q-22 -49 -40 -134h119l-5 -9h-116l-77 -364q-9 -45 -9 -64q0 -59 55 -59q31 0 61 12v-9q-29 -12 -62 -12zM103 -147q31 29 31 64v3q-2 -1 -6 -1q-13 0 -13 14t14 14q15 0 15 -21t-7 -38
q-9 -21 -30 -40z" />
    <glyph glyph-name="uni0237" unicode="&#x237;" horiz-adv-x="172" 
d="M-64 -162l-3 8q50 19 70.5 54.5t35.5 105.5l105 496l11 2l-107 -500q-11 -49 -20 -75t-31.5 -51.5t-60.5 -39.5z" />
    <glyph glyph-name="uni0259" unicode="&#x259;" horiz-adv-x="428" 
d="M252 247q65 0 103 -5q9 44 9 83q0 76 -36.5 123t-108.5 47q-71 0 -138 -52l-6 7q71 54 146 54q76 0 114.5 -49.5t38.5 -128.5q0 -51 -14.5 -107.5t-42 -108t-73.5 -84.5t-102 -33q-48 0 -81.5 27t-33.5 74q0 69 47 107q56 46 178 46zM145 2q78 0 132 68.5t76 162.5
q-55 5 -103 5q-114 0 -168 -43q-45 -36 -45 -100q0 -45 30.5 -69t77.5 -24z" />
    <glyph glyph-name="uni02BB" unicode="&#x2bb;" horiz-adv-x="122" 
d="M160 689l4 -5q-31 -29 -31 -64v-3q2 1 6 1q13 0 13 -14t-14 -14q-15 0 -15 21q0 47 37 78z" />
    <glyph glyph-name="afii57929" unicode="&#x2bc;" horiz-adv-x="122" 
d="M104 590l-4 5q31 29 31 64v3q-2 -1 -6 -1q-13 0 -13 14t14 14q15 0 15 -21q0 -47 -37 -78z" />
    <glyph glyph-name="circumflex" unicode="&#x2c6;" horiz-adv-x="306" 
d="M103 592l-5 7l151 97l117 -99l-6 -6l-112 93z" />
    <glyph glyph-name="caron" unicode="&#x2c7;" horiz-adv-x="308" 
d="M381 672l5 -7l-151 -97l-117 99l6 6l112 -93z" />
    <glyph glyph-name="breve" unicode="&#x2d8;" horiz-adv-x="295" 
d="M227 578q-70 0 -111 80l7 4q40 -75 106 -75q65 0 138 77l5 -6q-73 -80 -145 -80z" />
    <glyph glyph-name="dotaccent" unicode="&#x2d9;" horiz-adv-x="70" 
d="M124 597q-5 0 -9.5 4t-4.5 10t4.5 10t9.5 4q14 0 14 -14q0 -6 -4.5 -10t-9.5 -4z" />
    <glyph glyph-name="ring" unicode="&#x2da;" horiz-adv-x="181" 
d="M181 577q-32 0 -50.5 20.5t-18.5 51.5q0 29 18.5 49.5t49.5 20.5t50 -20.5t19 -49.5q0 -30 -19 -51t-49 -21zM181 586q26 0 42.5 18t16.5 45q0 25 -17 43t-43 18t-42.5 -17.5t-16.5 -43.5q0 -27 16.5 -45t43.5 -18z" />
    <glyph glyph-name="ogonek" unicode="&#x2db;" horiz-adv-x="203" 
d="M21 -197q-33 0 -50 17t-17 44q0 42 30 75t81 67l6 -5q-107 -71 -107 -137q0 -52 60 -52q28 0 58 15l3 -7q-28 -17 -64 -17z" />
    <glyph glyph-name="tilde" unicode="&#x2dc;" horiz-adv-x="297" 
d="M127 595l-4 6q34 31 69 31q25 0 55 -17.5t53 -17.5q31 0 63 28l4 -6q-31 -31 -69 -31q-25 0 -55 17.5t-53 17.5q-31 0 -63 -28z" />
    <glyph glyph-name="hungarumlaut" unicode="&#x2dd;" horiz-adv-x="270" 
d="M205 706l10 -8l-114 -126l-6 5zM306 706l10 -8l-114 -126l-6 5z" />
    <glyph glyph-name="gravecomb" unicode="&#x300;" 
d="M-102 572l-148 100l6 8l147 -101z" />
    <glyph glyph-name="acutecomb" unicode="&#x301;" 
d="M-199 572l-5 7l147 101l6 -8z" />
    <glyph glyph-name="uni0302" unicode="&#x302;" 
d="M-294 592l-5 7l151 97l117 -99l-6 -6l-112 93z" />
    <glyph glyph-name="tildecomb" unicode="&#x303;" 
d="M-267 595l-4 6q34 31 69 31q25 0 55 -17.5t53 -17.5q31 0 63 28l4 -6q-31 -31 -69 -31q-25 0 -55 17.5t-53 17.5q-31 0 -63 -28z" />
    <glyph glyph-name="uni0304" unicode="&#x304;" 
d="M-168 607l2 9h254l-2 -9h-254z" />
    <glyph glyph-name="uni0306" unicode="&#x306;" 
d="M-67 568q-70 0 -111 80l7 4q40 -75 106 -75q65 0 138 77l5 -6q-73 -80 -145 -80z" />
    <glyph glyph-name="uni0307" unicode="&#x307;" 
d="M6 597q-5 0 -9.5 4t-4.5 10t4.5 10t9.5 4q14 0 14 -14q0 -6 -4.5 -10t-9.5 -4z" />
    <glyph glyph-name="uni0308" unicode="&#x308;" 
d="M-90 597q-5 0 -9.5 4t-4.5 10t4.5 10t9.5 4q14 0 14 -14q0 -6 -4.5 -10t-9.5 -4zM18 597q-5 0 -9.5 4t-4.5 10t4.5 10t9.5 4q14 0 14 -14q0 -6 -4.5 -10t-9.5 -4z" />
    <glyph glyph-name="uni030A" unicode="&#x30a;" 
d="M1 577q-32 0 -50.5 20.5t-18.5 51.5q0 29 18.5 49.5t49.5 20.5t50 -20.5t19 -49.5q0 -30 -19 -51t-49 -21zM1 586q26 0 42.5 18t16.5 45q0 25 -17 43t-43 18t-42.5 -17.5t-16.5 -43.5q0 -27 16.5 -45t43.5 -18z" />
    <glyph glyph-name="uni030B" unicode="&#x30b;" 
d="M-179 572l-6 5l110 129l10 -8zM-78 572l-6 5l110 129l10 -8z" />
    <glyph glyph-name="uni030C" unicode="&#x30c;" 
d="M-10 672l5 -7l-151 -97l-117 99l6 6l112 -93z" />
    <glyph glyph-name="uni0312" unicode="&#x312;" 
d="M-147 647q-15 0 -15 21q0 52 47 88l4 -5q-41 -32 -41 -74v-3q2 1 6 1q13 0 13 -14t-14 -14z" />
    <glyph glyph-name="uni0313" unicode="&#x313;" 
d="M-158 577l-4 5q41 32 41 74v3q-2 -1 -6 -1q-13 0 -13 14t14 14q15 0 15 -21q0 -52 -47 -88z" />
    <glyph glyph-name="uni0326" unicode="&#x326;" 
d="M-141 -147q31 29 31 64v3q-2 -1 -6 -1q-13 0 -13 14t14 14q15 0 15 -21t-7 -38q-9 -21 -30 -40z" />
    <glyph glyph-name="uni0327" unicode="&#x327;" 
d="M-202 -197q-41 0 -67 24l6 7q24 -22 63 -22q35 0 62.5 19.5t27.5 56.5q0 46 -55 46q-18 0 -35 -4l38 70h9l-32 -60q16 2 23 2q31 0 46.5 -15t15.5 -38q0 -40 -29.5 -63t-72.5 -23z" />
    <glyph glyph-name="uni0328" unicode="&#x328;" 
d="M-181 -197q-33 0 -50 17t-17 44q0 42 30 75t81 67l6 -5q-107 -71 -107 -137q0 -52 60 -52q28 0 58 15l3 -7q-28 -17 -64 -17z" />
    <glyph glyph-name="uni037E" unicode="&#x37e;" horiz-adv-x="190" 
d="M8 -83q41 32 41 74v3q-2 -1 -6 -1q-13 0 -13 14t14 14q15 0 15 -21q0 -52 -47 -88zM108 294q-5 0 -9.5 4t-4.5 10q0 14 14 14t14 -14q0 -6 -4.5 -10t-9.5 -4z" />
    <glyph glyph-name="tonos" unicode="&#x384;" horiz-adv-x="242" 
d="M124 579h-9l60 140h10z" />
    <glyph glyph-name="dieresistonos" unicode="&#x385;" horiz-adv-x="238" 
d="M147 597q-5 0 -9.5 4t-4.5 10t4.5 10t9.5 4q14 0 14 -14q0 -6 -4.5 -10t-9.5 -4zM255 597q-5 0 -9.5 4t-4.5 10t4.5 10t9.5 4q14 0 14 -14q0 -6 -4.5 -10t-9.5 -4zM189 579h-9l60 140h10z" />
    <glyph glyph-name="Alphatonos" unicode="&#x386;" horiz-adv-x="437" 
d="M392 0l-29 244h-285l-132 -244h-11l373 686h12l82 -686h-10zM362 253l-50 421l-28 -52l-201 -369h279zM74 544h-9l60 140h10z" />
    <glyph glyph-name="anoteleia" unicode="&#x387;" horiz-adv-x="186" 
d="M120 294q-5 0 -9.5 4t-4.5 10q0 14 14 14t14 -14q0 -6 -4.5 -10t-9.5 -4z" />
    <glyph glyph-name="Epsilontonos" unicode="&#x388;" horiz-adv-x="450" 
d="M40 0l145 686h324l-4 -9h-312l-67 -315h247l-1 -9h-247l-73 -344h327l-1 -9h-338zM19 546h-9l60 140h10z" />
    <glyph glyph-name="Etatonos" unicode="&#x389;" horiz-adv-x="559" 
d="M40 0l145 686h10l-67 -316h361l67 316h10l-145 -686h-10l76 361h-361l-76 -361h-10zM34 546h-9l60 140h10z" />
    <glyph glyph-name="Iotatonos" unicode="&#x38a;" horiz-adv-x="188" 
d="M40 0l145 686h10l-145 -686h-10zM29 545h-9l60 140h10z" />
    <glyph glyph-name="Omicrontonos" unicode="&#x38c;" horiz-adv-x="604" 
d="M252 2q141 0 228 142q43 71 65 160t22 166q0 213 -170 213q-73 0 -134 -40q-61 -41 -104 -121t-60 -158t-17 -149q0 -213 170 -213zM250 -7q-64 0 -105.5 31.5t-57 79t-15.5 111.5q0 119 46 245.5t138 188.5q64 43 143 43q64 0 105.5 -31.5t57 -79t15.5 -111.5
q0 -78 -21 -166.5t-64 -159.5q-91 -151 -242 -151zM44 544h-9l60 140h10z" />
    <glyph glyph-name="Upsilontonos" unicode="&#x38e;" horiz-adv-x="458" 
d="M174 0l57 272l-133 414h10l123 -382l7 -22l14 19l288 385h12l-311 -415l-57 -271h-10zM-38 546h-9l60 140h10z" />
    <glyph glyph-name="Omegatonos" unicode="&#x38f;" horiz-adv-x="553" 
d="M288 0l1 9q65 12 116.5 64.5t80 123.5t43 141.5t14.5 131.5q0 213 -170 213q-148 0 -236 -155q-39 -70 -59 -155t-20 -158q0 -168 108 -206l-2 -9h-148l-1 9h130q-97 44 -97 206q0 78 21.5 167t64.5 160q91 150 241 150q64 0 105.5 -31.5t57 -79t15.5 -111.5
q0 -59 -14.5 -129.5t-42 -140t-74.5 -122.5t-105 -69h125l-4 -9h-150zM25 546h-9l60 140h10z" />
    <glyph glyph-name="iotadieresistonos" unicode="&#x390;" horiz-adv-x="197" 
d="M157 504l-96 -450q-3 -14 -3 -22q0 -30 29 -30q11 0 25 4l1 -8q-13 -5 -28 -5q-37 0 -37 38q0 9 4 29l94 442zM125 597q-5 0 -9.5 4t-4.5 10t4.5 10t9.5 4q14 0 14 -14q0 -6 -4.5 -10t-9.5 -4zM233 597q-5 0 -9.5 4t-4.5 10t4.5 10t9.5 4q14 0 14 -14q0 -6 -4.5 -10
t-9.5 -4zM167 579h-9l60 140h10z" />
    <glyph glyph-name="Alpha" unicode="&#x391;" horiz-adv-x="437" 
d="M392 0l-29 244h-285l-132 -244h-11l373 686h12l82 -686h-10zM362 253l-50 421l-28 -52l-201 -369h279z" />
    <glyph glyph-name="Beta" unicode="&#x392;" horiz-adv-x="513" 
d="M40 0l145 686h150q166 0 166 -127q0 -71 -48.5 -125t-143.5 -69q67 -5 110.5 -40.5t43.5 -98.5q0 -108 -72 -166q-73 -60 -213 -60h-138zM128 370h150q21 0 46.5 5t56 19t54.5 34.5t40 54.5t16 76q0 118 -156 118h-142zM51 9h132q127 0 196 53q74 57 74 163
q0 69 -53 102.5t-130 33.5h-144z" />
    <glyph glyph-name="Gamma" unicode="&#x393;" horiz-adv-x="370" 
d="M40 0l145 686h295l-4 -9h-283l-143 -677h-10z" />
    <glyph glyph-name="uni0394" unicode="&#x394;" horiz-adv-x="437" 
d="M-65 0l373 686h12l82 -686h-467zM295 642l-344 -633h440l-79 665z" />
    <glyph glyph-name="Epsilon" unicode="&#x395;" horiz-adv-x="450" 
d="M40 0l145 686h324l-4 -9h-312l-67 -315h247l-1 -9h-247l-73 -344h327l-1 -9h-338z" />
    <glyph glyph-name="Zeta" unicode="&#x396;" horiz-adv-x="498" 
d="M4 0v9l515 654l11 14h-353l4 9h360v-9l-506 -644l-19 -24h367l-3 -9h-376z" />
    <glyph glyph-name="Eta" unicode="&#x397;" horiz-adv-x="559" 
d="M40 0l145 686h10l-67 -316h361l67 316h10l-145 -686h-10l76 361h-361l-76 -361h-10z" />
    <glyph glyph-name="Theta" unicode="&#x398;" horiz-adv-x="604" 
d="M489 361h-324l2 9h326zM252 2q141 0 228 142q43 71 65 160t22 166q0 213 -170 213q-73 0 -134 -40q-61 -41 -104 -121t-60 -158t-17 -149q0 -213 170 -213zM250 -7q-64 0 -105.5 31.5t-57 79t-15.5 111.5q0 119 46 245.5t138 188.5q64 43 143 43q64 0 105.5 -31.5t57 -79
t15.5 -111.5q0 -78 -21 -166.5t-64 -159.5q-91 -151 -242 -151z" />
    <glyph glyph-name="Iota" unicode="&#x399;" horiz-adv-x="188" 
d="M40 0l145 686h10l-145 -686h-10z" />
    <glyph glyph-name="Kappa" unicode="&#x39a;" horiz-adv-x="451" 
d="M376 -3l-235 365l373 327l7 -7l-368 -321l232 -359zM40 0l145 686h10l-145 -686h-10z" />
    <glyph glyph-name="Lambda" unicode="&#x39b;" horiz-adv-x="437" 
d="M293 639l-347 -639h-11l373 686h12l82 -686h-10l-80 674z" />
    <glyph glyph-name="Mu" unicode="&#x39c;" horiz-adv-x="697" 
d="M20 0l205 686h13l63 -664l1 -10l6 12l342 662h14l-82 -686h-9l78 656l2 17l-10 -19l-338 -654h-11l-61 640l-3 32l-8 -27l-192 -645h-10z" />
    <glyph glyph-name="Nu" unicode="&#x39d;" horiz-adv-x="573" 
d="M40 0l145 686h15l221 -656l7 -21l3 14l139 663h10l-145 -686h-14l-223 663l-5 15l-4 -19l-139 -659h-10z" />
    <glyph glyph-name="Xi" unicode="&#x39e;" horiz-adv-x="498" 
d="M4 0l4 9h415l-3 -9h-416zM437 374h-293l4 9h292zM548 677h-393l4 9h392z" />
    <glyph glyph-name="Omicron" unicode="&#x39f;" horiz-adv-x="604" 
d="M252 2q141 0 228 142q43 71 65 160t22 166q0 213 -170 213q-73 0 -134 -40q-61 -41 -104 -121t-60 -158t-17 -149q0 -213 170 -213zM250 -7q-64 0 -105.5 31.5t-57 79t-15.5 111.5q0 119 46 245.5t138 188.5q64 43 143 43q64 0 105.5 -31.5t57 -79t15.5 -111.5
q0 -78 -21 -166.5t-64 -159.5q-91 -151 -242 -151z" />
    <glyph glyph-name="Pi" unicode="&#x3a0;" horiz-adv-x="559" 
d="M411 0l143 677h-361l-143 -677h-10l145 686h381l-145 -686h-10z" />
    <glyph glyph-name="Rho" unicode="&#x3a1;" horiz-adv-x="481" 
d="M40 0l145 686h124q198 0 198 -148q0 -104 -55 -164q-66 -73 -193 -73h-146l-63 -301h-10zM115 310h147q120 0 183 71q52 59 52 156q0 44 -16.5 73t-46 43t-59.5 19t-68 5h-114z" />
    <glyph glyph-name="Sigma" unicode="&#x3a3;" horiz-adv-x="441" 
d="M482 677h-314l137 -313l-290 -355h364l-2 -9h-375l1 8l291 356l-137 313l2 9h325z" />
    <glyph glyph-name="Tau" unicode="&#x3a4;" horiz-adv-x="402" 
d="M159 0l143 677h-201l2 9h416l-4 -9h-203l-143 -677h-10z" />
    <glyph glyph-name="Upsilon" unicode="&#x3a5;" horiz-adv-x="458" 
d="M174 0l57 272l-133 414h10l123 -382l7 -22l14 19l288 385h12l-311 -415l-57 -271h-10z" />
    <glyph glyph-name="Phi" unicode="&#x3a6;" horiz-adv-x="638" 
d="M412 654l-129 -606q104 0 179.5 57.5t109.5 141.5t34 182q0 97 -46.5 157t-147.5 68zM281 39l-8 -39h-10l8 39q-107 10 -156.5 70t-49.5 168q0 166 89 276t250 110l12 59h10l-12 -59q105 -9 153.5 -71t48.5 -161q0 -58 -12 -113.5t-38.5 -106t-65 -89t-95 -61
t-124.5 -22.5zM273 48l129 606q-80 0 -144 -31.5t-103 -84.5t-59.5 -120t-20.5 -141q0 -214 198 -229z" />
    <glyph glyph-name="Chi" unicode="&#x3a7;" horiz-adv-x="390" 
d="M481 686l-247 -313l147 -373h-11l-143 364l-281 -364h-12l288 373l-123 313h11l119 -304l240 304h12z" />
    <glyph glyph-name="Psi" unicode="&#x3a8;" horiz-adv-x="535" 
d="M366 686l-92 -434q97 0 160 45t87 157l49 232h10l-50 -235q-25 -118 -91.5 -163t-166.5 -45l-52 -244h-10l52 244q-81 1 -129 37t-48 109q0 31 7 63l49 234h10l-50 -238q-6 -27 -6 -57q0 -40 15 -69t41 -43.5t53.5 -20.5t59.5 -6l92 434h10z" />
    <glyph glyph-name="uni03A9" unicode="&#x3a9;" horiz-adv-x="553" 
d="M288 0l1 9q65 12 116.5 64.5t80 123.5t43 141.5t14.5 131.5q0 213 -170 213q-148 0 -236 -155q-39 -70 -59 -155t-20 -158q0 -168 108 -206l-2 -9h-148l-1 9h130q-97 44 -97 206q0 78 21.5 167t64.5 160q91 150 241 150q64 0 105.5 -31.5t57 -79t15.5 -111.5
q0 -59 -14.5 -129.5t-42 -140t-74.5 -122.5t-105 -69h125l-4 -9h-150z" />
    <glyph glyph-name="Iotadieresis" unicode="&#x3aa;" horiz-adv-x="188" 
d="M40 0l145 686h10l-145 -686h-10zM153 757q-5 0 -9.5 4t-4.5 10t4.5 10t9.5 4q14 0 14 -14q0 -6 -4.5 -10t-9.5 -4zM261 757q-5 0 -9.5 4t-4.5 10t4.5 10t9.5 4q14 0 14 -14q0 -6 -4.5 -10t-9.5 -4z" />
    <glyph glyph-name="Upsilondieresis" unicode="&#x3ab;" horiz-adv-x="458" 
d="M174 0l57 272l-133 414h10l123 -382l7 -22l14 19l288 385h12l-311 -415l-57 -271h-10zM284 757q-5 0 -9.5 4t-4.5 10t4.5 10t9.5 4q14 0 14 -14q0 -6 -4.5 -10t-9.5 -4zM392 757q-5 0 -9.5 4t-4.5 10t4.5 10t9.5 4q14 0 14 -14q0 -6 -4.5 -10t-9.5 -4z" />
    <glyph glyph-name="alphatonos" unicode="&#x3ac;" horiz-adv-x="454" 
d="M418 469l-12 -56l-72 -340q-7 -35 -7 -41q0 -30 29 -30q11 0 25 4l1 -8q-13 -5 -28 -5q-37 0 -37 38q0 8 7 43l11 50q-65 -131 -171 -131q-60 0 -91.5 42.5t-31.5 112.5q0 155 85 255.5t188 100.5q63 0 104 -35zM166 2q107 0 176 156l65 307q-38 30 -95 30
q-97 0 -179 -97.5t-82 -249.5q0 -68 30 -107t85 -39zM329 579h-9l60 140h10z" />
    <glyph glyph-name="epsilontonos" unicode="&#x3ad;" horiz-adv-x="392" 
d="M98 354q0 76 50 113t120 37q80 0 118 -51l-7 -6q-39 48 -113 48q-64 0 -111 -35.5t-47 -105.5q0 -41 29.5 -66.5t90.5 -25.5h49l-5 -9h-46q-89 0 -134 -41.5t-45 -104.5q0 -49 36.5 -77t97.5 -28q34 0 74.5 11t67.5 31l4 -7q-59 -44 -148 -44q-62 0 -102 29.5t-40 84.5
q0 61 39 102.5t110 48.5q-41 5 -64.5 32t-23.5 64zM294 579h-9l60 140h10z" />
    <glyph glyph-name="etatonos" unicode="&#x3ae;" horiz-adv-x="479" 
d="M341 62l65 306q6 29 6 45q0 37 -21 59.5t-63 22.5q-90 0 -210 -167l-69 -328h-10l86 409q10 47 10 66q0 11 -3 22l10 3q3 -10 3 -23q0 -23 -11 -72l-12 -56q21 29 39 50t46.5 48t60 42t63.5 15q43 0 67 -24.5t24 -65.5q0 -15 -7 -48l-66 -312q-3 -14 -3 -22q0 -30 29 -30
q11 0 25 4l1 -8q-13 -5 -28 -5q-37 0 -37 38q0 6 5 31zM326 579h-9l60 140h10z" />
    <glyph glyph-name="iotatonos" unicode="&#x3af;" horiz-adv-x="197" 
d="M157 504l-96 -450q-3 -14 -3 -22q0 -30 29 -30q11 0 25 4l1 -8q-13 -5 -28 -5q-37 0 -37 38q0 9 4 29l94 442zM167 579h-9l60 140h10z" />
    <glyph glyph-name="upsilondieresistonos" unicode="&#x3b0;" horiz-adv-x="454" 
d="M56 90q0 30 12 86l47 220q12 57 12 79q0 15 -3 22l10 3q3 -8 3 -21q0 -23 -13 -87l-46 -215q-12 -56 -12 -87q0 -88 108 -88q91 0 148 79q83 116 83 369q0 28 -3 48l10 2q3 -20 3 -48q0 -250 -78 -368q-60 -91 -163 -91q-118 0 -118 97zM232 597q-5 0 -9.5 4t-4.5 10
t4.5 10t9.5 4q14 0 14 -14q0 -6 -4.5 -10t-9.5 -4zM340 597q-5 0 -9.5 4t-4.5 10t4.5 10t9.5 4q14 0 14 -14q0 -6 -4.5 -10t-9.5 -4zM274 579h-9l60 140h10z" />
    <glyph glyph-name="alpha" unicode="&#x3b1;" horiz-adv-x="454" 
d="M418 469l-12 -56l-72 -340q-7 -35 -7 -41q0 -30 29 -30q11 0 25 4l1 -8q-13 -5 -28 -5q-37 0 -37 38q0 8 7 43l11 50q-65 -131 -171 -131q-60 0 -91.5 42.5t-31.5 112.5q0 155 85 255.5t188 100.5q63 0 104 -35zM166 2q107 0 176 156l65 307q-38 30 -95 30
q-97 0 -179 -97.5t-82 -249.5q0 -68 30 -107t85 -39z" />
    <glyph glyph-name="beta" unicode="&#x3b2;" horiz-adv-x="490" 
d="M66 44l-52 -242l-11 -3l153 722q43 203 187 203q57 0 89 -30.5t32 -85.5q0 -45 -14.5 -82t-34.5 -59t-46 -38t-44.5 -22t-34.5 -9q73 0 108.5 -41.5t35.5 -106.5q0 -97 -67 -177t-172 -80q-74 0 -129 51zM167 524l-99 -470q55 -52 129 -52q100 0 163.5 78t63.5 170
q0 63 -34.5 102t-108.5 39h-50l2 9h15q27 0 59.5 10.5t66.5 32.5t57 65t23 100q0 51 -29.5 79t-84.5 28q-132 0 -173 -191z" />
    <glyph glyph-name="gamma" unicode="&#x3b3;" horiz-adv-x="371" 
d="M72 -201q45 233 45 414q0 210 -59 285l11 4q58 -75 58 -282q0 -97 -13 -209q207 247 260 489l9 -2q-26 -127 -97.5 -257.5t-172.5 -243.5q-12 -103 -31 -195z" />
    <glyph glyph-name="delta" unicode="&#x3b4;" horiz-adv-x="481" 
d="M415 257q0 63 -31 110.5t-83 95.5q-106 -34 -175.5 -116t-69.5 -188q0 -68 37 -112.5t110 -44.5q91 0 151.5 78t60.5 177zM306 471q36 -33 57 -56.5t41.5 -67t20.5 -90.5q0 -108 -65 -186t-159 -78q-78 0 -116.5 48t-38.5 118q0 111 72.5 194t175.5 116q-47 42 -69 73
t-22 61q0 49 40 84.5t108 35.5q59 0 136 -32l-6 -9q-72 32 -133 32q-67 0 -101 -35t-34 -76q0 -28 21.5 -57t71.5 -75z" />
    <glyph glyph-name="epsilon" unicode="&#x3b5;" horiz-adv-x="392" 
d="M98 354q0 76 50 113t120 37q80 0 118 -51l-7 -6q-39 48 -113 48q-64 0 -111 -35.5t-47 -105.5q0 -41 29.5 -66.5t90.5 -25.5h49l-5 -9h-46q-89 0 -134 -41.5t-45 -104.5q0 -49 36.5 -77t97.5 -28q34 0 74.5 11t67.5 31l4 -7q-59 -44 -148 -44q-62 0 -102 29.5t-40 84.5
q0 61 39 102.5t110 48.5q-41 5 -64.5 32t-23.5 64z" />
    <glyph glyph-name="zeta" unicode="&#x3b6;" horiz-adv-x="348" 
d="M211 718h237l-3 -11q-167 -119 -267 -237t-117 -244q-5 -37 -5 -61q0 -57 34.5 -85t118.5 -46q49 -10 49 -46q0 -72 -90 -129l-6 8q35 21 60.5 53.5t25.5 64.5q0 18 -10 26.5t-33 13.5q-82 18 -120.5 47t-38.5 92q0 32 5 64q19 122 111.5 238.5t271.5 242.5h-225z" />
    <glyph glyph-name="eta" unicode="&#x3b7;" horiz-adv-x="479" 
d="M341 62l65 306q6 29 6 45q0 37 -21 59.5t-63 22.5q-90 0 -210 -167l-69 -328h-10l86 409q10 47 10 66q0 11 -3 22l10 3q3 -10 3 -23q0 -23 -11 -72l-12 -56q21 29 39 50t46.5 48t60 42t63.5 15q43 0 67 -24.5t24 -65.5q0 -15 -7 -48l-66 -312q-3 -14 -3 -22q0 -30 29 -30
q11 0 25 4l1 -8q-13 -5 -28 -5q-37 0 -37 38q0 6 5 31z" />
    <glyph glyph-name="theta" unicode="&#x3b8;" horiz-adv-x="451" 
d="M79 363q41 160 74 227q66 134 173 134q55 0 87 -43t32 -124t-24 -194q-40 -189 -98 -279.5t-152 -90.5q-55 0 -86 42.5t-31 123.5q0 43 8.5 107t16.5 97zM173 2q82 0 140 85t97 273h-322q-25 -117 -25 -197q0 -81 29.5 -121t80.5 -40zM324 715q-39 0 -71.5 -20t-55 -49
t-43.5 -79.5t-34 -92t-30 -105.5h322q23 112 23 184q0 82 -30 122t-81 40z" />
    <glyph glyph-name="iota" unicode="&#x3b9;" horiz-adv-x="197" 
d="M157 504l-96 -450q-3 -14 -3 -22q0 -30 29 -30q11 0 25 4l1 -8q-13 -5 -28 -5q-37 0 -37 38q0 9 4 29l94 442z" />
    <glyph glyph-name="kappa" unicode="&#x3ba;" horiz-adv-x="378" 
d="M331 -3l-209 276l283 228l6 -7l-276 -222l204 -271zM134 397l-84 -397h-10l85 401q11 55 11 81q0 10 -2 20l10 3q2 -10 2 -22q0 -27 -12 -86z" />
    <glyph glyph-name="lambda" unicode="&#x3bb;" horiz-adv-x="422" 
d="M270 484l6 -4l-16 167q-7 68 -58 68q-23 0 -45 -15l-5 8q24 16 52 16q58 0 65 -73l58 -594q4 -35 11.5 -45t24.5 -10q10 0 24 4l1 -8q-12 -5 -27 -5q-21 0 -30.5 12.5t-13.5 47.5l-40 424h-1q-12 -31 -36 -74l-226 -405l-8 4l226 407q26 46 38 75z" />
    <glyph glyph-name="uni03BC" unicode="&#x3bc;" horiz-adv-x="472" 
d="M405 -2q-13 -5 -27 -5q-37 0 -37 39q0 15 4 32l13 60q-24 -48 -75 -89.5t-110 -41.5q-42 0 -70 21.5t-39 48.5l-56 -261l-10 -3l149 703l11 2l-85 -398l-6 -28q31 -76 108 -76q64 0 122 56.5t70 112.5l69 331l11 2l-92 -436q-5 -22 -5 -35q0 -31 29 -31q14 0 25 4z" />
    <glyph glyph-name="nu" unicode="&#x3bd;" horiz-adv-x="391" 
d="M131 -5h-10l-49 502l11 2l42 -449l4 -44h1q88 103 162.5 237t100.5 259h10q-26 -125 -102.5 -264t-169.5 -243z" />
    <glyph glyph-name="xi" unicode="&#x3be;" horiz-adv-x="374" 
d="M433 709h-79q-90 0 -141 -54t-51 -130q0 -47 25.5 -76t72.5 -29h86l-2 -9h-78q-101 0 -152.5 -55t-51.5 -159q0 -38 9.5 -66t22 -43.5t36 -27.5t39.5 -16t45 -10q51 -10 51 -51q0 -63 -90 -124l-5 6q85 62 85 117q0 19 -11 29.5t-39 15.5q-26 5 -44 10t-40.5 17t-36 28.5
t-23 46t-9.5 68.5q0 93 44 152t127 67q-71 24 -71 109q0 68 37.5 118t103.5 66h-124l2 9h264z" />
    <glyph glyph-name="omicron" unicode="&#x3bf;" horiz-adv-x="474" 
d="M186 -7q-74 0 -107 46t-33 120q0 80 26 156.5t84.5 132.5t138.5 56q74 0 107 -46t33 -120q0 -80 -26 -156.5t-84.5 -132.5t-138.5 -56zM188 2q57 0 103.5 31.5t74.5 81.5t43.5 108t15.5 115q0 157 -132 157q-57 0 -103.5 -31.5t-74.5 -81.5t-43.5 -108t-15.5 -115
q0 -157 132 -157z" />
    <glyph glyph-name="pi" unicode="&#x3c0;" horiz-adv-x="472" 
d="M340 0h-10q20 179 84 489h-225q-38 -184 -123 -452q-6 -17 -17 -37h-11q12 20 22 49q80 256 119 440h-29q-63 0 -97 -17v10q30 16 103 16h370l-5 -9h-97q-67 -319 -84 -489z" />
    <glyph glyph-name="rho" unicode="&#x3c1;" horiz-adv-x="468" 
d="M-1 -198l-11 -3l113 525q39 180 192 180q61 0 98.5 -39.5t37.5 -119.5q0 -88 -27.5 -166.5t-85.5 -132t-135 -53.5q-75 0 -130 51zM290 495q-60 0 -109 -37t-69 -129l-59 -275q52 -52 130 -52q72 0 127.5 52t82 128.5t26.5 160.5q0 79 -35 115.5t-94 36.5z" />
    <glyph glyph-name="sigma1" unicode="&#x3c2;" horiz-adv-x="378" 
d="M284 495q-67 0 -125 -58.5t-85 -144.5q-18 -57 -18 -103q0 -67 36.5 -101t117.5 -49q50 -10 65 -23t15 -36q0 -31 -26.5 -64t-63.5 -57l-5 6q85 60 85 115q0 21 -14 31.5t-58 18.5q-80 14 -121 50t-41 114q0 44 19 103q29 88 88.5 147.5t132.5 59.5q54 0 102 -40l-5 -8
q-43 39 -99 39z" />
    <glyph glyph-name="sigma" unicode="&#x3c3;" horiz-adv-x="479" 
d="M500 489h-135q77 -47 77 -143q0 -55 -15.5 -114t-45 -114t-80.5 -90t-115 -35q-140 0 -140 170q0 70 24 138t60 113q67 84 185 84h190zM351 489h-38q-113 0 -176 -80q-34 -43 -57.5 -110.5t-23.5 -135.5q0 -161 132 -161q72 0 129.5 52t86 130t28.5 162q0 93 -81 143z
" />
    <glyph glyph-name="tau" unicode="&#x3c4;" horiz-adv-x="336" 
d="M122 125l77 364h-64q-63 0 -97 -17v10q30 16 103 16h249l-5 -9h-176l-77 -364q-9 -45 -9 -64q0 -59 55 -59q31 0 61 12v-9q-29 -12 -62 -12q-63 0 -63 68q0 26 8 64z" />
    <glyph glyph-name="upsilon" unicode="&#x3c5;" horiz-adv-x="454" 
d="M56 90q0 30 12 86l47 220q12 57 12 79q0 15 -3 22l10 3q3 -8 3 -21q0 -23 -13 -87l-46 -215q-12 -56 -12 -87q0 -88 108 -88q91 0 148 79q83 116 83 369q0 28 -3 48l10 2q3 -20 3 -48q0 -250 -78 -368q-60 -91 -163 -91q-118 0 -118 97z" />
    <glyph glyph-name="phi" unicode="&#x3c6;" horiz-adv-x="564" 
d="M249 -5l-41 -193l-11 -3l42 196q-38 0 -70.5 8t-61 26t-45 50.5t-16.5 77.5q0 92 47.5 186.5t119.5 156.5l5 -7q-67 -58 -114.5 -151t-47.5 -183q0 -81 51.5 -118t133.5 -37l69 327q18 88 47 129t83 41q39 0 66 -25.5t37 -66.5q7 -28 7 -71q0 -133 -61 -230
q-41 -65 -99 -88.5t-141 -24.5zM251 4q163 2 230 110q59 96 59 222q0 45 -6 68q-22 88 -96 88q-48 0 -74.5 -39.5t-41.5 -111.5z" />
    <glyph glyph-name="chi" unicode="&#x3c7;" horiz-adv-x="342" 
d="M384 498l-191 -224l127 -274h-11l-124 267l-229 -267h-13l238 277l-103 221h11l100 -214l182 214h13z" />
    <glyph glyph-name="psi" unicode="&#x3c8;" horiz-adv-x="558" 
d="M224 2l134 629h10l-134 -629q93 0 157.5 55.5t93.5 193.5q24 112 24 206q0 19 -2 41l10 3q2 -13 2 -46q0 -89 -24 -202q-31 -146 -97 -203t-166 -57l-40 -191l-11 -3l41 194q-166 2 -166 123q0 24 6 50l49 230q12 57 12 80q0 12 -3 21l10 3q3 -8 3 -21q0 -23 -13 -87
l-49 -230q-5 -28 -5 -45q0 -115 158 -115z" />
    <glyph glyph-name="omega" unicode="&#x3c9;" horiz-adv-x="570" 
d="M259 121l44 206h10l-44 -206q-3 -15 -3 -33q0 -86 74 -86q51 0 89 44.5t56.5 111t27 123.5t8.5 101q0 58 -13 117l10 3q13 -54 13 -116q0 -36 -4.5 -80t-17.5 -101.5t-33.5 -103t-56.5 -77t-81 -31.5q-41 0 -60.5 25t-20.5 65q-40 -90 -114 -90q-35 0 -57 21t-29.5 48
t-7.5 61q0 180 123 379l10 -3q-53 -80 -88 -181t-35 -193q0 -49 18.5 -86t63.5 -37q48 0 77.5 35.5t40.5 83.5z" />
    <glyph glyph-name="iotadieresis" unicode="&#x3ca;" horiz-adv-x="197" 
d="M157 504l-96 -450q-3 -14 -3 -22q0 -30 29 -30q11 0 25 4l1 -8q-13 -5 -28 -5q-37 0 -37 38q0 9 4 29l94 442zM121 597q-5 0 -9.5 4t-4.5 10t4.5 10t9.5 4q14 0 14 -14q0 -6 -4.5 -10t-9.5 -4zM229 597q-5 0 -9.5 4t-4.5 10t4.5 10t9.5 4q14 0 14 -14q0 -6 -4.5 -10
t-9.5 -4z" />
    <glyph glyph-name="upsilondieresis" unicode="&#x3cb;" horiz-adv-x="454" 
d="M56 90q0 30 12 86l47 220q12 57 12 79q0 15 -3 22l10 3q3 -8 3 -21q0 -23 -13 -87l-46 -215q-12 -56 -12 -87q0 -88 108 -88q91 0 148 79q83 116 83 369q0 28 -3 48l10 2q3 -20 3 -48q0 -250 -78 -368q-60 -91 -163 -91q-118 0 -118 97zM227 597q-5 0 -9.5 4t-4.5 10
t4.5 10t9.5 4q14 0 14 -14q0 -6 -4.5 -10t-9.5 -4zM335 597q-5 0 -9.5 4t-4.5 10t4.5 10t9.5 4q14 0 14 -14q0 -6 -4.5 -10t-9.5 -4z" />
    <glyph glyph-name="omicrontonos" unicode="&#x3cc;" horiz-adv-x="474" 
d="M186 -7q-74 0 -107 46t-33 120q0 80 26 156.5t84.5 132.5t138.5 56q74 0 107 -46t33 -120q0 -80 -26 -156.5t-84.5 -132.5t-138.5 -56zM188 2q57 0 103.5 31.5t74.5 81.5t43.5 108t15.5 115q0 157 -132 157q-57 0 -103.5 -31.5t-74.5 -81.5t-43.5 -108t-15.5 -115
q0 -157 132 -157zM307 579h-9l60 140h10z" />
    <glyph glyph-name="upsilontonos" unicode="&#x3cd;" horiz-adv-x="454" 
d="M56 90q0 30 12 86l47 220q12 57 12 79q0 15 -3 22l10 3q3 -8 3 -21q0 -23 -13 -87l-46 -215q-12 -56 -12 -87q0 -88 108 -88q91 0 148 79q83 116 83 369q0 28 -3 48l10 2q3 -20 3 -48q0 -250 -78 -368q-60 -91 -163 -91q-118 0 -118 97zM285 579h-9l60 140h10z" />
    <glyph glyph-name="omegatonos" unicode="&#x3ce;" horiz-adv-x="570" 
d="M259 121l44 206h10l-44 -206q-3 -15 -3 -33q0 -86 74 -86q51 0 89 44.5t56.5 111t27 123.5t8.5 101q0 58 -13 117l10 3q13 -54 13 -116q0 -36 -4.5 -80t-17.5 -101.5t-33.5 -103t-56.5 -77t-81 -31.5q-41 0 -60.5 25t-20.5 65q-40 -90 -114 -90q-35 0 -57 21t-29.5 48
t-7.5 61q0 180 123 379l10 -3q-53 -80 -88 -181t-35 -193q0 -49 18.5 -86t63.5 -37q48 0 77.5 35.5t40.5 83.5zM357 579h-9l60 140h10z" />
    <glyph glyph-name="uni03D0" unicode="&#x3d0;" horiz-adv-x="465" 
d="M53 358q10 45 22.5 87t36.5 95t53 91.5t73 65.5t95 27q49 0 77.5 -26.5t28.5 -75.5q0 -74 -49.5 -131.5t-127.5 -94.5q138 -7 138 -140q0 -26 -7 -61q-17 -86 -76 -144t-145 -58q-142 0 -142 179q0 74 23 186zM63 358q-23 -109 -23 -185q0 -171 134 -171q79 0 135 55.5
t74 137.5q7 35 7 60q0 134 -145 134q-30 -11 -55 -18l1 9q91 23 164.5 88.5t73.5 149.5q0 97 -99 97q-46 0 -86.5 -25t-68.5 -62t-51.5 -87t-37 -94t-23.5 -89z" />
    <glyph glyph-name="theta1" unicode="&#x3d1;" horiz-adv-x="458" 
d="M75 192q11 51 11 70q0 12 -3 22l10 3q3 -11 3 -23q0 -22 -11 -73q-11 -50 -11 -85q0 -104 119 -104q60 0 105.5 47t71 118t45.5 174q-281 46 -281 200q0 85 46.5 134t117.5 49q79 0 117 -48.5t38 -119.5q0 -61 -11 -123q-12 -67 -22 -115t-25.5 -102.5t-34 -91.5
t-42.5 -68.5t-56 -47t-71 -15.5q-63 0 -95 29.5t-32 82.5q0 37 11 87zM417 349q26 132 26 203t-34.5 117t-113.5 46q-64 0 -107.5 -47.5t-43.5 -126.5q0 -38 18 -69t44.5 -50.5t66 -35t71.5 -23t73 -14.5z" />
    <glyph glyph-name="Upsilon1" unicode="&#x3d2;" horiz-adv-x="437" 
d="M240 322l-69 -322h-10l69 322q9 43 9 87q0 182 -144 277l5 8q149 -96 149 -285q0 -16 -1 -22q69 196 278 307l5 -8q-114 -59 -189.5 -151t-101.5 -213z" />
    <glyph glyph-name="uni03D3" unicode="&#x3d3;" horiz-adv-x="437" 
d="M240 322l-69 -322h-10l69 322q9 43 9 87q0 182 -144 277l5 8q149 -96 149 -285q0 -16 -1 -22q69 196 278 307l5 -8q-114 -59 -189.5 -151t-101.5 -213zM-30 548h-9l60 140h10z" />
    <glyph glyph-name="uni03D4" unicode="&#x3d4;" horiz-adv-x="437" 
d="M240 322l-69 -322h-10l69 322q9 43 9 87q0 182 -144 277l5 8q149 -96 149 -285q0 -16 -1 -22q69 196 278 307l5 -8q-114 -59 -189.5 -151t-101.5 -213zM272 757q-5 0 -9.5 4t-4.5 10t4.5 10t9.5 4q14 0 14 -14q0 -6 -4.5 -10t-9.5 -4zM380 757q-5 0 -9.5 4t-4.5 10
t4.5 10t9.5 4q14 0 14 -14q0 -6 -4.5 -10t-9.5 -4z" />
    <glyph glyph-name="phi1" unicode="&#x3d5;" horiz-adv-x="564" 
d="M223 2l105 493q-125 0 -198.5 -94.5t-73.5 -236.5q0 -162 167 -162zM338 495l-105 -493q128 0 205 91t77 227q0 80 -44 127.5t-133 47.5zM367 631l-27 -127q90 0 137.5 -48.5t47.5 -133.5q0 -140 -78.5 -234.5t-215.5 -94.5l-41 -191l-10 -3l41 194q-87 0 -131 43.5
t-44 125.5q0 152 77 247t207 95l27 127h10z" />
    <glyph glyph-name="uni0400" unicode="&#x400;" horiz-adv-x="450" 
d="M40 0l145 686h324l-4 -9h-312l-67 -315h247l-1 -9h-247l-73 -344h327l-1 -9h-338zM397 732l-148 100l6 8l147 -101z" />
    <glyph glyph-name="afii10023" unicode="&#x401;" horiz-adv-x="450" 
d="M40 0l145 686h324l-4 -9h-312l-67 -315h247l-1 -9h-247l-73 -344h327l-1 -9h-338zM293 757q-5 0 -9.5 4t-4.5 10t4.5 10t9.5 4q14 0 14 -14q0 -6 -4.5 -10t-9.5 -4zM401 757q-5 0 -9.5 4t-4.5 10t4.5 10t9.5 4q14 0 14 -14q0 -6 -4.5 -10t-9.5 -4z" />
    <glyph glyph-name="afii10051" unicode="&#x402;" horiz-adv-x="577" 
d="M515 677h-213l-65 -305q77 33 162 33q82 0 110 -35.5t28 -99.5q0 -54 -20.5 -118.5t-53.5 -100.5q-25 -27 -62.5 -42.5t-74.5 -15.5q-60 0 -108 28l4 8l15 -7q43 -20 90 -20q78 0 129 55q32 35 51.5 100t19.5 113q0 58 -25.5 92t-104.5 34q-84 0 -162 -33l-77 -363h-10
l144 677h-191l2 9h416z" />
    <glyph glyph-name="afii10052" unicode="&#x403;" horiz-adv-x="390" 
d="M40 0l145 686h295l-4 -9h-283l-143 -677h-10zM270 732l-5 7l147 101l6 -8z" />
    <glyph glyph-name="afii10053" unicode="&#x404;" horiz-adv-x="507" 
d="M433 55l4 -8q-81 -54 -168 -54q-100 0 -149 60.5t-49 161.5q0 71 21 150.5t60.5 154t107 123.5t150.5 49q90 0 144 -50l-6 -7q-49 48 -138 48q-61 0 -114 -28t-90.5 -75.5t-63.5 -102.5t-41 -116h293l-2 -9h-293q-18 -73 -18 -137q0 -98 47 -155.5t143 -57.5q83 0 162 53
z" />
    <glyph glyph-name="afii10054" unicode="&#x405;" horiz-adv-x="492" 
d="M177 -7q-96 0 -167 53l6 8q66 -52 163 -52q93 0 162.5 56.5t69.5 149.5q0 47 -28 78.5t-83 55.5l-63 28q-106 47 -106 132q0 93 64.5 141.5t155.5 48.5q90 0 148 -46l-6 -7q-56 44 -144 44q-85 0 -146.5 -46t-61.5 -133q0 -80 98 -124l63 -28q58 -26 88.5 -59t30.5 -84
q0 -97 -71 -156.5t-173 -59.5z" />
    <glyph glyph-name="afii10055" unicode="&#x406;" horiz-adv-x="188" 
d="M40 0l145 686h10l-145 -686h-10z" />
    <glyph glyph-name="afii10056" unicode="&#x407;" horiz-adv-x="188" 
d="M40 0l145 686h10l-145 -686h-10zM136 757q-5 0 -9.5 4t-4.5 10t4.5 10t9.5 4q14 0 14 -14q0 -6 -4.5 -10t-9.5 -4zM244 757q-5 0 -9.5 4t-4.5 10t4.5 10t9.5 4q14 0 14 -14q0 -6 -4.5 -10t-9.5 -4z" />
    <glyph glyph-name="afii10057" unicode="&#x408;" horiz-adv-x="219" 
d="M-71 -121l-4 8q81 26 116 72q18 24 28 52.5t26 103.5l121 571h10l-121 -571q-16 -75 -26 -105.5t-30 -56.5q-36 -46 -120 -74z" />
    <glyph glyph-name="afii10058" unicode="&#x409;" horiz-adv-x="827" 
d="M466 381h130q102 0 150 -49q41 -43 41 -120q0 -103 -75 -161q-66 -51 -173 -51h-164l143 677h-263l-59 -225q-18 -70 -40 -144t-57.5 -166.5t-60.5 -117.5q-23 -23 -62 -28l-15 -2l-1 10l14 2q36 5 56 25q63 61 175 491l43 164h282zM777 212q0 75 -39 114q-45 46 -143 46
h-131l-77 -363h153q110 0 175 57q62 54 62 146z" />
    <glyph glyph-name="afii10059" unicode="&#x40a;" horiz-adv-x="868" 
d="M500 375h137q102 0 150 -49q41 -43 41 -117q0 -102 -75 -160q-63 -49 -173 -49h-169l77 366h-361l-77 -366h-10l145 686h10l-66 -311h361l66 311h10zM818 209q0 72 -39 111q-45 46 -143 46h-138l-75 -357h158q113 0 175 55q62 54 62 145z" />
    <glyph glyph-name="afii10060" unicode="&#x40b;" horiz-adv-x="611" 
d="M515 677h-213l-65 -305q77 33 156 33q151 0 151 -127q0 -24 -7 -61l-46 -217h-10l46 217q7 32 7 61q0 118 -141 118q-75 0 -158 -33l-77 -363h-10l144 677h-191l2 9h416z" />
    <glyph glyph-name="afii10061" unicode="&#x40c;" horiz-adv-x="513" 
d="M562 695l1 -10l-29 -4q-44 -6 -64 -29.5t-43 -78.5l-41 -100q-20 -47 -42 -73.5t-58 -32.5l-1 -2q49 -18 53 -104l5 -138q1 -26 1.5 -36t4 -27.5t9.5 -25t17.5 -15t29.5 -10.5l27 -4l-4 -10l-23 3q-20 3 -33.5 10t-21 15.5t-11.5 26.5t-5 32t-2 42l-3 111q0 22 -1 34.5
t-5.5 32.5t-12 31.5t-23 20t-37.5 8.5h-123l-77 -361h-10l146 686h10l-68 -316h123q52 0 78.5 27.5t49.5 83.5l44 108q19 47 42.5 71t65.5 30zM298 753l-5 7l147 101l6 -8z" />
    <glyph glyph-name="uni040D" unicode="&#x40d;" horiz-adv-x="569" 
d="M40 0l145 686h10l-124 -585l-18 -85h2l57 77l451 593h13l-145 -686h-10l124 585l18 85h-2l-57 -77l-451 -593h-13zM448 754l-148 100l6 8l147 -101z" />
    <glyph glyph-name="afii10062" unicode="&#x40e;" horiz-adv-x="433" 
d="M125 686l101 -484l266 484h11l-280 -509q-6 -11 -19 -34.5t-18 -33t-15 -26.5t-16 -25.5t-13.5 -18t-15.5 -15.5q-27 -21 -80 -29l-15 -2l-1 10l14 2q53 8 74 25q25 20 82 124l24 44l-8 -1l-101 489h10zM439 844l7 -6q-63 -86 -153 -86t-118 87l8 5q27 -82 110 -82
q85 0 146 82z" />
    <glyph glyph-name="afii10145" unicode="&#x40f;" horiz-adv-x="548" 
d="M402 9l143 677h10l-145 -686h-180l-38 -182h-10l38 182h-180l145 686h10l-143 -677h350z" />
    <glyph glyph-name="afii10017" unicode="&#x410;" horiz-adv-x="437" 
d="M392 0l-29 244h-285l-132 -244h-11l373 686h12l82 -686h-10zM362 253l-50 421l-28 -52l-201 -369h279z" />
    <glyph glyph-name="afii10018" unicode="&#x411;" horiz-adv-x="505" 
d="M131 381h135q102 0 150 -49q41 -43 41 -120q0 -103 -75 -161q-66 -51 -173 -51h-169l145 686h305l-4 -9h-293zM447 212q0 75 -39 114q-45 46 -143 46h-136l-77 -363h158q111 0 175 57q62 54 62 146z" />
    <glyph glyph-name="afii10019" unicode="&#x412;" horiz-adv-x="513" 
d="M40 0l145 686h150q166 0 166 -127q0 -71 -48.5 -125t-143.5 -69q67 -5 110.5 -40.5t43.5 -98.5q0 -108 -72 -166q-73 -60 -213 -60h-138zM128 370h150q21 0 46.5 5t56 19t54.5 34.5t40 54.5t16 76q0 118 -156 118h-142zM51 9h132q127 0 196 53q74 57 74 163
q0 69 -53 102.5t-130 33.5h-144z" />
    <glyph glyph-name="afii10020" unicode="&#x413;" horiz-adv-x="390" 
d="M40 0l145 686h295l-4 -9h-283l-143 -677h-10z" />
    <glyph glyph-name="afii10021" unicode="&#x414;" horiz-adv-x="546" 
d="M-22 0l-38 -182h-10l40 191h34q50 79 89 162q89 186 148 411l27 104h280l-143 -677h40l-40 -191h-10l38 182h-455zM15 9h380l141 668h-261l-28 -108q-43 -162 -98 -296q-59 -144 -134 -264z" />
    <glyph glyph-name="afii10022" unicode="&#x415;" horiz-adv-x="450" 
d="M40 0l145 686h324l-4 -9h-312l-67 -315h247l-1 -9h-247l-73 -344h327l-1 -9h-338z" />
    <glyph glyph-name="afii10024" unicode="&#x416;" horiz-adv-x="808" 
d="M857 694l1 -10l-29 -4q-44 -6 -64 -29.5t-43 -78.5l-41 -100q-20 -47 -42 -73.5t-58 -32.5l-1 -2q49 -18 53 -104l5 -138q1 -26 1.5 -36t4 -27.5t9.5 -25t17.5 -15t29.5 -10.5l27 -4l-4 -10l-23 3q-20 3 -33.5 10t-21 15.5t-11.5 26.5t-5 32t-2 42l-3 111q0 22 -1 34.5
t-5.5 32.5t-12 31.5t-23 20t-37.5 8.5h-113l-77 -361h-10l77 361h-109q-53 0 -82 -27t-51 -80l-54 -130q-28 -68 -51 -94t-76 -33l-23 -3l-1 10l28 4q44 6 66 32t45 82l57 138q40 95 105 105l1 2q-54 15 -56 105l-2 108q0 24 -0.5 33t-3.5 24.5t-9 21.5t-17.5 12t-29.5 9
l-27 4l5 10l27 -4q43 -6 53.5 -28t11.5 -80l2 -101q1 -33 5.5 -54.5t24 -39t53.5 -17.5h110l67 316h10l-68 -316h113q52 0 78.5 27.5t49.5 83.5l44 108q19 47 42.5 71t65.5 30z" />
    <glyph glyph-name="afii10025" unicode="&#x417;" horiz-adv-x="437" 
d="M182 351h-24l2 9h22q101 0 167 55.5t66 135.5q0 58 -35.5 95t-99.5 37q-92 0 -171 -56l-4 8q83 57 175 57q68 0 106.5 -39.5t38.5 -101.5q0 -44 -19 -81t-49 -60t-61 -36.5t-60 -16.5l-1 -2q69 -5 110.5 -42t41.5 -102q0 -102 -74 -160t-175 -58q-100 0 -163 52l6 7
q59 -50 157 -50q97 0 168 56.5t71 152.5q0 74 -53.5 107t-141.5 33z" />
    <glyph glyph-name="afii10026" unicode="&#x418;" horiz-adv-x="569" 
d="M40 0l145 686h10l-124 -585l-18 -85h2l57 77l451 593h13l-145 -686h-10l124 585l18 85h-2l-57 -77l-451 -593h-13z" />
    <glyph glyph-name="afii10027" unicode="&#x419;" horiz-adv-x="569" 
d="M40 0l145 686h10l-124 -585l-18 -85h2l57 77l451 593h13l-145 -686h-10l124 585l18 85h-2l-57 -77l-451 -593h-13zM517 844l7 -6q-63 -86 -153 -86t-118 87l8 5q27 -82 110 -82q85 0 146 82z" />
    <glyph glyph-name="afii10028" unicode="&#x41a;" horiz-adv-x="513" 
d="M562 694l1 -10l-29 -4q-44 -6 -64 -29.5t-43 -78.5l-41 -100q-20 -47 -42 -73.5t-58 -32.5l-1 -2q49 -18 53 -104l5 -138q1 -26 1.5 -36t4 -27.5t9.5 -25t17.5 -15t29.5 -10.5l27 -4l-4 -10l-23 3q-20 3 -33.5 10t-21 15.5t-11.5 26.5t-5 32t-2 42l-3 111q0 22 -1 34.5
t-5.5 32.5t-12 31.5t-23 20t-37.5 8.5h-123l-77 -361h-10l146 686h10l-68 -316h123q52 0 78.5 27.5t49.5 83.5l44 108q19 47 42.5 71t65.5 30z" />
    <glyph glyph-name="afii10029" unicode="&#x41b;" horiz-adv-x="528" 
d="M535 686l-146 -686h-10l144 677h-268l-59 -225q-18 -70 -40 -144t-57.5 -166.5t-60.5 -117.5q-23 -23 -62 -28l-15 -2l-1 10l14 2q36 5 56 25q63 61 175 491l43 164h287z" />
    <glyph glyph-name="afii10030" unicode="&#x41c;" horiz-adv-x="697" 
d="M20 0l205 686h13l63 -664l1 -10l6 12l342 662h14l-82 -686h-9l78 656l2 17l-10 -19l-338 -654h-11l-61 640l-3 32l-8 -27l-192 -645h-10z" />
    <glyph glyph-name="afii10031" unicode="&#x41d;" horiz-adv-x="559" 
d="M40 0l145 686h10l-67 -316h361l67 316h10l-145 -686h-10l76 361h-361l-76 -361h-10z" />
    <glyph glyph-name="afii10032" unicode="&#x41e;" horiz-adv-x="604" 
d="M252 2q141 0 228 142q43 71 65 160t22 166q0 213 -170 213q-73 0 -134 -40q-61 -41 -104 -121t-60 -158t-17 -149q0 -213 170 -213zM250 -7q-64 0 -105.5 31.5t-57 79t-15.5 111.5q0 119 46 245.5t138 188.5q64 43 143 43q64 0 105.5 -31.5t57 -79t15.5 -111.5
q0 -78 -21 -166.5t-64 -159.5q-91 -151 -242 -151z" />
    <glyph glyph-name="afii10033" unicode="&#x41f;" horiz-adv-x="549" 
d="M401 0l143 677h-351l-143 -677h-10l145 686h371l-145 -686h-10z" />
    <glyph glyph-name="afii10034" unicode="&#x420;" horiz-adv-x="481" 
d="M40 0l145 686h124q198 0 198 -148q0 -104 -55 -164q-66 -73 -193 -73h-146l-63 -301h-10zM115 310h147q120 0 183 71q52 59 52 156q0 44 -16.5 73t-46 43t-59.5 19t-68 5h-114z" />
    <glyph glyph-name="afii10035" unicode="&#x421;" horiz-adv-x="494" 
d="M432 47q-80 -54 -167 -54q-103 0 -148.5 61t-45.5 161q0 55 11.5 116.5t37.5 126.5t63.5 116.5t94.5 84.5t125 33q85 0 138 -50l-7 -7q-49 48 -133 48q-65 0 -120 -33t-91 -84t-61.5 -114.5t-36.5 -124t-11 -112.5q0 -44 9.5 -80.5t30 -67.5t57.5 -48t89 -17q85 0 161 52
z" />
    <glyph glyph-name="afii10036" unicode="&#x422;" horiz-adv-x="402" 
d="M159 0l143 677h-201l2 9h416l-4 -9h-203l-143 -677h-10z" />
    <glyph glyph-name="afii10037" unicode="&#x423;" horiz-adv-x="433" 
d="M125 686l101 -484l266 484h11l-280 -509q-6 -11 -19 -34.5t-18 -33t-15 -26.5t-16 -25.5t-13.5 -18t-15.5 -15.5q-27 -21 -80 -29l-15 -2l-1 10l14 2q53 8 74 25q25 20 82 124l24 44l-8 -1l-101 489h10z" />
    <glyph glyph-name="afii10038" unicode="&#x424;" horiz-adv-x="630" 
d="M256 0l22 107q-94 9 -152.5 67.5t-58.5 161.5q0 142 89 220t233 73l21 97h10l-21 -97q96 -8 153.5 -68.5t57.5 -161.5q0 -140 -87.5 -217.5t-234.5 -74.5l-22 -107h-10zM77 336q0 -97 56 -155t147 -65l107 504q-138 5 -224 -71t-86 -213zM600 399q0 98 -55 155.5
t-148 65.5l-107 -504q139 -3 224.5 72.5t85.5 210.5z" />
    <glyph glyph-name="afii10039" unicode="&#x425;" horiz-adv-x="390" 
d="M481 686l-247 -313l147 -373h-11l-143 364l-281 -364h-12l288 373l-123 313h11l119 -304l240 304h12z" />
    <glyph glyph-name="afii10040" unicode="&#x426;" horiz-adv-x="554" 
d="M403 -182l38 182h-401l145 686h10l-143 -677h351l143 677h10l-143 -677h40l-40 -191h-10z" />
    <glyph glyph-name="afii10041" unicode="&#x427;" horiz-adv-x="495" 
d="M357 0h-10l71 336q-75 -33 -162 -33q-71 0 -113.5 31t-42.5 96q0 22 7 59l42 197h10l-42 -197q-7 -31 -7 -59q0 -118 146 -118q84 0 164 33l72 341h10z" />
    <glyph glyph-name="afii10042" unicode="&#x428;" horiz-adv-x="810" 
d="M663 9l144 677h10l-145 -686h-632l145 686h10l-144 -677h301l144 677h10l-144 -677h301z" />
    <glyph glyph-name="afii10043" unicode="&#x429;" horiz-adv-x="815" 
d="M664 -182l38 182h-662l145 686h10l-143 -677h301l143 677h10l-143 -677h301l143 677h10l-143 -677h40l-40 -191h-10z" />
    <glyph glyph-name="afii10044" unicode="&#x42a;" horiz-adv-x="614" 
d="M248 381h135q102 0 150 -49q41 -43 41 -120q0 -103 -75 -161q-66 -51 -173 -51h-169l143 677h-199l2 9h209zM564 212q0 75 -39 114q-45 46 -143 46h-136l-77 -363h158q111 0 175 57q62 54 62 146z" />
    <glyph glyph-name="afii10045" unicode="&#x42b;" horiz-adv-x="685" 
d="M131 381h135q102 0 150 -49q41 -43 41 -120q0 -103 -75 -161q-66 -51 -173 -51h-169l145 686h10zM447 212q0 75 -39 114q-45 46 -143 46h-136l-77 -363h158q111 0 175 57q62 54 62 146zM528 0l145 686h10l-145 -686h-10z" />
    <glyph glyph-name="afii10046" unicode="&#x42c;" horiz-adv-x="497" 
d="M131 381h135q102 0 150 -49q41 -43 41 -120q0 -103 -75 -161q-66 -51 -173 -51h-169l145 686h10zM447 212q0 75 -39 114q-45 46 -143 46h-136l-77 -363h158q111 0 175 57q62 54 62 146z" />
    <glyph glyph-name="afii10047" unicode="&#x42d;" horiz-adv-x="485" 
d="M103 630l-4 8q76 54 157 54q98 0 150 -68t52 -177q0 -59 -11.5 -120t-37 -121.5t-62 -107.5t-92 -76t-122.5 -29q-94 0 -148 50l6 8q52 -49 142 -49q68 0 123.5 31.5t92 84t59 111.5t32.5 123h-292l2 9h291q7 42 7 87q0 105 -50 170t-144 65q-75 0 -151 -53z" />
    <glyph glyph-name="afii10048" unicode="&#x42e;" horiz-adv-x="722" 
d="M40 0l145 686h10l-67 -316h100q20 89 60.5 163.5t98.5 116.5q57 42 137 42q64 0 103.5 -33t53.5 -80t14 -109q0 -75 -20 -164.5t-62 -161.5q-88 -151 -232 -151q-50 0 -85.5 19.5t-53 53.5t-25 70t-7.5 79q0 73 16 146h-100l-76 -361h-10zM383 2q136 0 219 142
q47 80 65 169.5t18 156.5q0 213 -163 213q-70 0 -129 -40q-79 -55 -126 -180.5t-47 -247.5q0 -213 163 -213z" />
    <glyph glyph-name="afii10049" unicode="&#x42f;" horiz-adv-x="512" 
d="M519 686l-146 -686h-10l68 322h-112q-61 0 -98 -21t-61 -78l-42 -100q-29 -68 -54 -95q-24 -24 -70 -31l-23 -3l-1 10l28 4q39 6 62 31q18 20 46 83l47 109q37 88 115 95v2q-62 10 -98 52t-36 102q0 104 73 154t186 50h126zM319 331h114l74 346h-115q-108 0 -178 -48.5
t-70 -146.5q0 -71 50.5 -111t124.5 -40z" />
    <glyph glyph-name="afii10065" unicode="&#x430;" horiz-adv-x="454" 
d="M41 148q0 155 85 255.5t188 100.5q63 0 104 -35l-2 -10l-70 -329q-9 -41 -9 -65q0 -35 24 -63l-7 -6q-26 31 -26 70q0 24 7 58q-65 -131 -171 -131q-60 0 -91.5 42.5t-31.5 112.5zM51 148q0 -68 30 -107t85 -39q107 0 176 156l65 307q-38 30 -95 30q-97 0 -179 -97.5
t-82 -249.5z" />
    <glyph glyph-name="afii10066" unicode="&#x431;" horiz-adv-x="494" 
d="M198 -7q-140 0 -140 173q0 89 52 260q60 200 192 253l133 53q23 9 44 25l4 -9q-21 -16 -45 -25l-133 -53q-79 -31 -126 -109t-84 -219l2 -1q32 73 85.5 115t124.5 42q140 0 140 -163q0 -57 -15 -115t-44 -109.5t-78.5 -84.5t-111.5 -33zM200 2q74 0 129.5 52t81.5 126.5
t26 154.5q0 154 -132 154q-73 0 -129 -52t-82 -124t-26 -147q0 -164 132 -164z" />
    <glyph glyph-name="afii10067" unicode="&#x432;" horiz-adv-x="444" 
d="M38 19l71 336q13 62 57 105.5t111 43.5q49 0 83 -27.5t34 -78.5q0 -58 -36 -96t-94 -45q44 -6 72.5 -36.5t28.5 -77.5q0 -77 -54.5 -113.5t-132.5 -36.5q-80 0 -140 26zM97 252l-48 -228q58 -22 129 -22q73 0 125 33.5t52 106.5q0 51 -34.5 80.5t-90.5 29.5h-133zM99 261
h132q59 0 106 35t47 102q0 47 -30.5 72t-76.5 25q-62 0 -104 -41t-54 -99z" />
    <glyph glyph-name="afii10068" unicode="&#x433;" horiz-adv-x="385" 
d="M106 466l-3 9q71 29 135 29q51 0 84 -25t33 -78q0 -34 -14 -59.5t-43 -43.5t-48.5 -26.5t-55.5 -21.5q-96 -34 -130 -64.5t-34 -83.5q0 -48 38.5 -72.5t94.5 -24.5q82 0 150 36l4 -9q-76 -36 -154 -36q-57 0 -100 26t-43 81q0 27 10.5 49.5t22.5 36.5t40 28.5t43.5 20.5
t52.5 20q33 12 46 17t39.5 19t38 26.5t22 34t10.5 46.5q0 52 -31.5 73t-75.5 21q-64 0 -132 -29z" />
    <glyph glyph-name="afii10069" unicode="&#x434;" horiz-adv-x="506" 
d="M290 498q82 0 158 -61q2 36 2 51q0 112 -44.5 173.5t-152.5 61.5q-25 0 -49 -3l3 9q18 3 46 3q207 0 207 -241q0 -54 -8 -116t-28.5 -131t-50.5 -124t-78.5 -91t-108.5 -36q-70 0 -105 44t-35 124q0 82 28 158t85.5 127.5t130.5 51.5zM187 2q62 0 112 42t79 109.5
t46 135.5t23 136q-72 64 -153 64q-58 0 -105 -31.5t-75 -81t-43 -105.5t-15 -110q0 -159 131 -159z" />
    <glyph glyph-name="afii10070" unicode="&#x435;" horiz-adv-x="428" 
d="M176 250q-65 0 -103 5q-9 -43 -9 -83q0 -76 36.5 -123t108.5 -47q71 0 138 52l6 -7q-71 -54 -146 -54q-76 0 -114.5 49.5t-38.5 128.5q0 51 14.5 107.5t42 108t73.5 84.5t102 33q48 0 81.5 -27t33.5 -74q0 -69 -47 -107q-56 -46 -178 -46zM283 495q-78 0 -132 -68.5
t-76 -162.5q55 -5 103 -5q114 0 168 43q45 36 45 100q0 45 -30.5 69t-77.5 24z" />
    <glyph glyph-name="afii10072" unicode="&#x436;" horiz-adv-x="758" 
d="M593 -7q-59 0 -87.5 47t-28.5 114q0 53 11 108h-103l-55 -262h-10l55 262h-102q-18 -114 -74 -191.5t-127 -77.5q-48 0 -84 40l6 7q33 -38 80 -38q77 0 136 103t59 239q0 68 -29 109.5t-79 41.5t-98 -51l-5 8q49 52 105 52q59 0 87.5 -47t28.5 -114q0 -34 -5 -72h103
l49 231l11 2l-50 -233h102q22 101 75.5 167t119.5 66q48 0 84 -40l-6 -7q-33 38 -80 38q-77 0 -136 -103t-59 -239q0 -68 29 -109.5t79 -41.5t98 51l5 -8q-49 -52 -105 -52z" />
    <glyph glyph-name="afii10073" unicode="&#x437;" horiz-adv-x="378" 
d="M135 269h29q58 0 106 32.5t48 94.5q0 48 -33.5 73.5t-78.5 25.5q-65 0 -133 -36l-3 8q70 37 136 37q50 0 86 -28t36 -80q0 -59 -40.5 -93t-93.5 -39q48 -8 76.5 -40.5t28.5 -78.5q0 -42 -17 -73t-44.5 -47.5t-57.5 -24t-63 -7.5q-82 0 -139 39l5 8q51 -38 134 -38
q18 0 37 2.5t44 11.5t44.5 24t33 42t13.5 63q0 31 -14 55t-35 36t-40.5 18t-36.5 6h-30z" />
    <glyph glyph-name="afii10074" unicode="&#x438;" horiz-adv-x="488" 
d="M385 -4q-26 30 -26 70q0 28 9 68l2 12q-113 -153 -207 -153q-43 0 -67 24.5t-24 65.5q0 15 7 48l77 366l11 3l-79 -371q-6 -29 -6 -45q0 -37 21 -59.5t63 -22.5q88 0 209 165l70 330l11 3l-79 -370q-9 -41 -9 -65q0 -35 24 -63z" />
    <glyph glyph-name="afii10075" unicode="&#x439;" horiz-adv-x="488" 
d="M385 -4q-26 30 -26 70q0 28 9 68l2 12q-113 -153 -207 -153q-43 0 -67 24.5t-24 65.5q0 15 7 48l77 366l11 3l-79 -371q-6 -29 -6 -45q0 -37 21 -59.5t63 -22.5q88 0 209 165l70 330l11 3l-79 -370q-9 -41 -9 -65q0 -35 24 -63zM435 661l7 -6q-25 -34 -64.5 -57
t-77.5 -23t-67 22.5t-42 57.5l8 6q12 -33 39 -54.5t62 -21.5q36 0 72.5 21.5t62.5 54.5z" />
    <glyph glyph-name="afii10076" unicode="&#x43a;" horiz-adv-x="427" 
d="M444 504l3 -9q-145 -54 -263 -239l17 -1q51 -3 68 -17t20 -54l9 -123q2 -32 13.5 -44.5t35.5 -15.5l15 -2l-3 -9l-14 2q-26 3 -40.5 16.5t-16.5 46.5l-9 128q-3 40 -19.5 50t-65.5 13l-16 1q-54 -88 -121 -247h-17l106 502l11 2l-96 -452l-10 -40h2q160 410 391 492z" />
    <glyph glyph-name="afii10077" unicode="&#x43b;" horiz-adv-x="467" 
d="M197 498h233l-106 -498h-10l104 489h-214l-33 -118q-27 -97 -62 -192q-43 -119 -64 -148q-24 -34 -62 -37l-12 -1l-1 9l12 1q38 4 60 40.5t62 150.5q40 112 60 186z" />
    <glyph glyph-name="afii10078" unicode="&#x43c;" horiz-adv-x="617" 
d="M176 498h16l60 -432l8 -54h2l29 52l240 434h16l-52 -498h-10l46 440l5 46h-2l-22 -41l-246 -445h-14l-61 438l-7 49h-2l-15 -51l-134 -436h-10z" />
    <glyph glyph-name="afii10079" unicode="&#x43d;" horiz-adv-x="487" 
d="M40 0l106 502l11 2l-50 -233h284l49 231l11 2l-107 -504h-10l55 262h-284l-55 -262h-10z" />
    <glyph glyph-name="afii10080" unicode="&#x43e;" horiz-adv-x="474" 
d="M186 -7q-74 0 -107 46t-33 120q0 80 26 156.5t84.5 132.5t138.5 56q74 0 107 -46t33 -120q0 -80 -26 -156.5t-84.5 -132.5t-138.5 -56zM188 2q57 0 103.5 31.5t74.5 81.5t43.5 108t15.5 115q0 157 -132 157q-57 0 -103.5 -31.5t-74.5 -81.5t-43.5 -108t-15.5 -115
q0 -157 132 -157z" />
    <glyph glyph-name="afii10081" unicode="&#x43f;" horiz-adv-x="479" 
d="M50 0h-10l86 409q10 47 10 66q0 11 -3 22l10 3q3 -10 3 -23q0 -23 -11 -72l-12 -56q21 29 39 50t46.5 48t60 42t63.5 15q43 0 67 -24.5t24 -65.5q0 -15 -7 -48l-77 -366h-10l78 368q6 29 6 45q0 37 -21 59.5t-63 22.5q-90 0 -210 -167z" />
    <glyph glyph-name="afii10082" unicode="&#x440;" horiz-adv-x="487" 
d="M6 -198l-11 -3l130 610q10 47 10 66q0 11 -3 22l10 3q3 -12 3 -25q0 -21 -10 -70l-10 -48q87 147 187 147q60 0 95 -39t35 -120q0 -88 -29 -167t-88.5 -132t-136.5 -53q-75 0 -130 51zM309 495q-49 0 -94.5 -38.5t-95.5 -124.5l-59 -278q52 -52 130 -52q72 0 129 52
t85 129t28 160q0 152 -123 152z" />
    <glyph glyph-name="afii10083" unicode="&#x441;" horiz-adv-x="388" 
d="M190 -7q-67 0 -102.5 45.5t-35.5 115.5q0 140 73 245t171 105q59 0 102 -40l-5 -8q-40 39 -99 39q-91 0 -161.5 -103t-70.5 -239q0 -66 33.5 -108.5t96.5 -42.5q70 0 131 51l4 -8q-64 -52 -137 -52z" />
    <glyph glyph-name="afii10084" unicode="&#x442;" horiz-adv-x="728" 
d="M50 0h-10l86 409q10 47 10 66q0 11 -3 22l10 3q3 -10 3 -23q0 -23 -11 -72l-12 -55q104 154 199 154q39 0 60 -24.5t21 -65.5q0 -15 -7 -48l-3 -15q101 153 198 153q39 0 60 -24.5t21 -65.5q0 -15 -7 -48l-77 -366h-10l78 368q6 29 6 45q0 82 -74 82q-93 0 -200 -166
l-69 -329h-10l78 368q6 29 6 45q0 82 -74 82q-90 0 -200 -167z" />
    <glyph glyph-name="afii10085" unicode="&#x443;" horiz-adv-x="390" 
d="M-4 -202l-3 9q45 13 77.5 51.5t80.5 126.5l10 17l-8 -2q0 23 -8 84l-59 415l9 3l59 -415q3 -19 4.5 -37t2.5 -30.5t1 -14.5h1l21 39l246 454h11l-280 -516q-25 -45 -39 -68t-35 -50.5t-42.5 -42.5t-48.5 -23z" />
    <glyph glyph-name="afii10086" unicode="&#x444;" horiz-adv-x="705" 
d="M263 -196l-10 -2l53 251q-60 -60 -139 -60q-63 0 -92 46.5t-29 113.5q0 59 13 118.5t39 112.5t70.5 86.5t100.5 33.5q73 0 116 -76l64 300l11 2l-64 -301q63 75 147 75q43 0 70 -24.5t36.5 -58t9.5 -76.5q0 -85 -23.5 -162.5t-78.5 -133.5t-131 -56q-70 0 -109 63zM170 2
q79 0 139 65l73 345q-41 83 -113 83q-68 0 -118.5 -54.5t-72.5 -130t-22 -156.5q0 -66 27 -109t87 -43zM540 495q-47 0 -87.5 -28.5t-60.5 -56.5l-73 -343q43 -65 109 -65q70 0 122 54t75.5 129.5t23.5 157.5q0 152 -109 152z" />
    <glyph glyph-name="afii10087" unicode="&#x445;" horiz-adv-x="342" 
d="M384 498l-191 -224l127 -274h-11l-124 267l-229 -267h-13l238 277l-103 221h11l100 -214l182 214h13z" />
    <glyph glyph-name="afii10088" unicode="&#x446;" horiz-adv-x="506" 
d="M394 -143h-10l30 143h-30q-25 17 -25 65q0 34 12 82q-114 -154 -208 -154q-41 0 -66 23.5t-25 66.5q0 15 7 48l77 366l11 3l-79 -371q-6 -30 -6 -45q0 -36 20 -59t64 -23q89 0 209 165l70 330l11 3l-79 -370q-9 -41 -9 -65q0 -34 19 -56h39z" />
    <glyph glyph-name="afii10089" unicode="&#x447;" horiz-adv-x="441" 
d="M121 504l-35 -163q-3 -17 -3 -31q0 -47 33.5 -68.5t86.5 -21.5q69 0 137 26l54 256l11 2l-107 -504h-10l50 237q-70 -26 -138 -26q-53 0 -90 23t-37 74q0 18 4 38l33 156z" />
    <glyph glyph-name="afii10090" unicode="&#x448;" horiz-adv-x="731" 
d="M627 2l-7 -6q-26 29 -26 70q0 33 12 81q-114 -154 -198 -154q-26 0 -44 11t-24.5 28t-8.5 28t-2 21q0 32 9 68q-111 -156 -199 -156q-79 0 -79 94q0 21 8 59l74 351l11 3l-75 -352q-8 -38 -8 -61q0 -85 69 -85q82 0 203 166l69 329l11 3l-75 -353q-8 -37 -8 -67
q0 -35 17 -56.5t52 -21.5q82 0 202 165l70 330l11 3l-75 -352q-13 -61 -13 -83q0 -35 24 -63z" />
    <glyph glyph-name="afii10091" unicode="&#x449;" horiz-adv-x="741" 
d="M629 -143h-10l30 143h-30q-25 19 -25 64q0 35 12 83q-114 -154 -198 -154q-26 0 -44 11t-24.5 28t-8.5 28t-2 21q0 32 9 68q-111 -156 -199 -156q-79 0 -79 94q0 21 8 59l74 351l11 3l-75 -352q-8 -38 -8 -61q0 -85 69 -85q82 0 203 166l69 329l11 3l-75 -353
q-8 -37 -8 -67q0 -35 17 -56.5t52 -21.5q82 0 202 165l70 330l11 3l-75 -352q-13 -61 -13 -83q0 -34 19 -56h39z" />
    <glyph glyph-name="afii10092" unicode="&#x44a;" horiz-adv-x="467" 
d="M210 498l-49 -228q56 18 117 18q56 0 97.5 -28t41.5 -92q0 -82 -49 -128.5t-133 -46.5q-79 0 -137 26l99 470h-147l3 9h157zM159 261l-50 -237q54 -22 126 -22q82 0 127 45t45 121q0 56 -36.5 83.5t-92.5 27.5q-59 0 -119 -18z" />
    <glyph glyph-name="afii10093" unicode="&#x44b;" horiz-adv-x="595" 
d="M157 504l-50 -234q56 18 117 18q56 0 97.5 -28t41.5 -92q0 -82 -49 -128.5t-133 -46.5q-79 0 -137 26l102 483zM105 261l-50 -237q54 -22 126 -22q82 0 127 45t45 121q0 56 -36.5 83.5t-92.5 27.5q-59 0 -119 -18zM442 0l106 502l11 2l-107 -504h-10z" />
    <glyph glyph-name="afii10094" unicode="&#x44c;" horiz-adv-x="413" 
d="M157 504l-50 -234q56 18 117 18q56 0 97.5 -28t41.5 -92q0 -82 -49 -128.5t-133 -46.5q-79 0 -137 26l102 483zM105 261l-50 -237q54 -22 126 -22q82 0 127 45t45 121q0 56 -36.5 83.5t-92.5 27.5q-59 0 -119 -18z" />
    <glyph glyph-name="afii10095" unicode="&#x44d;" horiz-adv-x="406" 
d="M115 -7q-88 0 -135 59l6 6q45 -56 129 -56q98 0 162 91q46 66 63 153l3 15h-216l2 9h215q6 36 6 65q0 82 -39.5 121t-97.5 39q-70 0 -130 -49l-5 7q65 51 135 51q63 0 105 -42t42 -131q0 -74 -28 -152t-78 -128q-58 -58 -139 -58z" />
    <glyph glyph-name="afii10096" unicode="&#x44e;" horiz-adv-x="591" 
d="M305 -7q-68 0 -101.5 44.5t-33.5 121.5q0 53 11 103h-76l-55 -262h-10l106 502l11 2l-50 -233h76q24 99 81.5 166t145.5 67q70 0 102.5 -45.5t32.5 -120.5q0 -57 -14.5 -115.5t-42.5 -111t-76 -85.5t-107 -33zM307 2q71 0 124.5 53t78.5 128t25 155q0 65 -28 111t-99 46
t-124.5 -53t-78.5 -128t-25 -155q0 -157 127 -157z" />
    <glyph glyph-name="afii10097" unicode="&#x44f;" horiz-adv-x="451" 
d="M414 498l-106 -498h-10l51 241h-118q-33 0 -55 -18t-45 -59l-62 -112q-16 -29 -32 -42.5t-40 -15.5l-10 -1l-2 9l9 1q25 3 38.5 16.5t32.5 46.5l58 104q36 66 73 73q-45 5 -75.5 37t-30.5 75t18.5 73.5t51 46t66.5 22.5t74 7q44 0 114 -6zM351 250l51 239q-56 6 -102 6
q-86 0 -143 -33t-57 -107q0 -45 35 -75t85 -30h131z" />
    <glyph glyph-name="uni0450" unicode="&#x450;" horiz-adv-x="428" 
d="M176 250q-65 0 -103 5q-9 -43 -9 -83q0 -76 36.5 -123t108.5 -47q71 0 138 52l6 -7q-71 -54 -146 -54q-76 0 -114.5 49.5t-38.5 128.5q0 51 14.5 107.5t42 108t73.5 84.5t102 33q48 0 81.5 -27t33.5 -74q0 -69 -47 -107q-56 -46 -178 -46zM283 495q-78 0 -132 -68.5
t-76 -162.5q55 -5 103 -5q114 0 168 43q45 36 45 100q0 45 -30.5 69t-77.5 24zM362 572l-148 100l6 8l147 -101z" />
    <glyph glyph-name="afii10071" unicode="&#x451;" horiz-adv-x="428" 
d="M176 250q-65 0 -103 5q-9 -43 -9 -83q0 -76 36.5 -123t108.5 -47q71 0 138 52l6 -7q-71 -54 -146 -54q-76 0 -114.5 49.5t-38.5 128.5q0 51 14.5 107.5t42 108t73.5 84.5t102 33q48 0 81.5 -27t33.5 -74q0 -69 -47 -107q-56 -46 -178 -46zM283 495q-78 0 -132 -68.5
t-76 -162.5q55 -5 103 -5q114 0 168 43q45 36 45 100q0 45 -30.5 69t-77.5 24zM232 597q-5 0 -9.5 4t-4.5 10t4.5 10t9.5 4q14 0 14 -14q0 -6 -4.5 -10t-9.5 -4zM340 597q-5 0 -9.5 4t-4.5 10t4.5 10t9.5 4q14 0 14 -14q0 -6 -4.5 -10t-9.5 -4z" />
    <glyph glyph-name="afii10099" unicode="&#x452;" horiz-adv-x="478" 
d="M40 0l127 597h-66l2 9h66q15 78 15 101q0 12 -2 20l10 3q2 -10 2 -22q0 -32 -15 -102h178l-5 -9h-175l-49 -230l-5 -22q111 154 208 154q47 0 69 -26.5t22 -63.5q0 -15 -7 -48l-73 -347q-7 -32 -11 -49t-13.5 -40.5t-20.5 -37t-30 -27t-44 -22.5l-3 8q54 20 75 56t36 107
l75 354q6 27 6 45q0 40 -22.5 61t-58.5 21q-32 0 -63 -15t-60.5 -45t-46 -50t-42.5 -55l-69 -325h-10z" />
    <glyph glyph-name="afii10100" unicode="&#x453;" horiz-adv-x="385" 
d="M106 466l-3 9q71 29 135 29q51 0 84 -25t33 -78q0 -34 -14 -59.5t-43 -43.5t-48.5 -26.5t-55.5 -21.5q-96 -34 -130 -64.5t-34 -83.5q0 -48 38.5 -72.5t94.5 -24.5q82 0 150 36l4 -9q-76 -36 -154 -36q-57 0 -100 26t-43 81q0 27 10.5 49.5t22.5 36.5t40 28.5t43.5 20.5
t52.5 20q33 12 46 17t39.5 19t38 26.5t22 34t10.5 46.5q0 52 -31.5 73t-75.5 21q-64 0 -132 -29zM163 593l-5 7l147 101l6 -8z" />
    <glyph glyph-name="afii10101" unicode="&#x454;" horiz-adv-x="398" 
d="M193 -7q-70 0 -105.5 47.5t-35.5 113.5q0 90 31 170.5t86.5 130t122.5 49.5q69 0 111 -48l-7 -7q-38 46 -106 46q-71 0 -129.5 -63.5t-83.5 -161.5h216l-2 -9h-217q-12 -53 -12 -108q0 -68 36 -109.5t97 -41.5q71 0 132 51l6 -8q-64 -52 -140 -52z" />
    <glyph glyph-name="afii10102" unicode="&#x455;" horiz-adv-x="405" 
d="M141 -7q-79 0 -143 43l5 8q62 -42 140 -42q69 0 122 35t53 103q0 38 -17.5 61t-70.5 46l-58 25q-46 20 -67.5 41.5t-21.5 58.5q0 67 49 99.5t123 32.5q65 0 120 -38l-6 -8q-47 37 -116 37q-66 0 -113 -29.5t-47 -92.5q0 -35 20 -54.5t63 -37.5l59 -25q55 -23 74.5 -50
t19.5 -65q0 -71 -55 -109.5t-133 -38.5z" />
    <glyph glyph-name="afii10103" unicode="&#x456;" horiz-adv-x="176" 
d="M40 0l106 502l11 2l-107 -504h-10zM181 647q-5 0 -9.5 4t-4.5 10t4.5 10t9.5 4q14 0 14 -14q0 -6 -4.5 -10t-9.5 -4z" />
    <glyph glyph-name="afii10104" unicode="&#x457;" horiz-adv-x="176" 
d="M40 0l106 502l11 2l-107 -504h-10zM103 597q-5 0 -9.5 4t-4.5 10t4.5 10t9.5 4q14 0 14 -14q0 -6 -4.5 -10t-9.5 -4zM211 597q-5 0 -9.5 4t-4.5 10t4.5 10t9.5 4q14 0 14 -14q0 -6 -4.5 -10t-9.5 -4z" />
    <glyph glyph-name="afii10105" unicode="&#x458;" horiz-adv-x="172" 
d="M-64 -162l-3 8q50 19 70.5 54.5t35.5 105.5l105 496l11 2l-107 -500q-11 -49 -20 -75t-31.5 -51.5t-60.5 -39.5zM179 647q-5 0 -9.5 4t-4.5 10t4.5 10t9.5 4q14 0 14 -14q0 -6 -4.5 -10t-9.5 -4z" />
    <glyph glyph-name="afii10106" unicode="&#x459;" horiz-adv-x="682" 
d="M425 498l-49 -228q56 18 117 18q56 0 97.5 -28t41.5 -92q0 -82 -49 -128.5t-133 -46.5q-78 0 -137 26l100 470h-209l-33 -118q-27 -97 -62 -192q-43 -119 -64 -148q-24 -34 -62 -37l-12 -1l-1 9l12 1q38 4 60 40.5t62 150.5q40 112 60 186l33 118h228zM374 261l-50 -237
q54 -22 126 -22q82 0 127 45t45 121q0 56 -36.5 83.5t-92.5 27.5q-59 0 -119 -18z" />
    <glyph glyph-name="afii10107" unicode="&#x45a;" horiz-adv-x="702" 
d="M446 504l-50 -234q56 18 117 18q56 0 97.5 -28t41.5 -92q0 -82 -49 -128.5t-133 -46.5q-78 0 -137 26l51 243h-279l-55 -262h-10l106 502l11 2l-50 -233h279l49 231zM394 261l-50 -237q54 -22 126 -22q82 0 127 45t45 121q0 56 -36.5 83.5t-92.5 27.5q-59 0 -119 -18z
" />
    <glyph glyph-name="afii10108" unicode="&#x45b;" horiz-adv-x="478" 
d="M40 0l127 597h-66l2 9h66q15 78 15 101q0 12 -2 20l10 3q2 -10 2 -22q0 -32 -15 -102h178l-5 -9h-175l-49 -230l-5 -22q111 154 208 154q47 0 69 -26.5t22 -63.5q0 -15 -7 -48l-76 -361h-10l77 363q6 27 6 45q0 40 -22.5 61t-58.5 21q-32 0 -63 -15t-60.5 -45t-46 -50
t-42.5 -55l-69 -325h-10z" />
    <glyph glyph-name="afii10109" unicode="&#x45c;" horiz-adv-x="427" 
d="M444 504l3 -9q-145 -54 -263 -239l17 -1q51 -3 68 -17t20 -54l9 -123q2 -32 13.5 -44.5t35.5 -15.5l15 -2l-3 -9l-14 2q-26 3 -40.5 16.5t-16.5 46.5l-9 128q-3 40 -19.5 50t-65.5 13l-16 1q-54 -88 -121 -247h-17l106 502l11 2l-96 -452l-10 -40h2q160 410 391 492z
M242 593l-5 7l147 101l6 -8z" />
    <glyph glyph-name="uni045D" unicode="&#x45d;" horiz-adv-x="488" 
d="M385 -4q-26 30 -26 70q0 28 9 68l2 12q-113 -153 -207 -153q-43 0 -67 24.5t-24 65.5q0 15 7 48l77 366l11 3l-79 -371q-6 -29 -6 -45q0 -37 21 -59.5t63 -22.5q88 0 209 165l70 330l11 3l-79 -370q-9 -41 -9 -65q0 -35 24 -63zM389 572l-148 100l6 8l147 -101z" />
    <glyph glyph-name="afii10110" unicode="&#x45e;" horiz-adv-x="390" 
d="M-4 -202l-3 9q45 13 77.5 51.5t80.5 126.5l10 17l-8 -2q0 23 -8 84l-59 415l9 3l59 -415q3 -19 4.5 -37t2.5 -30.5t1 -14.5h1l21 39l246 454h11l-280 -516q-25 -45 -39 -68t-35 -50.5t-42.5 -42.5t-48.5 -23zM385 661l7 -6q-25 -34 -64.5 -57t-77.5 -23t-67 22.5
t-42 57.5l8 6q12 -33 39 -54.5t62 -21.5q36 0 72.5 21.5t62.5 54.5z" />
    <glyph glyph-name="afii10193" unicode="&#x45f;" horiz-adv-x="482" 
d="M207 -175l33 158l11 4l-34 -162h-10zM385 -4q-26 30 -26 70q0 28 9 68l2 12q-113 -153 -207 -153q-43 0 -67 24.5t-24 65.5q0 15 7 48l77 366l11 3l-79 -371q-6 -29 -6 -45q0 -37 21 -59.5t63 -22.5q88 0 209 165l70 330l11 3l-79 -370q-9 -41 -9 -65q0 -35 24 -63z" />
    <glyph glyph-name="afii10146" unicode="&#x462;" horiz-adv-x="517" 
d="M151 381h135q102 0 150 -49q41 -43 41 -120q0 -103 -75 -161q-66 -51 -173 -51h-169l118 558h-92l2 9h92l25 119h10l-25 -119h137l-2 -9h-137zM467 212q0 75 -39 114q-45 46 -143 46h-136l-77 -363h158q110 0 175 57q62 54 62 146z" />
    <glyph glyph-name="afii10194" unicode="&#x463;" horiz-adv-x="423" 
d="M167 504l-18 -83h125l-2 -10h-125l-30 -141q56 18 117 18q56 0 97.5 -28t41.5 -92q0 -82 -49 -128.5t-133 -46.5q-79 0 -137 26l83 392h-79l2 10h79l17 81zM115 261l-50 -237q54 -22 126 -22q82 0 127 45t45 121q0 56 -36.5 83.5t-92.5 27.5q-59 0 -119 -18z" />
    <glyph glyph-name="afii10147" unicode="&#x472;" horiz-adv-x="604" 
d="M250 -7q-64 0 -105.5 31.5t-57 79t-15.5 111.5q0 119 46 245.5t138 188.5q64 43 143 43q64 0 105.5 -31.5t57 -79t15.5 -111.5q0 -78 -21 -166.5t-64 -159.5q-91 -151 -242 -151zM252 2q141 0 228 142q52 85 74 199h-459q-13 -66 -13 -128q0 -213 170 -213zM263 643
q-120 -80 -166 -291h459q11 58 11 118q0 213 -170 213q-73 0 -134 -40z" />
    <glyph glyph-name="afii10195" unicode="&#x473;" horiz-adv-x="481" 
d="M186 -7q-71 0 -105.5 44t-34.5 122q0 56 15 114t43.5 111t78.5 86.5t112 33.5q73 0 106.5 -45t33.5 -121q0 -57 -15 -115.5t-44 -111t-78.5 -85.5t-111.5 -33zM188 2q90 0 149.5 73t79.5 179h-351q-10 -53 -10 -95q0 -157 132 -157zM293 495q-85 0 -143.5 -66.5
t-81.5 -165.5h351q6 37 6 75q0 157 -132 157z" />
    <glyph glyph-name="afii10148" unicode="&#x474;" horiz-adv-x="578" 
d="M196 0l-83 686h10l81 -675l23 42l264 480q43 79 75 110.5t90 42.5l2 -9q-56 -11 -87 -42.5t-74 -109.5l-289 -525h-12z" />
    <glyph glyph-name="afii10196" unicode="&#x475;" horiz-adv-x="426" 
d="M139 -5l-68 502l10 2l60 -445l6 -45h1l22 39l194 342q16 29 28 46t38.5 37t57.5 26l3 -9q-24 -4 -43 -15t-34.5 -29.5t-23.5 -30.5t-21 -35l-218 -385h-12z" />
    <glyph glyph-name="afii10050" unicode="&#x490;" horiz-adv-x="370" 
d="M40 0l145 686h284l23 106h9l-25 -115h-283l-143 -677h-10z" />
    <glyph glyph-name="afii10098" unicode="&#x491;" horiz-adv-x="342" 
d="M153 489l-103 -489h-10l105 498h227l20 97l10 2l-23 -108h-226z" />
    <glyph glyph-name="uni0492" unicode="&#x492;" horiz-adv-x="410" 
d="M54 370l2 9h84l65 307h295l-4 -9h-283l-63 -298h137l-2 -9h-137l-78 -370h-10l78 370h-84z" />
    <glyph glyph-name="uni0493" unicode="&#x493;" horiz-adv-x="390" 
d="M109 466l-3 9q71 29 135 29q51 0 84 -25t33 -78q0 -58 -44 -94q-26 -22 -84 -44h120l-4 -9h-140q-69 -24 -104 -44q-69 -39 -69 -106q0 -49 38.5 -74t94.5 -25q82 0 150 36l4 -9q-76 -36 -154 -36q-57 0 -100 26t-43 81q0 33 12 57.5t38.5 42t48 27t61.5 24.5h-140l2 9
h162q32 11 52.5 21t43 26t34 39t11.5 52q0 52 -31.5 73t-75.5 21q-64 0 -132 -29z" />
    <glyph glyph-name="uni0496" unicode="&#x496;" horiz-adv-x="808" 
d="M857 694l1 -10l-29 -4q-44 -6 -64 -29.5t-43 -78.5l-41 -100q-20 -47 -42 -73.5t-58 -32.5l-1 -2q49 -18 53 -104l5 -138q1 -25 1.5 -36t4 -29t9.5 -26t17.5 -15t28.5 -7h29l-40 -191h-10l38 182h-18q-44 0 -56.5 28t-14.5 95l-3 111q-1 24 -1.5 35t-5 32t-12 31.5
t-23 19.5t-37.5 9h-113l-77 -361h-10l77 361h-109q-53 0 -82 -27t-51 -80l-54 -130q-28 -68 -51 -94t-76 -33l-23 -3l-1 10l28 4q44 6 66 32t45 82l57 138q40 95 105 105l1 2q-54 15 -56 105l-2 108q0 24 -0.5 33t-3.5 24.5t-9 21.5t-17.5 12t-29.5 9l-27 4l5 10l27 -4
q43 -6 53.5 -28t11.5 -80l2 -101q1 -33 5.5 -54.5t24 -39t53.5 -17.5h110l67 316h10l-68 -316h113q52 0 78.5 27.5t49.5 83.5l44 108q19 47 42.5 71t65.5 30z" />
    <glyph glyph-name="uni0497" unicode="&#x497;" horiz-adv-x="758" 
d="M645 -143l30 143q-33 -7 -65 -7q-72 0 -102.5 46t-30.5 115q0 53 11 108h-103l-55 -262h-10l55 262h-102q-18 -114 -74 -191.5t-127 -77.5q-48 0 -84 40l6 7q33 -38 80 -38q77 0 136 103t59 239q0 68 -29 109.5t-79 41.5t-98 -51l-5 8q49 52 105 52q59 0 87.5 -47
t28.5 -114q0 -34 -5 -72h103l49 231l11 2l-50 -233h102q22 101 75.5 167t119.5 66q48 0 84 -40l-6 -7q-33 38 -80 38q-77 0 -136 -103t-59 -239q0 -68 30.5 -109.5t92.5 -41.5q29 0 64 7h13l-32 -152h-10z" />
    <glyph glyph-name="uni049A" unicode="&#x49a;" horiz-adv-x="513" 
d="M562 694l1 -10l-29 -4q-44 -6 -64 -29.5t-43 -78.5l-41 -100q-20 -47 -42 -73.5t-58 -32.5l-1 -2q49 -18 53 -104l5 -138q1 -25 1.5 -36t4 -29t9.5 -26t17.5 -15t28.5 -7h29l-40 -191h-10l38 182h-18q-44 0 -56.5 28t-14.5 95l-3 111q-1 24 -1.5 35t-5 32t-12 31.5
t-23 19.5t-37.5 9h-123l-77 -361h-10l146 686h10l-68 -316h123q52 0 78.5 27.5t49.5 83.5l44 108q19 47 42.5 71t65.5 30z" />
    <glyph glyph-name="uni049B" unicode="&#x49b;" horiz-adv-x="427" 
d="M353 0h-17q-45 0 -48 55l-9 128q-3 40 -19.5 50t-65.5 13l-16 1q-54 -88 -121 -247h-17l106 502l11 2l-96 -452l-10 -40h2q160 410 391 492l3 -9q-145 -54 -263 -239l17 -1q51 -3 68 -17t20 -54l9 -123q2 -31 12 -41.5t28 -10.5h27l-32 -152h-10z" />
    <glyph glyph-name="uni049C" unicode="&#x49c;" horiz-adv-x="516" 
d="M565 694l1 -10l-29 -4q-44 -6 -64 -29.5t-43 -78.5l-41 -100q-20 -47 -42 -73.5t-58 -32.5l-1 -2q49 -18 53 -104l5 -138q1 -26 1.5 -36t4 -27.5t9.5 -25t17.5 -15t29.5 -10.5l27 -4l-4 -10l-23 3q-20 3 -33.5 10t-21 15.5t-11.5 26.5t-5 32t-2 42l-3 111q0 22 -1 34.5
t-5.5 32.5t-12 31.5t-23 20t-37.5 8.5h-14l-32 -148h-10l32 148h-102l-77 -361h-10l146 686h10l-68 -316h103l29 136h10l-29 -136h13q52 0 78.5 27.5t49.5 83.5l44 108q19 47 42.5 71t65.5 30z" />
    <glyph glyph-name="uni049D" unicode="&#x49d;" horiz-adv-x="438" 
d="M39 0l107 502l10 2l-51 -240h87l27 125h10l-27 -125h21q60 0 93 77l44 101q24 55 68 60l19 2l1 -10l-19 -2q-38 -4 -60 -54l-45 -102q-28 -63 -75 -76l-1 -2q42 -10 44 -76l4 -122q1 -28 9.5 -40.5t29.5 -14.5l19 -2l-4 -10l-19 2q-25 3 -34.5 18.5t-10.5 47.5l-4 121
q-2 73 -61 73h-21l-27 -126h-10l27 126h-87l-54 -255h-10z" />
    <glyph glyph-name="uni04A2" unicode="&#x4a2;" horiz-adv-x="564" 
d="M413 -182l38 182h-40l76 361h-361l-76 -361h-10l145 686h10l-67 -316h361l67 316h10l-143 -677h40l-40 -191h-10z" />
    <glyph glyph-name="uni04A3" unicode="&#x4a3;" horiz-adv-x="493" 
d="M344 -143l30 143h-40l55 262h-284l-55 -262h-10l106 502l11 2l-50 -233h284l49 231l11 2l-105 -495h40l-32 -152h-10z" />
    <glyph glyph-name="uni04AE" unicode="&#x4ae;" horiz-adv-x="458" 
d="M174 0l57 272l-133 414h10l123 -382l7 -22l14 19l288 385h12l-311 -415l-57 -271h-10z" />
    <glyph glyph-name="uni04AF" unicode="&#x4af;" horiz-adv-x="393" 
d="M84 502l55 -457l3 -31h2l15 30l249 454h10l-273 -498l-43 -205l-11 -3l44 208l-60 499z" />
    <glyph glyph-name="uni04B0" unicode="&#x4b0;" horiz-adv-x="468" 
d="M387 268h-147l-56 -268h-10l56 268h-137l2 9h134l-131 409h10l110 -342l20 -62l46 62l256 342h12l-307 -409h144z" />
    <glyph glyph-name="uni04B1" unicode="&#x4b1;" horiz-adv-x="393" 
d="M5 9h129l-59 490l9 3l55 -457l3 -31h2l15 30l249 454h10l-268 -489h135l-5 -9h-135l-43 -205l-11 -3l44 208h-132z" />
    <glyph glyph-name="uni04B2" unicode="&#x4b2;" horiz-adv-x="452" 
d="M497 686l-247 -313l144 -364h15l-40 -191h-10l38 182h-11l-143 364l-281 -364h-12l288 373l-123 313h11l119 -304l240 304h12z" />
    <glyph glyph-name="uni04B3" unicode="&#x4b3;" horiz-adv-x="379" 
d="M291 -143l30 143h-12l-124 267l-229 -267h-13l238 277l-103 221h11l100 -214l182 214h13l-191 -224l123 -265h17l-32 -152h-10z" />
    <glyph glyph-name="uni04B6" unicode="&#x4b6;" horiz-adv-x="500" 
d="M387 0h-40l71 336q-75 -33 -162 -33q-71 0 -113.5 31t-42.5 96q0 22 7 59l42 197h10l-42 -197q-7 -31 -7 -59q0 -118 146 -118q84 0 164 33l72 341h10l-143 -677h40l-40 -191h-10z" />
    <glyph glyph-name="uni04B7" unicode="&#x4b7;" horiz-adv-x="447" 
d="M298 -143l30 143h-40l50 237q-70 -26 -138 -26q-53 0 -90 23t-37 74q0 18 4 38l33 156l11 2l-35 -163q-3 -17 -3 -31q0 -47 33.5 -68.5t86.5 -21.5q69 0 137 26l54 256l11 2l-105 -495h40l-32 -152h-10z" />
    <glyph glyph-name="uni04B8" unicode="&#x4b8;" horiz-adv-x="495" 
d="M357 0h-10l71 336q-73 -33 -163 -33l-30 -139h-10l30 139q-66 2 -105.5 32.5t-39.5 94.5q0 22 7 59l42 197h10l-42 -197q-7 -31 -7 -59q0 -115 137 -118l31 145h10l-31 -145q84 0 163 33l72 341h10z" />
    <glyph glyph-name="uni04B9" unicode="&#x4b9;" horiz-adv-x="441" 
d="M121 504l-35 -163q-3 -17 -3 -31q0 -45 30.5 -66.5t80.5 -23.5l28 131h10l-28 -131q68 0 136 26l54 256l11 2l-107 -504h-10l50 237q-70 -26 -136 -26l-25 -120h-10l25 120q-50 2 -84.5 25t-34.5 72q0 18 4 38l33 156z" />
    <glyph glyph-name="uni04BA" unicode="&#x4ba;" horiz-adv-x="495" 
d="M185 686h10l-71 -336q75 33 162 33q71 0 113.5 -31t42.5 -96q0 -22 -7 -59l-42 -197h-10l42 197q7 31 7 59q0 118 -146 118q-84 0 -164 -33l-72 -341h-10z" />
    <glyph glyph-name="uni04BB" unicode="&#x4bb;" horiz-adv-x="479" 
d="M40 0l133 626q11 55 11 81q0 10 -2 20l10 3q2 -10 2 -22q0 -27 -12 -86l-53 -248l-5 -24q112 154 208 154q43 0 67 -24.5t24 -65.5q0 -15 -7 -48l-77 -366h-10l78 368q6 29 6 45q0 37 -21 59.5t-63 22.5q-29 0 -59.5 -15.5t-59 -44t-47.5 -51.5t-43 -55l-70 -329h-10z
" />
    <glyph glyph-name="uni04C0" unicode="&#x4c0;" horiz-adv-x="188" 
d="M40 0l145 686h10l-145 -686h-10z" />
    <glyph glyph-name="uni04CF" unicode="&#x4cf;" horiz-adv-x="192" 
d="M181 622l-132 -622h-10l133 626q11 54 11 81q0 10 -2 20l10 3q2 -10 2 -22q0 -31 -12 -86z" />
    <glyph glyph-name="uni04D8" unicode="&#x4d8;" horiz-adv-x="589" 
d="M234 -7q-73 0 -123.5 40t-50.5 111q0 102 65 156q82 69 260 69q102 0 157 -5q7 52 7 92q0 227 -197 227q-110 0 -200 -58l-4 7q92 60 206 60q103 0 154.5 -61.5t51.5 -169.5q0 -55 -10 -108q-12 -68 -37.5 -130t-63.5 -114.5t-94 -84t-121 -31.5zM235 2q114 0 195 99
t110 253q-55 5 -155 5q-174 0 -254 -67q-61 -52 -61 -148q0 -66 48.5 -104t116.5 -38z" />
    <glyph glyph-name="afii10846" unicode="&#x4d9;" horiz-adv-x="428" 
d="M252 247q65 0 103 -5q9 44 9 83q0 76 -36.5 123t-108.5 47q-71 0 -138 -52l-6 7q71 54 146 54q76 0 114.5 -49.5t38.5 -128.5q0 -51 -14.5 -107.5t-42 -108t-73.5 -84.5t-102 -33q-48 0 -81.5 27t-33.5 74q0 69 47 107q56 46 178 46zM145 2q78 0 132 68.5t76 162.5
q-55 5 -103 5q-114 0 -168 -43q-45 -36 -45 -100q0 -45 30.5 -69t77.5 -24z" />
    <glyph glyph-name="uni04E2" unicode="&#x4e2;" horiz-adv-x="569" 
d="M40 0l145 686h10l-124 -585l-18 -85h2l57 77l451 593h13l-145 -686h-10l124 585l18 85h-2l-57 -77l-451 -593h-13zM248 754l2 9h254l-2 -9h-254z" />
    <glyph glyph-name="uni04E3" unicode="&#x4e3;" horiz-adv-x="488" 
d="M385 -4q-26 30 -26 70q0 28 9 68l2 12q-113 -153 -207 -153q-43 0 -67 24.5t-24 65.5q0 15 7 48l77 366l11 3l-79 -371q-6 -29 -6 -45q0 -37 21 -59.5t63 -22.5q88 0 209 165l70 330l11 3l-79 -370q-9 -41 -9 -65q0 -35 24 -63zM202 607l2 9h254l-2 -9h-254z" />
    <glyph glyph-name="uni04E8" unicode="&#x4e8;" horiz-adv-x="604" 
d="M250 -7q-64 0 -105.5 31.5t-57 79t-15.5 111.5q0 119 46 245.5t138 188.5q64 43 143 43q64 0 105.5 -31.5t57 -79t15.5 -111.5q0 -78 -21 -166.5t-64 -159.5q-91 -151 -242 -151zM252 2q141 0 228 142q52 85 74 199h-459q-13 -66 -13 -128q0 -213 170 -213zM263 643
q-120 -80 -166 -291h459q11 58 11 118q0 213 -170 213q-73 0 -134 -40z" />
    <glyph glyph-name="uni04E9" unicode="&#x4e9;" horiz-adv-x="481" 
d="M186 -7q-71 0 -105.5 44t-34.5 122q0 56 15 114t43.5 111t78.5 86.5t112 33.5q73 0 106.5 -45t33.5 -121q0 -57 -15 -115.5t-44 -111t-78.5 -85.5t-111.5 -33zM188 2q90 0 149.5 73t79.5 179h-351q-10 -53 -10 -95q0 -157 132 -157zM293 495q-85 0 -143.5 -66.5
t-81.5 -165.5h351q6 37 6 75q0 157 -132 157z" />
    <glyph glyph-name="uni04EE" unicode="&#x4ee;" horiz-adv-x="433" 
d="M125 686l101 -484l266 484h11l-280 -509q-6 -11 -19 -34.5t-18 -33t-15 -26.5t-16 -25.5t-13.5 -18t-15.5 -15.5q-27 -21 -80 -29l-15 -2l-1 10l14 2q53 8 74 25q25 20 82 124l24 44l-8 -1l-101 489h10zM178 754l2 9h254l-2 -9h-254z" />
    <glyph glyph-name="uni04EF" unicode="&#x4ef;" horiz-adv-x="390" 
d="M-4 -202l-3 9q45 13 77.5 51.5t80.5 126.5l10 17l-8 -2q0 23 -8 84l-59 415l9 3l59 -415q3 -19 4.5 -37t2.5 -30.5t1 -14.5h1l21 39l246 454h11l-280 -516q-25 -45 -39 -68t-35 -50.5t-42.5 -42.5t-48.5 -23zM156 607l2 9h254l-2 -9h-254z" />
    <glyph glyph-name="Wgrave" unicode="&#x1e80;" horiz-adv-x="705" 
d="M138 0l-25 686h9l24 -648l1 -25l7 15l297 658h10l15 -669v-4l5 11l293 662h10l-305 -686h-12l-14 659v11l-10 -22l-292 -648h-13zM549 732l-148 100l6 8l147 -101z" />
    <glyph glyph-name="wgrave" unicode="&#x1e81;" horiz-adv-x="583" 
d="M101 -4l-34 503l9 2l32 -464l2 -27h1l14 30l216 458h11l25 -437l3 -51h1l23 47l214 441h10l-243 -502h-14l-25 451l-2 35h-1l-16 -34l-213 -452h-13zM445 572l-148 100l6 8l147 -101z" />
    <glyph glyph-name="Wacute" unicode="&#x1e82;" horiz-adv-x="705" 
d="M138 0l-25 686h9l24 -648l1 -25l7 15l297 658h10l15 -669v-4l5 11l293 662h10l-305 -686h-12l-14 659v11l-10 -22l-292 -648h-13zM407 732l-5 7l147 101l6 -8z" />
    <glyph glyph-name="wacute" unicode="&#x1e83;" horiz-adv-x="583" 
d="M101 -4l-34 503l9 2l32 -464l2 -27h1l14 30l216 458h11l25 -437l3 -51h1l23 47l214 441h10l-243 -502h-14l-25 451l-2 35h-1l-16 -34l-213 -452h-13zM303 572l-5 7l147 101l6 -8z" />
    <glyph glyph-name="Wdieresis" unicode="&#x1e84;" horiz-adv-x="705" 
d="M138 0l-25 686h9l24 -648l1 -25l7 15l297 658h10l15 -669v-4l5 11l293 662h10l-305 -686h-12l-14 659v11l-10 -22l-292 -648h-13zM422 757q-5 0 -9.5 4t-4.5 10t4.5 10t9.5 4q14 0 14 -14q0 -6 -4.5 -10t-9.5 -4zM530 757q-5 0 -9.5 4t-4.5 10t4.5 10t9.5 4q14 0 14 -14
q0 -6 -4.5 -10t-9.5 -4z" />
    <glyph glyph-name="wdieresis" unicode="&#x1e85;" horiz-adv-x="583" 
d="M101 -4l-34 503l9 2l32 -464l2 -27h1l14 30l216 458h11l25 -437l3 -51h1l23 47l214 441h10l-243 -502h-14l-25 451l-2 35h-1l-16 -34l-213 -452h-13zM317 597q-5 0 -9.5 4t-4.5 10t4.5 10t9.5 4q14 0 14 -14q0 -6 -4.5 -10t-9.5 -4zM425 597q-5 0 -9.5 4t-4.5 10t4.5 10
t9.5 4q14 0 14 -14q0 -6 -4.5 -10t-9.5 -4z" />
    <glyph glyph-name="uni1E8A" unicode="&#x1e8a;" horiz-adv-x="390" 
d="M481 686l-247 -313l147 -373h-11l-143 364l-281 -364h-12l288 373l-123 313h11l119 -304l240 304h12zM308 757q-5 0 -9.5 4t-4.5 10t4.5 10t9.5 4q14 0 14 -14q0 -6 -4.5 -10t-9.5 -4z" />
    <glyph glyph-name="uni1E8B" unicode="&#x1e8b;" horiz-adv-x="342" 
d="M384 498l-191 -224l127 -274h-11l-124 267l-229 -267h-13l238 277l-103 221h11l100 -214l182 214h13zM254 597q-5 0 -9.5 4t-4.5 10t4.5 10t9.5 4q14 0 14 -14q0 -6 -4.5 -10t-9.5 -4z" />
    <glyph glyph-name="Ygrave" unicode="&#x1ef2;" horiz-adv-x="458" 
d="M174 0l57 272l-133 414h10l123 -382l7 -22l14 19l288 385h12l-311 -415l-57 -271h-10zM385 732l-148 100l6 8l147 -101z" />
    <glyph glyph-name="ygrave" unicode="&#x1ef3;" horiz-adv-x="390" 
d="M-4 -202l-3 9q45 13 77.5 51.5t80.5 126.5l10 17l-8 -2q0 23 -8 84l-59 415l9 3l59 -415q3 -19 4.5 -37t2.5 -30.5t1 -14.5h1l21 39l246 454h11l-280 -516q-25 -45 -39 -68t-35 -50.5t-42.5 -42.5t-48.5 -23zM314 572l-148 100l6 8l147 -101z" />
    <glyph glyph-name="uni2007" unicode="&#x2007;" horiz-adv-x="539" 
 />
    <glyph glyph-name="uni2008" unicode="&#x2008;" horiz-adv-x="170" 
 />
    <glyph glyph-name="uni200B" unicode="&#x200b;" horiz-adv-x="0" 
 />
    <glyph glyph-name="endash" unicode="&#x2013;" horiz-adv-x="574" 
d="M53 276l2 9h485l-2 -9h-485z" />
    <glyph glyph-name="emdash" unicode="&#x2014;" horiz-adv-x="801" 
d="M53 276l2 9h712l-2 -9h-712z" />
    <glyph glyph-name="afii00208" unicode="&#x2015;" horiz-adv-x="801" 
d="M53 276l2 9h712l-2 -9h-712z" />
    <glyph glyph-name="quoteleft" unicode="&#x2018;" horiz-adv-x="122" 
d="M160 689l4 -5q-31 -29 -31 -64v-3q2 1 6 1q13 0 13 -14t-14 -14q-15 0 -15 21q0 47 37 78z" />
    <glyph glyph-name="quoteright" unicode="&#x2019;" horiz-adv-x="122" 
d="M104 590l-4 5q31 29 31 64v3q-2 -1 -6 -1q-13 0 -13 14t14 14q15 0 15 -21q0 -47 -37 -78z" />
    <glyph glyph-name="quotesinglbase" unicode="&#x201a;" horiz-adv-x="119" 
d="M-19 -78l-4 5q31 29 31 64v3q-2 -1 -6 -1q-13 0 -13 14t14 14q15 0 15 -21q0 -47 -37 -78z" />
    <glyph glyph-name="quotedblleft" unicode="&#x201c;" horiz-adv-x="207" 
d="M160 689l4 -5q-31 -29 -31 -64v-3q2 1 6 1q13 0 13 -14t-14 -14q-15 0 -15 21q0 47 37 78zM243 689l4 -5q-31 -29 -31 -64v-3q2 1 6 1q13 0 13 -14t-14 -14q-15 0 -15 21q0 47 37 78z" />
    <glyph glyph-name="quotedblright" unicode="&#x201d;" horiz-adv-x="207" 
d="M105 590l-4 5q31 29 31 64v3q-2 -1 -6 -1q-13 0 -13 14t14 14q15 0 15 -21q0 -47 -37 -78zM188 590l-4 5q31 29 31 64v3q-2 -1 -6 -1q-13 0 -13 14t14 14q15 0 15 -21q0 -47 -37 -78z" />
    <glyph glyph-name="quotedblbase" unicode="&#x201e;" horiz-adv-x="204" 
d="M-18 -78l-4 5q31 29 31 64v3q-2 -1 -6 -1q-13 0 -13 14t14 14q15 0 15 -21q0 -47 -37 -78zM65 -78l-4 5q31 29 31 64v3q-2 -1 -6 -1q-13 0 -13 14t14 14q15 0 15 -21q0 -47 -37 -78z" />
    <glyph glyph-name="dagger" unicode="&#x2020;" horiz-adv-x="379" 
d="M143 0l101 476h-157l2 9h157l42 201h10l-42 -201h155l-5 -9h-152l-101 -476h-10z" />
    <glyph glyph-name="daggerdbl" unicode="&#x2021;" horiz-adv-x="385" 
d="M139 0l43 206h-156l2 9h156l56 261h-157l2 9h157l42 201h10l-42 -201h155l-5 -9h-152l-56 -261h156l-5 -9h-153l-43 -206h-10z" />
    <glyph glyph-name="bullet" unicode="&#x2022;" horiz-adv-x="315" 
d="M182 260q-31 0 -52.5 21.5t-21.5 52.5t21.5 52.5t52.5 21.5t52.5 -21.5t21.5 -52.5t-21.5 -52.5t-52.5 -21.5z" />
    <glyph glyph-name="ellipsis" unicode="&#x2026;" horiz-adv-x="433" 
d="M57 -7q-5 0 -9.5 4t-4.5 10q0 14 14 14t14 -14q0 -6 -4.5 -10t-9.5 -4zM173 -7q-5 0 -9.5 4t-4.5 10q0 14 14 14t14 -14q0 -6 -4.5 -10t-9.5 -4zM289 -7q-5 0 -9.5 4t-4.5 10q0 14 14 14t14 -14q0 -6 -4.5 -10t-9.5 -4z" />
    <glyph glyph-name="perthousand" unicode="&#x2030;" horiz-adv-x="1036" 
d="M208 383q70 0 117 58t47 132q0 46 -24.5 75.5t-76.5 29.5q-70 0 -117 -58t-47 -132q0 -46 24.5 -75.5t76.5 -29.5zM206 374q-51 0 -80 30.5t-29 82.5q0 78 49 139t127 61q51 0 80 -30.5t29 -82.5q0 -78 -49 -139t-127 -61zM136 0l477 681h11l-477 -681h-11zM489 3
q70 0 117 58t47 132q0 46 -24.5 75.5t-76.5 29.5q-70 0 -117 -58t-47 -132q0 -46 24.5 -75.5t76.5 -29.5zM487 -6q-51 0 -80 30.5t-29 82.5q0 78 49 139t127 61q51 0 80 -30.5t29 -82.5q0 -78 -49 -139t-127 -61zM801 3q70 0 117 58t47 132q0 46 -24.5 75.5t-76.5 29.5
q-70 0 -117 -58t-47 -132q0 -46 24.5 -75.5t76.5 -29.5zM799 -6q-51 0 -80 30.5t-29 82.5q0 78 49 139t127 61q51 0 80 -30.5t29 -82.5q0 -78 -49 -139t-127 -61z" />
    <glyph glyph-name="guilsinglleft" unicode="&#x2039;" horiz-adv-x="244" 
d="M146 56l-83 184l162 184l8 -6l-159 -179l81 -179z" />
    <glyph glyph-name="guilsinglright" unicode="&#x203a;" horiz-adv-x="244" 
d="M98 424l83 -184l-162 -184l-8 6l159 179l-80 179z" />
    <glyph glyph-name="fraction" unicode="&#x2044;" horiz-adv-x="282" 
d="M-231 -154l721 917h10l-721 -917h-10z" />
    <glyph glyph-name="uni2070" unicode="&#x2070;" horiz-adv-x="353" 
d="M170 255q-51 0 -81.5 41.5t-30.5 106.5q0 57 24.5 114.5t65.5 95.5q50 48 109 48q54 0 83.5 -41.5t29.5 -103.5q0 -54 -22 -109.5t-62 -94.5q-59 -57 -116 -57zM172 264q51 0 107 54q38 36 59.5 90.5t21.5 108.5q0 59 -28.5 97t-76.5 38q-54 0 -101 -45
q-40 -38 -63 -92.5t-23 -111.5q0 -60 28.5 -99.5t75.5 -39.5z" />
    <glyph glyph-name="uni2074" unicode="&#x2074;" horiz-adv-x="336" 
d="M237 241l22 103l2 10h-208l2 9l210 293h10l-209 -293h197l5 24l30 141l11 2l-34 -158l-2 -9h61l-2 -9h-61l-2 -10l-21 -100z" />
    <glyph glyph-name="uni2075" unicode="&#x2075;" horiz-adv-x="283" 
d="M55 236q-15 0 -29 2v10q13 -3 31 -3q62 0 113 24t75 63t24 78q0 25 -14 42q-23 30 -85 30q-43 0 -87 -16l59 190h177l-4 -9h-165l-53 -168q41 12 75 12q66 0 92 -33q15 -22 15 -47q0 -41 -26 -82.5t-80 -67.5q-52 -25 -118 -25z" />
    <glyph glyph-name="uni2076" unicode="&#x2076;" horiz-adv-x="308" 
d="M161 255q-50 0 -77 29.5t-27 79.5q0 22 6 48q19 94 98 167q65 59 183 100l2 -9q-113 -37 -178 -97q-64 -60 -88 -134q62 57 132 57q49 0 76 -23.5t27 -63.5q0 -58 -41.5 -106t-112.5 -48zM163 264q68 0 105 45.5t37 96.5q0 37 -24.5 59t-70.5 22q-70 0 -134 -62
q-9 -29 -9 -59q0 -41 21.5 -71.5t74.5 -30.5z" />
    <glyph glyph-name="uni2077" unicode="&#x2077;" horiz-adv-x="305" 
d="M40 233q18 45 61 114t86 121q90 110 170 179h-249l4 9h259l-5 -11q-81 -69 -172 -182q-40 -48 -82.5 -115.5t-59.5 -110.5z" />
    <glyph glyph-name="uni2078" unicode="&#x2078;" horiz-adv-x="313" 
d="M156 255q-60 0 -86.5 22t-26.5 57q0 45 33.5 78t109.5 58q-82 32 -82 85q0 38 33.5 72t105.5 34q49 0 75 -18.5t26 -53.5q0 -81 -126 -119q94 -34 94 -96q0 -47 -40.5 -83t-115.5 -36zM158 264q68 0 106 32.5t38 76.5q0 59 -101 93q-148 -42 -148 -129q0 -73 105 -73z
M204 474q130 35 130 114q0 30 -24 47t-69 17q-63 0 -95 -30t-32 -67q0 -29 26.5 -50t63.5 -31z" />
    <glyph glyph-name="uni2079" unicode="&#x2079;" horiz-adv-x="347" 
d="M44 239l-5 8q139 37 206 96q70 62 96 132q-57 -54 -131 -54q-50 0 -77 24t-27 63q0 56 42 104.5t114 48.5q49 0 75 -28q27 -29 27 -81q0 -59 -30 -115t-82 -100q-73 -62 -208 -98zM212 430q74 0 134 62q8 35 8 59q0 46 -24 73.5t-70 27.5q-67 0 -105.5 -46t-38.5 -96
q0 -36 25 -58t71 -22z" />
    <glyph glyph-name="uni2080" unicode="&#x2080;" horiz-adv-x="353" 
d="M80 -255q-51 0 -81.5 41.5t-30.5 106.5q0 57 24.5 114.5t65.5 95.5q50 48 109 48q54 0 83.5 -41.5t29.5 -103.5q0 -54 -22 -109.5t-62 -94.5q-59 -57 -116 -57zM82 -246q51 0 107 54q38 36 59.5 90.5t21.5 108.5q0 59 -28.5 97t-76.5 38q-54 0 -101 -45
q-40 -38 -63 -92.5t-23 -111.5q0 -60 28.5 -99.5t75.5 -39.5z" />
    <glyph glyph-name="uni2081" unicode="&#x2081;" horiz-adv-x="254" 
d="M-34 -250l1 9h84l81 380l-115 -65l-3 7l122 70h9l-84 -392h82l-1 -9h-176z" />
    <glyph glyph-name="uni2082" unicode="&#x2082;" horiz-adv-x="297" 
d="M-59 -250l2 10q61 39 145 109q131 112 131 201q0 33 -21 52.5t-54 19.5q-63 0 -123 -39l-5 7q70 41 130 41q37 0 60.5 -21.5t23.5 -57.5q0 -102 -136 -211q-74 -60 -137 -102h205l-1 -9h-220z" />
    <glyph glyph-name="uni2083" unicode="&#x2083;" horiz-adv-x="306" 
d="M-36 -274q-14 0 -26 2v9q12 -2 28 -2q77 0 125 24q50 24 74 58t24 66q0 33 -28 53.5t-78 20.5h-35l2 9h39q50 0 90.5 30t40.5 77q0 34 -22.5 51.5t-60.5 17.5q-58 0 -112 -38l-5 7q60 40 119 40q41 0 66 -19t25 -57q0 -43 -30 -73t-75 -40q74 -15 74 -76q0 -38 -26 -74
t-78 -61q-53 -25 -131 -25z" />
    <glyph glyph-name="uni2084" unicode="&#x2084;" horiz-adv-x="336" 
d="M147 -269l22 103l2 10h-208l2 9l210 293h10l-209 -293h197l5 24l30 141l11 2l-34 -158l-2 -9h61l-2 -9h-61l-2 -10l-21 -100z" />
    <glyph glyph-name="uni2085" unicode="&#x2085;" horiz-adv-x="283" 
d="M-35 -274q-15 0 -29 2v10q13 -3 31 -3q62 0 113 24t75 63t24 78q0 25 -14 42q-23 30 -85 30q-43 0 -87 -16l59 190h177l-4 -9h-165l-53 -168q41 12 75 12q66 0 92 -33q15 -22 15 -47q0 -41 -26 -82.5t-80 -67.5q-52 -25 -118 -25z" />
    <glyph glyph-name="uni2086" unicode="&#x2086;" horiz-adv-x="308" 
d="M71 -255q-50 0 -77 29.5t-27 79.5q0 22 6 48q19 94 98 167q65 59 183 100l2 -9q-113 -37 -178 -97q-64 -60 -88 -134q62 57 132 57q49 0 76 -23.5t27 -63.5q0 -58 -41.5 -106t-112.5 -48zM73 -246q68 0 105 45.5t37 96.5q0 37 -24.5 59t-70.5 22q-70 0 -134 -62
q-9 -28 -9 -59q0 -41 21.5 -71.5t74.5 -30.5z" />
    <glyph glyph-name="uni2087" unicode="&#x2087;" horiz-adv-x="305" 
d="M-50 -277q18 45 61 114t86 121q90 110 170 179h-249l4 9h259l-5 -11q-81 -69 -172 -182q-40 -48 -82.5 -115.5t-59.5 -110.5z" />
    <glyph glyph-name="uni2088" unicode="&#x2088;" horiz-adv-x="313" 
d="M66 -255q-60 0 -86.5 22t-26.5 57q0 45 33.5 78t109.5 58q-82 32 -82 85q0 38 33.5 72t105.5 34q49 0 75 -18.5t26 -53.5q0 -81 -126 -119q94 -34 94 -96q0 -47 -40.5 -83t-115.5 -36zM68 -246q68 0 106 32.5t38 76.5q0 59 -101 93q-148 -42 -148 -129q0 -73 105 -73z
M114 -36q130 35 130 114q0 30 -24 47t-69 17q-63 0 -95 -30t-32 -67q0 -29 26.5 -50t63.5 -31z" />
    <glyph glyph-name="uni2089" unicode="&#x2089;" horiz-adv-x="347" 
d="M-46 -271l-5 8q139 37 206 96q70 62 96 132q-57 -54 -131 -54q-50 0 -77 24t-27 63q0 56 42 104.5t114 48.5q49 0 75 -28q27 -29 27 -81q0 -59 -30 -115t-82 -100q-73 -62 -208 -98zM122 -80q74 0 134 62q8 35 8 59q0 46 -24 73.5t-70 27.5q-67 0 -105.5 -46t-38.5 -96
q0 -36 25 -58t71 -22z" />
    <glyph glyph-name="Euro" unicode="&#x20ac;" horiz-adv-x="578" 
d="M341 -7q-96 0 -144 56q-50 57 -50 166q0 25 2 51h-99l3 8h97q3 27 9 58q8 41 19 76h-100l3 8h99q37 115 102 185q84 91 197 91q84 0 135 -48l-4 -9q-48 48 -133 48q-113 0 -196 -98q-57 -68 -90 -169h291l-3 -8h-290q-11 -32 -19 -72q-8 -42 -10 -62h294l-3 -8h-292
q-2 -28 -2 -51q0 -104 48 -159q47 -54 138 -54q83 0 161 53v-10q-77 -52 -163 -52z" />
    <glyph glyph-name="uni20B4" unicode="&#x20b4;" horiz-adv-x="505" 
d="M66 389l2 9h289q49 24 81 66t32 94q0 57 -37.5 91t-94.5 34q-80 0 -152 -45l-4 8q75 46 156 46q66 0 104 -38.5t38 -95.5q0 -51 -28.5 -92.5t-76.5 -67.5h105l-2 -9h-120q-29 -14 -78.5 -32t-84.5 -35t-66 -43h325l-2 -9h-332q-23 -22 -37.5 -56t-14.5 -67
q0 -70 44.5 -107.5t111.5 -37.5q84 0 166 53l3 -8q-84 -54 -169 -54q-72 0 -119 39.5t-47 113.5q0 32 13.5 66.5t35.5 57.5h-67l2 9h74q22 20 50.5 37t50 26t61 23.5t60.5 23.5h-272z" />
    <glyph glyph-name="afii61352" unicode="&#x2116;" horiz-adv-x="875" 
d="M636 495q0 73 41 132t107 59q52 0 76.5 -35t24.5 -89q0 -75 -41 -133t-111 -58q-46 0 -71.5 36t-25.5 88zM646 495q0 -46 22.5 -80.5t65.5 -34.5q66 0 103.5 58t37.5 129q0 47 -22.5 78.5t-68.5 31.5q-63 0 -100.5 -57t-37.5 -125zM40 0l145 686h15l221 -656l7 -21l3 14
l139 663h10l-145 -686h-14l-223 663l-5 15l-4 -19l-139 -659h-10zM821 225h-246l2 9h246z" />
    <glyph glyph-name="uni2117" unicode="&#x2117;" horiz-adv-x="817" 
d="M315 126v425h88q78 0 115 -31q34 -28 34 -83q0 -74 -54 -104q-35 -19 -90 -19h-83v-188h-10zM325 323h83q61 0 95 25q39 28 39 89q0 51 -31 76q-34 29 -108 29h-78v-219zM408 2q138 0 237.5 98.5t99.5 241.5t-99.5 242t-237.5 99t-237 -99t-99 -242t99 -241.5t237 -98.5z
M408 -7q-143 0 -244.5 101t-101.5 248t101.5 248.5t244.5 101.5q142 0 244.5 -101.5t102.5 -248.5t-102 -248t-245 -101z" />
    <glyph glyph-name="trademark" unicode="&#x2122;" horiz-adv-x="826" 
d="M387 335l95 351h15l62 -338l206 338h16l-53 -351h-9l49 328l2 14l-208 -342h-10l-61 331l-2 11l-92 -342h-10zM172 335l72 342h-130l2 9h274l-3 -9h-133l-72 -342h-10z" />
    <glyph glyph-name="Omega" unicode="&#x2126;" horiz-adv-x="553" 
d="M288 0l1 9q65 12 116.5 64.5t80 123.5t43 141.5t14.5 131.5q0 213 -170 213q-148 0 -236 -155q-39 -70 -59 -155t-20 -158q0 -168 108 -206l-2 -9h-148l-1 9h130q-97 44 -97 206q0 78 21.5 167t64.5 160q91 150 241 150q64 0 105.5 -31.5t57 -79t15.5 -111.5
q0 -59 -14.5 -129.5t-42 -140t-74.5 -122.5t-105 -69h125l-4 -9h-150z" />
    <glyph glyph-name="uni2150" unicode="&#x2150;" horiz-adv-x="841" 
d="M56 260l1 9h84l81 380l-115 -65l-3 7l122 70h9l-84 -392h82l-1 -9h-176zM33 -154l721 917h10l-721 -917h-10zM546 -27q18 45 61 114t86 121q90 110 170 179h-249l4 9h259l-5 -11q-81 -69 -172 -182q-40 -48 -82.5 -115.5t-59.5 -110.5z" />
    <glyph glyph-name="uni2151" unicode="&#x2151;" horiz-adv-x="883" 
d="M56 260l1 9h84l81 380l-115 -65l-3 7l122 70h9l-84 -392h82l-1 -9h-176zM53 -154l721 917h10l-721 -917h-10zM550 -21l-5 8q139 37 206 96q70 62 96 132q-57 -54 -131 -54q-50 0 -77 24t-27 63q0 56 42 104.5t114 48.5q49 0 75 -28q27 -29 27 -81q0 -59 -30 -115
t-82 -100q-73 -62 -208 -98zM718 170q74 0 134 62q8 35 8 59q0 46 -24 73.5t-70 27.5q-67 0 -105.5 -46t-38.5 -96q0 -36 25 -58t71 -22z" />
    <glyph glyph-name="uni2152" unicode="&#x2152;" horiz-adv-x="1143" 
d="M56 260l1 9h84l81 380l-115 -65l-3 7l122 70h9l-84 -392h82l-1 -9h-176zM53 -154l721 917h10l-721 -917h-10zM562 0l1 9h84l81 380l-115 -65l-3 7l122 70h9l-84 -392h82l-1 -9h-176zM930 -5q-51 0 -81.5 41.5t-30.5 106.5q0 57 24.5 114.5t65.5 95.5q50 48 109 48
q54 0 83.5 -41.5t29.5 -103.5q0 -54 -22 -109.5t-62 -94.5q-59 -57 -116 -57zM932 4q51 0 107 54q38 36 59.5 90.5t21.5 108.5q0 59 -28.5 97t-76.5 38q-54 0 -101 -45q-40 -38 -63 -92.5t-23 -111.5q0 -60 28.5 -99.5t75.5 -39.5z" />
    <glyph glyph-name="onethird" unicode="&#x2153;" horiz-adv-x="842" 
d="M56 260l1 9h84l81 380l-115 -65l-3 7l122 70h9l-84 -392h82l-1 -9h-176zM43 -154l721 917h10l-721 -917h-10zM560 -24q-14 0 -26 2v9q12 -2 28 -2q77 0 125 24q50 24 74 58t24 66q0 33 -28 53.5t-78 20.5h-35l2 9h39q50 0 90.5 30t40.5 77q0 34 -22.5 51.5t-60.5 17.5
q-58 0 -112 -38l-5 7q60 40 119 40q41 0 66 -19t25 -57q0 -43 -30 -73t-75 -40q74 -15 74 -76q0 -38 -26 -74t-78 -61q-53 -25 -131 -25z" />
    <glyph glyph-name="twothirds" unicode="&#x2154;" horiz-adv-x="885" 
d="M31 260l2 10q61 39 145 109q131 112 131 201q0 33 -21 52.5t-54 19.5q-63 0 -123 -39l-5 7q70 41 130 41q37 0 60.5 -21.5t23.5 -57.5q0 -102 -136 -211q-74 -60 -137 -102h205l-1 -9h-220zM76 -154l721 917h10l-721 -917h-10zM603 -24q-14 0 -26 2v9q12 -2 28 -2
q77 0 125 24q50 24 74 58t24 66q0 33 -28 53.5t-78 20.5h-35l2 9h39q50 0 90.5 30t40.5 77q0 34 -22.5 51.5t-60.5 17.5q-58 0 -112 -38l-5 7q60 40 119 40q41 0 66 -19t25 -57q0 -43 -30 -73t-75 -40q74 -15 74 -76q0 -38 -26 -74t-78 -61q-53 -25 -131 -25z" />
    <glyph glyph-name="uni2155" unicode="&#x2155;" horiz-adv-x="819" 
d="M56 260l1 9h84l81 380l-115 -65l-3 7l122 70h9l-84 -392h82l-1 -9h-176zM43 -154l721 917h10l-721 -917h-10zM561 -24q-15 0 -29 2v10q14 -3 31 -3q62 0 113 24t75 63t24 78q0 25 -14 42q-22 30 -85 30q-43 0 -87 -16l59 190h177l-4 -9h-165l-53 -168q41 12 75 12
q66 0 92 -33q15 -22 15 -47q0 -41 -26 -82.5t-80 -67.5q-52 -25 -118 -25z" />
    <glyph glyph-name="uni2156" unicode="&#x2156;" horiz-adv-x="862" 
d="M31 260l2 10q61 39 145 109q131 112 131 201q0 33 -21 52.5t-54 19.5q-63 0 -123 -39l-5 7q70 41 130 41q37 0 60.5 -21.5t23.5 -57.5q0 -102 -136 -211q-74 -60 -137 -102h205l-1 -9h-220zM76 -154l721 917h10l-721 -917h-10zM604 -24q-15 0 -29 2v10q13 -3 31 -3
q62 0 113 24t75 63t24 78q0 25 -14 42q-22 30 -85 30q-43 0 -87 -16l59 190h177l-4 -9h-165l-53 -168q41 12 75 12q66 0 92 -33q15 -22 15 -47q0 -41 -26 -82.5t-80 -67.5q-52 -25 -118 -25z" />
    <glyph glyph-name="uni2157" unicode="&#x2157;" horiz-adv-x="871" 
d="M54 236q-14 0 -26 2v9q12 -2 28 -2q77 0 125 24q50 24 74 58t24 66q0 33 -28 53.5t-78 20.5h-35l2 9h39q50 0 90.5 30t40.5 77q0 34 -22.5 51.5t-60.5 17.5q-58 0 -112 -38l-5 7q60 40 119 40q41 0 66 -19t25 -57q0 -43 -30 -73t-75 -40q74 -15 74 -76q0 -38 -26 -74
t-78 -61q-53 -25 -131 -25zM65 -154l721 917h10l-721 -917h-10zM613 -24q-15 0 -29 2v10q14 -3 31 -3q62 0 113 24t75 63t24 78q0 25 -14 42q-23 30 -85 30q-43 0 -87 -16l59 190h177l-4 -9h-165l-53 -168q41 12 75 12q66 0 92 -33q15 -22 15 -47q0 -41 -26 -82.5t-80 -67.5
q-52 -25 -118 -25z" />
    <glyph glyph-name="uni2158" unicode="&#x2158;" horiz-adv-x="901" 
d="M237 241l22 103l2 10h-208l2 9l210 293h10l-209 -293h197l5 24l30 141l11 2l-34 -158l-2 -9h61l-2 -9h-61l-2 -10l-21 -100zM125 -154l721 917h10l-721 -917h-10zM643 -24q-15 0 -29 2v10q14 -3 31 -3q62 0 113 24t75 63t24 78q0 25 -14 42q-23 30 -85 30q-43 0 -87 -16
l59 190h177l-4 -9h-165l-53 -168q41 12 75 12q66 0 92 -33q15 -22 15 -47q0 -41 -26 -82.5t-80 -67.5q-52 -25 -118 -25z" />
    <glyph glyph-name="uni2159" unicode="&#x2159;" horiz-adv-x="844" 
d="M56 260l1 9h84l81 380l-115 -65l-3 7l122 70h9l-84 -392h82l-1 -9h-176zM63 -154l721 917h10l-721 -917h-10zM667 -5q-50 0 -77 29.5t-27 79.5q0 22 6 48q19 94 98 167q65 59 183 100l2 -9q-113 -37 -178 -97q-64 -60 -88 -134q62 57 132 57q49 0 76 -23.5t27 -63.5
q0 -58 -41.5 -106t-112.5 -48zM669 4q68 0 105 45.5t37 96.5q0 37 -24.5 59t-70.5 22q-70 0 -134 -62q-9 -28 -9 -59q0 -41 21.5 -71.5t74.5 -30.5z" />
    <glyph glyph-name="uni215A" unicode="&#x215a;" horiz-adv-x="873" 
d="M55 236q-15 0 -29 2v10q13 -3 31 -3q62 0 113 24t75 63t24 78q0 25 -14 42q-23 30 -85 30q-43 0 -87 -16l59 190h177l-4 -9h-165l-53 -168q41 12 75 12q66 0 92 -33q15 -22 15 -47q0 -41 -26 -82.5t-80 -67.5q-52 -25 -118 -25zM72 -154l721 917h10l-721 -917h-10z
M696 -5q-50 0 -77 29.5t-27 79.5q0 22 6 48q19 94 98 167q65 59 183 100l2 -9q-113 -37 -178 -97q-64 -60 -88 -134q62 57 132 57q49 0 76 -23.5t27 -63.5q0 -58 -41.5 -106t-112.5 -48zM698 4q68 0 105 45.5t37 96.5q0 37 -24.5 59t-70.5 22q-70 0 -134 -62q-9 -28 -9 -59
q0 -41 21.5 -71.5t74.5 -30.5z" />
    <glyph glyph-name="oneeighth" unicode="&#x215b;" horiz-adv-x="849" 
d="M56 260l1 9h84l81 380l-115 -65l-3 7l122 70h9l-84 -392h82l-1 -9h-176zM53 -154l721 917h10l-721 -917h-10zM662 -5q-60 0 -86.5 22t-26.5 57q0 45 33.5 78t109.5 58q-82 32 -82 85q0 38 33.5 72t105.5 34q49 0 75 -18.5t26 -53.5q0 -81 -126 -119q94 -34 94 -96
q0 -47 -40.5 -83t-115.5 -36zM664 4q68 0 106 32.5t38 76.5q0 59 -101 93q-148 -42 -148 -129q0 -73 105 -73zM710 214q130 35 130 114q0 30 -24 47t-69 17q-63 0 -95 -30t-32 -67q0 -29 26.5 -50t63.5 -31z" />
    <glyph glyph-name="threeeighths" unicode="&#x215c;" horiz-adv-x="901" 
d="M54 236q-14 0 -26 2v9q12 -2 28 -2q77 0 125 24q50 24 74 58t24 66q0 33 -28 53.5t-78 20.5h-35l2 9h39q50 0 90.5 30t40.5 77q0 34 -22.5 51.5t-60.5 17.5q-58 0 -112 -38l-5 7q60 40 119 40q41 0 66 -19t25 -57q0 -43 -30 -73t-75 -40q74 -15 74 -76q0 -38 -26 -74
t-78 -61q-53 -25 -131 -25zM75 -154l721 917h10l-721 -917h-10zM714 -5q-60 0 -86.5 22t-26.5 57q0 45 33.5 78t109.5 58q-82 32 -82 85q0 38 33.5 72t105.5 34q49 0 75 -18.5t26 -53.5q0 -81 -126 -119q94 -34 94 -96q0 -47 -40.5 -83t-115.5 -36zM716 4q68 0 106 32.5
t38 76.5q0 59 -101 93q-148 -42 -148 -129q0 -73 105 -73zM762 214q130 35 130 114q0 30 -24 47t-69 17q-63 0 -95 -30t-32 -67q0 -29 26.5 -50t63.5 -31z" />
    <glyph glyph-name="fiveeighths" unicode="&#x215d;" horiz-adv-x="878" 
d="M55 236q-15 0 -29 2v10q13 -3 31 -3q62 0 113 24t75 63t24 78q0 25 -14 42q-23 30 -85 30q-43 0 -87 -16l59 190h177l-4 -9h-165l-53 -168q41 12 75 12q66 0 92 -33q15 -22 15 -47q0 -41 -26 -82.5t-80 -67.5q-52 -25 -118 -25zM52 -154l721 917h10l-721 -917h-10z
M691 -5q-60 0 -86.5 22t-26.5 57q0 45 33.5 78t109.5 58q-82 32 -82 85q0 38 33.5 72t105.5 34q49 0 75 -18.5t26 -53.5q0 -81 -126 -119q94 -34 94 -96q0 -47 -40.5 -83t-115.5 -36zM693 4q68 0 106 32.5t38 76.5q0 59 -101 93q-148 -42 -148 -129q0 -73 105 -73zM739 214
q130 35 130 114q0 30 -24 47t-69 17q-63 0 -95 -30t-32 -67q0 -29 26.5 -50t63.5 -31z" />
    <glyph glyph-name="seveneighths" unicode="&#x215e;" horiz-adv-x="900" 
d="M40 233q18 45 61 114t86 121q90 110 170 179h-249l4 9h259l-5 -11q-81 -69 -172 -182q-40 -48 -82.5 -115.5t-59.5 -110.5zM24 -154l721 917h10l-721 -917h-10zM713 -5q-60 0 -86.5 22t-26.5 57q0 45 33.5 78t109.5 58q-82 32 -82 85q0 38 33.5 72t105.5 34
q49 0 75 -18.5t26 -53.5q0 -81 -126 -119q94 -34 94 -96q0 -47 -40.5 -83t-115.5 -36zM715 4q68 0 106 32.5t38 76.5q0 59 -101 93q-148 -42 -148 -129q0 -73 105 -73zM761 214q130 35 130 114q0 30 -24 47t-69 17q-63 0 -95 -30t-32 -67q0 -29 26.5 -50t63.5 -31z" />
    <glyph glyph-name="uni215F" unicode="&#x215f;" horiz-adv-x="536" 
d="M56 260l1 9h84l81 380l-115 -65l-3 7l122 70h9l-84 -392h82l-1 -9h-176zM23 -154l721 917h10l-721 -917h-10z" />
    <glyph glyph-name="uni2189" unicode="&#x2189;" horiz-adv-x="941" 
d="M170 255q-51 0 -81.5 41.5t-30.5 106.5q0 57 24.5 114.5t65.5 95.5q50 48 109 48q54 0 83.5 -41.5t29.5 -103.5q0 -54 -22 -109.5t-62 -94.5q-59 -57 -116 -57zM172 264q51 0 107 54q38 36 59.5 90.5t21.5 108.5q0 59 -28.5 97t-76.5 38q-54 0 -101 -45
q-40 -38 -63 -92.5t-23 -111.5q0 -60 28.5 -99.5t75.5 -39.5zM122 -154l721 917h10l-721 -917h-10zM659 -24q-14 0 -26 2v9q12 -2 28 -2q77 0 125 24q50 24 74 58t24 66q0 33 -28 53.5t-78 20.5h-35l2 9h39q50 0 90.5 30t40.5 77q0 34 -22.5 51.5t-60.5 17.5q-58 0 -112 -38
l-5 7q60 40 119 40q41 0 66 -19t25 -57q0 -43 -30 -73t-75 -40q74 -15 74 -76q0 -38 -26 -74t-78 -61q-53 -25 -131 -25z" />
    </font>
</defs>
</svg>
